<?xml version="1.0" encoding="UTF-8"?>
<svg version="1.1" xmlns="http://www.w3.org/2000/svg" width="180" height="180" viewBox="0 0 180 180">
<path d="M0 0 C2.47216797 1.10913086 2.47216797 1.10913086 5.0546875 2.58984375 C6.49557739 3.40763306 6.49557739 3.40763306 7.96557617 4.24194336 C9.46761597 5.1121814 9.46761597 5.1121814 11 6 C11.99298096 6.56404541 12.98596191 7.12809082 14.0090332 7.70922852 C17.0777367 9.45730545 20.13362728 11.2261589 23.1875 13 C24.72954102 13.88558594 24.72954102 13.88558594 26.30273438 14.7890625 C42.6265588 24.27212877 42.6265588 24.27212877 45 30 C45.26069641 32.37680054 45.26069641 32.37680054 45.2746582 35.04052734 C45.28419022 36.04191742 45.29372223 37.0433075 45.30354309 38.07504272 C45.30263168 39.151138 45.30172028 40.22723328 45.30078125 41.3359375 C45.30506638 42.44804596 45.3093515 43.56015442 45.31376648 44.70596313 C45.31950798 47.05787475 45.32001138 49.40980413 45.31567383 51.76171875 C45.31251803 55.35447625 45.33596183 58.94640704 45.36132812 62.5390625 C45.36360158 64.8255198 45.3643044 67.1119793 45.36328125 69.3984375 C45.372491 70.47048431 45.38170074 71.54253113 45.39118958 72.64706421 C45.35724239 78.13904336 45.2591 82.34348161 42 87 C40.19970703 88.63037109 40.19970703 88.63037109 38.1328125 89.8984375 C37.33649414 90.39311523 36.54017578 90.88779297 35.71972656 91.39746094 C34.37346191 92.19071777 34.37346191 92.19071777 33 93 C31.99163086 93.59844727 30.98326172 94.19689453 29.94433594 94.81347656 C26.60032258 96.77307039 23.24066582 98.70285638 19.875 100.625 C18.16376953 101.60726562 18.16376953 101.60726562 16.41796875 102.609375 C14.22933121 103.86510896 12.03774024 105.11571395 9.84277344 106.36035156 C8.1707075 107.32476198 6.51091074 108.31214142 4.88378906 109.35058594 C0.69165326 112.00895649 -2.07635333 112.45064858 -7 112 C-9.66795046 110.77341194 -11.96883297 109.55762592 -14.4375 108.01953125 C-15.12126709 107.60966476 -15.80503418 107.19979828 -16.50952148 106.7775116 C-18.68198269 105.47004566 -20.84064056 104.14146652 -23 102.8125 C-24.44970902 101.93810577 -25.90022362 101.06504567 -27.3515625 100.19335938 C-45.53100476 89.20951404 -45.53100476 89.20951404 -47.1875 84.9375 C-47 82 -47 82 -45.4375 79.5625 C-43 78 -43 78 -40.3125 78.12109375 C-36.14647385 79.22646625 -33.13003937 81.1390702 -29.5625 83.5 C-28.14881948 84.40294207 -26.73474712 85.30527092 -25.3203125 86.20703125 C-23.17880419 87.58757548 -21.04098604 88.97317051 -18.90917969 90.36865234 C-16.92910671 91.65887206 -14.93499764 92.92448439 -12.9375 94.1875 C-12.34332275 94.58582031 -11.74914551 94.98414062 -11.13696289 95.39453125 C-8.08114634 97.30758854 -6.13154468 98.00044093 -2.50390625 97.98828125 C1.43162345 96.87826005 4.59641964 95.19548827 8 93 C9.30434684 92.18565202 10.60904559 91.37186748 11.9140625 90.55859375 C12.58083008 90.13819824 13.24759766 89.71780273 13.93457031 89.28466797 C16.02972697 87.98151024 18.1454318 86.72136494 20.2734375 85.47265625 C20.96050781 85.06853516 21.64757812 84.66441406 22.35546875 84.24804688 C23.68201532 83.46931015 25.0100982 82.69318345 26.33984375 81.91992188 C29.74493854 80.03991187 29.74493854 80.03991187 32 77 C32.10879128 75.66344073 32.15891077 74.32181457 32.17700195 72.98095703 C32.18983719 72.15314728 32.20267242 71.32533752 32.21589661 70.47244263 C32.22328354 69.57661469 32.23067047 68.68078674 32.23828125 67.7578125 C32.25038887 66.37793655 32.25038887 66.37793655 32.26274109 64.97018433 C32.27658357 63.02164598 32.28730499 61.07308337 32.29516602 59.12451172 C32.31239171 56.14373938 32.35627737 53.16407244 32.40039062 50.18359375 C32.41051635 48.29167483 32.41903283 46.39974648 32.42578125 44.5078125 C32.45204338 43.17014328 32.45204338 43.17014328 32.47883606 41.80545044 C32.49902851 36.90547053 32.49902851 36.90547053 30.34667969 32.63085938 C27.63299276 30.74494295 24.90361144 29.02883051 22.02734375 27.3984375 C21.46302139 27.07589996 20.89869904 26.75336243 20.317276 26.42105103 C18.52740425 25.39960711 16.73269939 24.38704576 14.9375 23.375 C12.57050677 22.03058589 10.20529724 20.68306127 7.83984375 19.3359375 C6.79175537 18.74345215 5.74366699 18.1509668 4.66381836 17.54052734 C2.73645228 16.42590174 0.85252784 15.23501856 -1 14 C-6.38571717 13.47428354 -9.42049999 14.33977296 -13.9765625 17.17578125 C-15.60078125 18.17061523 -15.60078125 18.17061523 -17.2578125 19.18554688 C-18.36898437 19.88744141 -19.48015625 20.58933594 -20.625 21.3125 C-21.74390625 22.00279297 -22.8628125 22.69308594 -24.015625 23.40429688 C-26.09760871 24.69000877 -28.17571276 25.98204055 -30.24853516 27.2824707 C-31.15651855 27.84925537 -32.06450195 28.41604004 -33 29 C-33.87833496 29.56098389 -34.75666992 30.12196777 -35.66162109 30.69995117 C-38.6677595 32.37124863 -40.61103099 32.44203944 -44 32 C-45.875 30.8125 -45.875 30.8125 -47 29 C-47.26416016 26.55932617 -47.26416016 26.55932617 -47 24 C-45.75537109 22.5090332 -45.75537109 22.5090332 -43.8984375 21.23828125 C-43.1672168 20.73506348 -42.43599609 20.2318457 -41.68261719 19.71337891 C-36.04864559 16.1149795 -30.35619726 12.62782292 -24.625 9.1875 C-23.32920199 8.40466934 -22.03362734 7.62146884 -20.73828125 6.83789062 C-7.4729741 -1.17207994 -7.4729741 -1.17207994 0 0 Z " fill="#1B5FF0" transform="translate(105,32)"/>
<path d="M0 0 C2.49536133 1.21508789 2.49536133 1.21508789 5.08203125 2.72265625 C6.01337891 3.26083984 6.94472656 3.79902344 7.90429688 4.35351562 C8.86400391 4.91748047 9.82371094 5.48144531 10.8125 6.0625 C11.79154297 6.63033203 12.77058594 7.19816406 13.77929688 7.78320312 C16.18993348 9.18254827 18.5965851 10.58829929 21 12 C19.26033756 17.21898731 13.76664438 19.06656946 9.1875 21.75 C7.6705957 22.67232422 7.6705957 22.67232422 6.12304688 23.61328125 C5.14787109 24.18949219 4.17269531 24.76570313 3.16796875 25.359375 C2.27360107 25.89014648 1.3792334 26.42091797 0.45776367 26.96777344 C-2 28 -2 28 -4.01367188 27.82861328 C-8.4396875 25.98226409 -12.52970234 23.50008977 -16.6875 21.125 C-17.66267578 20.58230469 -18.63785156 20.03960937 -19.64257812 19.48046875 C-20.56876953 18.95324219 -21.49496094 18.42601563 -22.44921875 17.8828125 C-23.29830811 17.40215332 -24.14739746 16.92149414 -25.0222168 16.42626953 C-27 15 -27 15 -28 12 C-24.28438346 9.78884432 -20.55059892 7.61039613 -16.8125 5.4375 C-15.75740234 4.80908203 -14.70230469 4.18066406 -13.61523438 3.53320312 C-12.08286133 2.64858398 -12.08286133 2.64858398 -10.51953125 1.74609375 C-9.58214111 1.19622803 -8.64475098 0.6463623 -7.67895508 0.07983398 C-4.49205834 -1.20474127 -3.22153905 -1.09674829 0 0 Z " fill="#081330" transform="translate(104,59)"/>
<path d="M0 0 C1.35507551 9.17566166 2.75394591 18.99576016 0 28 C-5.37047085 34.6202265 -13.99061694 38.45807518 -22 41 C-22.99 41 -23.98 41 -25 41 C-27.37635767 17.68244738 -27.37635767 17.68244738 -23.65673828 11.91845703 C-20.21292443 8.82755323 -16.17406382 7.18898851 -11.84228516 5.68505859 C-9.3810173 4.76982965 -7.33982793 3.42695885 -5.1875 1.9375 C-2 0 -2 0 0 0 Z " fill="#07132F" transform="translate(128,77)"/>
<path d="M0 0 C3.38363606 1.28436252 6.48202414 2.74761872 9.609375 4.56640625 C10.44597656 5.05173828 11.28257813 5.53707031 12.14453125 6.03710938 C13.00433594 6.54048828 13.86414063 7.04386719 14.75 7.5625 C15.62527344 8.06974609 16.50054687 8.57699219 17.40234375 9.09960938 C23.85776612 12.85776612 23.85776612 12.85776612 25 14 C25.08758003 15.99964982 25.10696576 18.0023611 25.09765625 20.00390625 C25.09443359 21.21884766 25.09121094 22.43378906 25.08789062 23.68554688 C25.07951172 24.96494141 25.07113281 26.24433594 25.0625 27.5625 C25.05798828 28.84576172 25.05347656 30.12902344 25.04882812 31.45117188 C25.03699545 34.63416022 25.02051068 37.81705762 25 41 C21.79419178 40.35164963 19.34558105 39.20594579 16.5234375 37.56640625 C15.688125 37.08236328 14.8528125 36.59832031 13.9921875 36.09960938 C13.12851563 35.59236328 12.26484375 35.08511719 11.375 34.5625 C10.50359375 34.05912109 9.6321875 33.55574219 8.734375 33.03710938 C2.26894423 29.26894423 2.26894423 29.26894423 0 27 C-0.22705078 24.29443359 -0.22705078 24.29443359 -0.1953125 20.8984375 C-0.18886719 19.68671875 -0.18242188 18.475 -0.17578125 17.2265625 C-0.15902344 15.95554687 -0.14226562 14.68453125 -0.125 13.375 C-0.11146484 11.456875 -0.11146484 11.456875 -0.09765625 9.5 C-0.07402303 6.33314833 -0.04107629 3.16666576 0 0 Z " fill="#07122F" transform="translate(73,77)"/>
<path d="M0 0 C1.11375 0.33 2.2275 0.66 3.375 1 C4.035 2.32 4.695 3.64 5.375 5 C17.585 5 29.795 5 42.375 5 C42.375 6.32 42.375 7.64 42.375 9 C41.27510742 9.0093457 40.17521484 9.01869141 39.04199219 9.02832031 C34.95645834 9.06822937 30.87167681 9.13399004 26.78662109 9.20751953 C25.01946689 9.23572397 23.25218666 9.25694118 21.48486328 9.27099609 C18.94237778 9.29243358 16.40140662 9.33908503 13.859375 9.390625 C12.67634796 9.39246796 12.67634796 9.39246796 11.46942139 9.39434814 C7.81780043 9.49159094 5.84198868 9.59306665 3.03613281 12.03808594 C2.21387207 13.0092334 2.21387207 13.0092334 1.375 14 C-2.15656157 14 -3.89965462 13.67698902 -6.5 11.25 C-7.87363504 8.50272993 -8.15562116 7.03212094 -7.625 4 C-5.29104858 0.45239384 -4.29516475 0 0 0 Z " fill="#105AF3" transform="translate(25.625,78)"/>
<path d="M0 0 C3.375 0.9375 3.375 0.9375 5.375 3.9375 C7.88885259 4.44710691 7.88885259 4.44710691 10.8203125 4.44921875 C12.43486328 4.50239258 12.43486328 4.50239258 14.08203125 4.55664062 C15.20996094 4.57919922 16.33789062 4.60175781 17.5 4.625 C19.20349609 4.67624023 19.20349609 4.67624023 20.94140625 4.72851562 C23.75250579 4.81119502 26.56328553 4.88027937 29.375 4.9375 C29.375 6.2575 29.375 7.5775 29.375 8.9375 C28.31587402 8.95151855 28.31587402 8.95151855 27.23535156 8.96582031 C24.03119455 9.01955659 20.82849243 9.10319757 17.625 9.1875 C16.51382813 9.20167969 15.40265625 9.21585938 14.2578125 9.23046875 C13.18789063 9.26269531 12.11796875 9.29492188 11.015625 9.328125 C9.53884277 9.3595459 9.53884277 9.3595459 8.03222656 9.39160156 C4.71223123 10.07365867 3.67366296 11.53582244 1.375 13.9375 C-2.25 13.875 -2.25 13.875 -5.625 12.9375 C-7.95249345 9.44625983 -8.12799316 8.04527749 -7.625 3.9375 C-5.31085172 0.32742869 -4.32918251 -0.07464108 0 0 Z " fill="#1C4FEB" transform="translate(38.625,94.0625)"/>
<path d="M0 0 C0.66 1.32 1.32 2.64 2 4 C9.92 4 17.84 4 26 4 C26 5.32 26 6.64 26 8 C24.94087402 8.01401855 24.94087402 8.01401855 23.86035156 8.02832031 C20.65619455 8.08205659 17.45349243 8.16569757 14.25 8.25 C13.13882813 8.26417969 12.02765625 8.27835938 10.8828125 8.29296875 C9.81289063 8.32519531 8.74296875 8.35742188 7.640625 8.390625 C6.16384277 8.4220459 6.16384277 8.4220459 4.65722656 8.45410156 C1.3358479 9.13644286 0.23523784 10.52998353 -2 13 C-4.5 13.5 -4.5 13.5 -7 13 C-9.3125 11.4375 -9.3125 11.4375 -11 9 C-11.5 5.4375 -11.5 5.4375 -11 2 C-7.8995347 -1.96859559 -4.54234395 -1.26176221 0 0 Z " fill="#0C6DFC" transform="translate(42,63)"/>
<path d="M0 0 C1.093125 0.28875 2.18625 0.5775 3.3125 0.875 C3.6425 1.535 3.9725 2.195 4.3125 2.875 C3.37803465 4.90644641 2.38025224 6.91033587 1.3125 8.875 C-0.0075 8.875 -1.3275 8.875 -2.6875 8.875 C-3.0175 7.555 -3.3475 6.235 -3.6875 4.875 C-4.3475 4.875 -5.0075 4.875 -5.6875 4.875 C-5.3575 7.185 -5.0275 9.495 -4.6875 11.875 C-6.88403565 10.13607595 -7.62243775 9.23748966 -8.125 6.4375 C-7.6875 3.875 -7.6875 3.875 -6.125 1.5 C-3.6875 -0.125 -3.6875 -0.125 0 0 Z " fill="#236EF7" transform="translate(25.6875,78.125)"/>
<path d="M0 0 C0.66 0.33 1.32 0.66 2 1 C2.73075648 3.3140622 3.40138258 5.64828869 4 8 C6.86724686 7.42655063 7.8614515 7.1385485 10 5 C12.52197266 4.77294922 12.52197266 4.77294922 15.6640625 4.8046875 C16.78554688 4.81113281 17.90703125 4.81757812 19.0625 4.82421875 C20.238125 4.84097656 21.41375 4.85773438 22.625 4.875 C23.80835937 4.88402344 24.99171875 4.89304687 26.2109375 4.90234375 C29.14082523 4.92597188 32.0703134 4.95891486 35 5 C35.33 4.34 35.66 3.68 36 3 C36 3.99 36 4.98 36 6 C34.94087402 6.01401855 34.94087402 6.01401855 33.86035156 6.02832031 C30.65619455 6.08205659 27.45349243 6.16569757 24.25 6.25 C23.13882813 6.26417969 22.02765625 6.27835937 20.8828125 6.29296875 C19.81289063 6.32519531 18.74296875 6.35742188 17.640625 6.390625 C16.16384277 6.4220459 16.16384277 6.4220459 14.65722656 6.45410156 C11.33723123 7.13615867 10.29866296 8.59832244 8 11 C4.375 10.9375 4.375 10.9375 1 10 C-1.29404844 6.55892734 -1.26293056 5.03160191 -1 1 C-0.67 0.67 -0.34 0.34 0 0 Z " fill="#1446E9" transform="translate(32,97)"/>
<path d="M0 0 C0.33 0.66 0.66 1.32 1 2 C-1.17060168 7.59786748 -1.17060168 7.59786748 -4.0625 9 C-4.701875 9 -5.34125 9 -6 9 C-6.66 8.34 -7.32 7.68 -8 7 C-8 6.01 -8 5.02 -8 4 C-8.99 4 -9.98 4 -11 4 C-8.39869899 -1.76002367 -6.0074706 -1.20149412 0 0 Z " fill="#1777FC" transform="translate(42,63)"/>
<path d="M0 0 C1.670625 0.37125 1.670625 0.37125 3.375 0.75 C3.705 1.41 4.035 2.07 4.375 2.75 C1.93055556 8.19444444 1.93055556 8.19444444 0.375 9.75 C-1.29117115 9.79063832 -2.95888095 9.792721 -4.625 9.75 C-5.285 7.11 -5.945 4.47 -6.625 1.75 C-3.625 -0.25 -3.625 -0.25 0 0 Z " fill="#2258EC" transform="translate(38.625,94.25)"/>
<path d="M0 0 C0.66 0 1.32 0 2 0 C2.66 1.32 3.32 2.64 4 4 C4.99 4 5.98 4 7 4 C7 5.65 7 7.3 7 9 C4.03 8.505 4.03 8.505 1 8 C0.67 5.36 0.34 2.72 0 0 Z " fill="#1F63F3" transform="translate(20,83)"/>
<path d="M0 0 C0.66 0.33 1.32 0.66 2 1 C1.24203125 1.58007812 1.24203125 1.58007812 0.46875 2.171875 C-0.1809375 2.69265625 -0.830625 3.2134375 -1.5 3.75 C-2.1496875 4.26046875 -2.799375 4.7709375 -3.46875 5.296875 C-5.44572515 7.11404296 -5.44572515 7.11404296 -5 11 C-4.34 11.33 -3.68 11.66 -3 12 C-3 12.66 -3 13.32 -3 14 C-6.875 12.125 -6.875 12.125 -8 11 C-8.3125 8.64453125 -8.3125 8.64453125 -8 6 C-6.25 4.19921875 -6.25 4.19921875 -4 2.6875 C-3.2575 2.17574219 -2.515 1.66398437 -1.75 1.13671875 C-1.1725 0.76160156 -0.595 0.38648438 0 0 Z " fill="#2687FD" transform="translate(66,50)"/>
<path d="M0 0 C1.98 0.495 1.98 0.495 4 1 C3.67 2.65 3.34 4.3 3 6 C1.68 5.67 0.36 5.34 -1 5 C-0.67 3.35 -0.34 1.7 0 0 Z " fill="#E8EDFC" transform="translate(36,98)"/>
<path d="M0 0 C1.98 0.495 1.98 0.495 4 1 C3.67 2.65 3.34 4.3 3 6 C1.68 5.67 0.36 5.34 -1 5 C-0.67 3.35 -0.34 1.7 0 0 Z " fill="#E7F0FD" transform="translate(36,66)"/>
<path d="M0 0 C1.98 0.495 1.98 0.495 4 1 C3.67 2.65 3.34 4.3 3 6 C1.68 5.34 0.36 4.68 -1 4 C-0.67 2.68 -0.34 1.36 0 0 Z " fill="#DEE9FD" transform="translate(23,82)"/>
<path d="M0 0 C2.3431213 0.25561323 4.67843403 0.59270772 7 1 C7.33 1.66 7.66 2.32 8 3 C7.0625 5.625 7.0625 5.625 6 8 C4.9375 6.125 4.9375 6.125 4 4 C4.33 3.34 4.66 2.68 5 2 C3.35 2 1.7 2 0 2 C0 1.34 0 0.68 0 0 Z " fill="#2C60EE" transform="translate(35,94)"/>
<path d="M0 0 C0.66 0 1.32 0 2 0 C2.625 1.8125 2.625 1.8125 3 4 C2.01 5.485 2.01 5.485 1 7 C1 6.01 1 5.02 1 4 C0.01 4 -0.98 4 -2 4 C-1.34 2.68 -0.68 1.36 0 0 Z " fill="#2580FD" transform="translate(33,63)"/>
</svg>
