<?xml version="1.0" encoding="UTF-8"?>
<svg version="1.1" xmlns="http://www.w3.org/2000/svg" width="1254" height="1254" viewBox="0 0 1254 1254">
<path d="M0 0 C2.5947647 1.53448647 5.19888593 3.05220552 7.8046875 4.56787109 C11.86123155 6.92839372 15.9140562 9.29514113 19.96484375 11.66552734 C26.35276918 15.39841325 32.76539295 19.08757937 39.1796875 22.77490234 C49.25802332 28.57337627 59.27174099 34.47440258 69.26318359 40.42114258 C76.90514807 44.9621716 84.59124055 49.41909966 92.3046875 53.83740234 C102.12309849 59.46572901 111.81339977 65.27883215 121.46829224 71.18075562 C129.83081946 76.28988774 138.25576478 81.26299863 146.78515625 86.08862305 C152.95789887 89.58288747 159.07915907 93.15610096 165.1796875 96.77490234 C175.86780056 103.11362092 186.59646334 109.38088376 197.33496094 115.63378906 C200.34898606 117.38930096 203.36217166 119.14624364 206.375 120.90380859 C207.8597583 121.76993774 207.8597583 121.76993774 209.37451172 122.65356445 C211.36335528 123.81412882 213.35196363 124.97509635 215.34033203 126.13647461 C220.4833352 129.13943902 225.63161152 132.13274731 230.7890625 135.11083984 C258.8078206 151.30931837 281.14868618 166.4818477 290.3671875 199.39990234 C292.4326079 207.36511059 292.65464831 215.05259262 292.63461304 223.25064087 C292.63835585 224.63380377 292.64295987 226.01696456 292.64834368 227.40012205 C292.66051141 231.17759211 292.66032061 234.95497319 292.65795493 238.73245835 C292.65754517 242.8158034 292.66860107 246.89912052 292.67807007 250.98245239 C292.69464727 258.97418992 292.70017815 266.96589793 292.70129482 274.95765121 C292.70224694 281.45804263 292.7063654 287.95842436 292.71269608 294.45881271 C292.73030023 312.91209509 292.73953634 331.36535424 292.73803513 349.81864507 C292.73791526 351.30930443 292.73791526 351.30930443 292.73779297 352.83007812 C292.73771121 353.82507271 292.73762945 354.82006729 292.73754521 355.84521322 C292.73673274 371.96132561 292.75586263 388.07734444 292.7840697 404.19342978 C292.81284257 420.76433212 292.82660755 437.3351889 292.82488215 453.90611684 C292.82421973 463.20013277 292.82964703 472.49405063 292.85123825 481.78804398 C292.86950818 489.70276019 292.87374996 497.61733389 292.8602194 505.53206213 C292.85371869 509.56449417 292.85346665 513.59665328 292.8709259 517.62905884 C292.99710331 548.72141965 292.99710331 548.72141965 288.3671875 561.39990234 C287.7695588 563.05396811 287.7695588 563.05396811 287.1598568 564.74144936 C283.28824454 574.93029758 277.98110933 584.00890486 270.6796875 592.08740234 C270.2355249 592.58554443 269.7913623 593.08368652 269.33374023 593.59692383 C261.08963326 602.34429238 250.78295617 608.61598783 240.35623169 614.40036011 C237.8676932 615.78106414 235.39006337 617.18086551 232.9115448 618.57945251 C231.69055771 619.26825089 230.4690603 619.95614553 229.24702454 620.64308167 C223.94920656 623.62313618 218.74687119 626.73448739 213.55078125 629.88818359 C207.57075138 633.5001893 201.52368588 636.99981328 195.4921875 640.52490234 C186.18481431 645.96554145 176.91087852 651.45553744 167.6796875 657.02490234 C158.10080744 662.80160734 148.43995832 668.42228886 138.73876953 673.99072266 C131.50195253 678.15061355 124.3232739 682.39424889 117.17871094 686.71020508 C109.92347936 691.08544777 102.61791766 695.37268754 95.3046875 699.64990234 C84.42040164 706.0165471 73.55925834 712.42065909 62.71557617 718.85620117 C56.52412905 722.53040343 50.32672692 726.1938659 44.1171875 729.83740234 C39.22684146 732.70807627 34.35116084 735.60135771 29.4921875 738.52490234 C28.27999482 739.2515431 27.06775204 739.97810027 25.85546875 740.70458984 C22.76239598 742.55882368 19.67586733 744.4236393 16.59106445 746.29159546 C14.22050498 747.72423035 11.84556081 749.14949716 9.46990967 750.57366943 C8.29615856 751.2792967 7.12409394 751.9877386 5.95391846 752.69927979 C-9.34412927 761.99586629 -23.64561798 767.97613254 -41.6953125 767.71240234 C-42.80197266 767.715625 -43.90863281 767.71884766 -45.04882812 767.72216797 C-66.50433789 767.58276418 -82.7489168 758.57157739 -100.44775391 747.39892578 C-105.378313 744.30438202 -110.35324078 741.28384989 -115.33139038 738.26663208 C-117.08155324 737.20558759 -118.83050639 736.14256998 -120.5793457 735.0793457 C-130.38843265 729.12241609 -140.25909542 723.27133909 -150.13598633 717.42776489 C-159.16331578 712.08435471 -168.1346951 706.66594692 -177.03466797 701.11206055 C-187.81237087 694.39547466 -198.73168761 687.91341501 -209.6328125 681.39990234 C-212.904569 679.44310724 -216.17539392 677.4847671 -219.4453125 675.52490234 C-220.2391333 675.04923828 -221.0329541 674.57357422 -221.85083008 674.08349609 C-227.70579425 670.56970849 -233.54138445 667.02473274 -239.3737793 663.47363281 C-251.4197921 656.13977459 -263.51202542 648.89030007 -275.64837646 641.70690918 C-288.73244785 633.96041469 -301.73975533 626.09204282 -314.71679688 618.16772461 C-317.50721949 616.47604258 -320.31463241 614.81596614 -323.125 613.15771484 C-334.46233794 606.35736553 -342.06392765 597.43183006 -345.94140625 584.71240234 C-348.14319549 574.16371715 -347.54339919 563.24860179 -342.15625 553.81396484 C-336.32559924 544.94818081 -329.04807195 538.25575962 -318.90625 534.81396484 C-293.73857958 530.23016233 -274.47525868 545.81956737 -254.16125488 558.21253967 C-248.3457103 561.75968574 -242.51421343 565.27525719 -236.6328125 568.71240234 C-213.01580514 582.52220048 -189.71116682 596.86869744 -166.34521484 611.09741211 C-157.69629144 616.36343624 -149.04210161 621.62078036 -140.38452148 626.87255859 C-135.04836982 630.10983881 -129.71327314 633.34873544 -124.38612366 636.60081482 C-110.41077205 645.1323558 -96.37469481 653.54451838 -82.22290039 661.78076172 C-80.51541626 662.7755957 -80.51541626 662.7755957 -78.7734375 663.79052734 C-77.70472412 664.4122583 -76.63601074 665.03398926 -75.53491211 665.67456055 C-73.05120887 667.15115942 -70.63079502 668.68751606 -68.21484375 670.27099609 C-59.04925062 676.04852014 -46.13694 676.67829514 -35.6328125 675.39990234 C-25.13786995 672.97440451 -16.02158774 667.56196794 -6.99853516 661.86962891 C-2.05197461 658.7965335 2.97850079 655.86167345 7.9921875 652.89990234 C9.15804659 652.2094578 10.32381713 651.51886372 11.48950195 650.828125 C20.54163141 645.46642708 29.61632523 640.143625 38.6963501 634.8293457 C47.43633171 629.71357148 56.15902406 624.56973708 64.8671875 619.39990234 C74.78997369 613.50897424 84.73557568 607.65853586 94.69515991 601.83016968 C103.54062094 596.6530495 112.36705021 591.44522265 121.1796875 586.21240234 C129.55519469 581.23944495 137.94802781 576.2985887 146.3671875 571.39990234 C150.368347 569.06855246 154.36825995 566.73507856 158.3671875 564.39990234 C158.94049805 564.06522949 159.51380859 563.73055664 160.10449219 563.38574219 C163.76690375 561.24685413 167.42567992 559.10191775 171.08056641 556.95019531 C172.8135087 555.93145826 174.54928961 554.91755471 176.28515625 553.90380859 C190.58776848 545.46716519 202.31290542 536.35136137 206.94938862 519.55626988 C207.81500126 515.08862026 207.65167202 510.5504628 207.64134216 506.01571655 C207.64657884 504.87551327 207.65181552 503.73530999 207.65721089 502.5605551 C207.67220237 498.74313397 207.67291587 494.92584698 207.67358398 491.10839844 C207.68012723 488.36986657 207.68958517 485.63134624 207.69880676 482.89282227 C207.72161828 475.45458514 207.72957335 468.01637662 207.73463321 460.57810926 C207.73789497 455.92906872 207.74442037 451.2800364 207.7516346 446.63100052 C207.77119617 433.74605006 207.78760275 420.86110724 207.79051113 407.97614098 C207.79079249 406.74026848 207.79079249 406.74026848 207.79107952 405.47942887 C207.79144576 403.80932212 207.79180946 402.13921537 207.79217064 400.46910863 C207.79235345 399.64012309 207.79253626 398.81113756 207.79272461 397.95703125 C207.79290516 397.12702766 207.79308571 396.29702407 207.79327173 395.44186886 C207.79681142 382.0006492 207.82382295 368.55958995 207.8612225 355.11842589 C207.89935835 341.30147132 207.918669 327.48459622 207.91897064 313.66758788 C207.91955406 305.91674321 207.92797076 298.16608988 207.95696831 290.41529465 C207.98155306 283.81388266 207.9887176 277.21273178 207.97372078 270.61128633 C207.96658014 267.24737717 207.97003744 263.88439981 207.99013138 260.52048111 C208.08693366 243.25714318 208.1337318 228.51653469 195.3671875 215.39990234 C189.62344939 209.68770343 183.23619383 205.74366763 176.17077637 201.83514404 C174.31765569 200.81000145 172.47114019 199.77376502 170.62597656 198.734375 C168.72121073 197.66141753 166.8161785 196.58899093 164.90924072 195.51989746 C158.93931392 192.1717457 153.02269077 188.73534247 147.1171875 185.27490234 C146.14394531 184.70570068 145.17070313 184.13649902 144.16796875 183.55004883 C142.21263829 182.40635579 140.25755861 181.26223386 138.30273438 180.11767578 C133.32740186 177.20629524 128.34699825 174.30361388 123.3671875 171.39990234 C121.36065935 170.22935982 119.35414891 169.05878695 117.34765625 167.88818359 C113.41325518 165.59306298 109.47832841 163.29884763 105.54296875 161.00537109 C86.01757602 149.62453024 66.50297017 138.22463677 47.0546875 126.71240234 C38.67106936 121.75004296 30.26373304 116.82957906 21.84545898 111.92626953 C12.39085355 106.41825889 2.95107558 100.88513956 -6.48657227 95.34814453 C-8.76588747 94.01089017 -11.0456621 92.67442981 -13.32568359 91.33837891 C-15.55874103 90.0294703 -17.79081448 88.71888173 -20.02197266 87.40673828 C-21.08722168 86.78186523 -22.1524707 86.15699219 -23.25 85.51318359 C-24.19472168 84.95800049 -25.13944336 84.40281738 -26.11279297 83.83081055 C-33.61545365 79.57067741 -40.30601306 78.25695987 -48.9453125 78.27490234 C-50.17894531 78.27232422 -51.41257812 78.26974609 -52.68359375 78.26708984 C-53.98683594 78.31091797 -55.29007813 78.35474609 -56.6328125 78.39990234 C-57.69363037 78.42636841 -57.69363037 78.42636841 -58.77587891 78.45336914 C-65.22987486 78.85294264 -69.86353761 81.22980816 -75.3828125 84.46240234 C-76.589375 85.14206055 -76.589375 85.14206055 -77.8203125 85.83544922 C-83.71795287 89.18764575 -89.47610674 92.75953834 -95.24511719 96.3269043 C-100.31229615 99.42761174 -105.44106535 102.41996739 -110.57461548 105.40911865 C-121.4213095 111.72737147 -132.21900063 118.12191656 -142.97241211 124.59790039 C-148.74400619 128.0715913 -154.52473126 131.52892926 -160.3203125 134.96240234 C-161.31340172 135.55074356 -161.31340172 135.55074356 -162.32655334 136.15097046 C-165.04946687 137.76383006 -167.77251191 139.37646756 -170.49557495 140.98907471 C-180.04024688 146.64409204 -189.53934031 152.36836158 -199.0078125 158.14990234 C-208.88834229 164.18119305 -218.8555395 170.04413519 -228.90014648 175.79833984 C-236.24985104 180.01190953 -243.55654421 184.2911002 -250.83834839 188.62045288 C-253.66294057 190.29934154 -256.4899476 191.97415845 -259.31640625 193.64990234 C-262.37544361 195.46417061 -265.43313784 197.28039154 -268.48486328 199.10693359 C-284.67014208 208.79159177 -297.44791855 214.89782603 -316.6953125 211.92724609 C-326.69724379 209.31736715 -336.07776503 202.36243117 -341.36328125 193.49755859 C-346.41018205 183.7993573 -348.35745367 174.21768943 -345.5703125 163.46240234 C-340.67360621 148.93171111 -329.82051575 139.10761242 -316.8828125 131.64990234 C-314.82889825 130.43334681 -312.7755236 129.21587988 -310.72265625 127.99755859 C-309.18520752 127.09287842 -309.18520752 127.09287842 -307.61669922 126.16992188 C-303.1851361 123.54115141 -298.81579511 120.81607473 -294.4453125 118.08740234 C-283.26966731 111.14411253 -272.01653013 104.32942495 -260.76438904 97.51121521 C-255.21577334 94.14857711 -249.67373121 90.77520263 -244.1328125 87.39990234 C-207.67603039 65.20197271 -207.67603039 65.20197271 -192.28393555 55.99487305 C-187.49634999 53.12775609 -182.72029348 50.24223679 -177.953125 47.34130859 C-177.36883728 46.98575897 -176.78454956 46.63020935 -176.18255615 46.2638855 C-174.98139429 45.53287424 -173.78024287 44.80184581 -172.57910156 44.07080078 C-162.76218472 38.09643048 -152.91643029 32.17796962 -143.00708008 26.35766602 C-136.05500949 22.26459242 -129.1573096 18.08533444 -122.269104 13.88613892 C-80.79435795 -11.38443315 -45.32388227 -26.82536715 0 0 Z " fill="#195EF0" transform="translate(748.6328125,231.60009765625)"/>
<path d="M0 0 C3.89500797 1.60866996 7.39434421 3.83138094 11 6 C12.98346261 7.10828315 14.97700408 8.19707396 16.97094727 9.28637695 C26.98172907 14.76755289 36.82355184 20.53474065 46.671875 26.30078125 C68.54346149 39.10209217 90.56782255 51.64333136 112.58984375 64.18359375 C124.8093169 71.146276 136.98036236 78.18985453 149.10595703 85.31494141 C151.16603247 86.51442181 153.23583442 87.6972635 155.31201172 88.86865234 C156.39369629 89.48305176 157.47538086 90.09745117 158.58984375 90.73046875 C159.57718506 91.28500732 160.56452637 91.8395459 161.58178711 92.41088867 C164 94 164 94 166 97 C166.44878504 100.44068533 166.40033487 102.33053245 164.60546875 105.33203125 C160.89048344 109.13613165 156.59358817 111.30618844 151.9375 113.8125 C149.860473 114.95690605 147.78501716 116.10416717 145.7109375 117.25390625 C144.6187793 117.8586377 143.52662109 118.46336914 142.40136719 119.08642578 C136.56117035 122.37206049 130.8148361 125.81363383 125.0625 129.25 C117.2124081 133.93146041 109.3409816 138.5524027 101.35180664 142.99243164 C97.18581337 145.3138886 93.08055077 147.71914229 89 150.1875 C64.76037839 164.84832547 40.09115652 178.81417959 15.5 192.875 C14.88274048 193.22810242 14.26548096 193.58120483 13.6295166 193.94500732 C11.88878976 194.94053401 10.14753243 195.93513293 8.40625 196.9296875 C7.40916016 197.49929199 6.41207031 198.06889648 5.38476562 198.65576172 C0.47840799 201.42136421 -3.38804307 201.7577408 -9 201 C-12.80081985 199.53505585 -16.16138234 197.50456875 -19.625 195.375 C-20.61862549 194.78887939 -21.61225098 194.20275879 -22.63598633 193.59887695 C-24.72595668 192.36431954 -26.81062736 191.12075015 -28.89013672 189.86865234 C-32.82385257 187.50496408 -36.78874749 185.19738033 -40.7565918 182.89160156 C-43.74506189 181.15403211 -46.72796842 179.4071493 -49.7109375 177.66015625 C-55.79789626 174.10607106 -61.91975613 170.61442201 -68.04647827 167.12954712 C-79.37923592 160.68325664 -90.62876986 154.11019015 -101.83251953 147.44238281 C-108.29606685 143.59692079 -114.78070681 139.80537472 -121.32421875 136.09765625 C-130.60236059 130.82446772 -139.7907643 125.39219374 -149 120 C-150.05670898 119.38237793 -151.11341797 118.76475586 -152.20214844 118.12841797 C-155.26176664 116.33899918 -158.31877343 114.54520399 -161.375 112.75 C-162.78362305 111.92689331 -162.78362305 111.92689331 -164.22070312 111.0871582 C-165.08373047 110.57886475 -165.94675781 110.07057129 -166.8359375 109.546875 C-167.59438965 109.10182617 -168.3528418 108.65677734 -169.13427734 108.19824219 C-171.42408083 106.72763822 -172.81657012 105.75176181 -173.4765625 103.046875 C-173.64018095 100.51509476 -173.54836309 98.48269884 -173 96 C-168.14324463 90.72713928 -160.70785335 87.415733 -154.5 84 C-152.44058796 82.85172678 -150.38201969 81.70193921 -148.32421875 80.55078125 C-147.27411621 79.96377441 -146.22401367 79.37676758 -145.14208984 78.77197266 C-140.16634708 75.96591664 -135.23929038 73.07838242 -130.3125 70.1875 C-121.61396064 65.0916235 -112.88284453 60.05560505 -104.125 55.0625 C-95.06918881 49.89930727 -86.02530731 44.71642419 -77 39.5 C-68.56420096 34.6242983 -60.11363596 29.77535174 -51.64938354 24.94927979 C-41.88753009 19.38292632 -32.14562754 13.78450939 -22.4375 8.125 C-21.42606934 7.53581787 -20.41463867 6.94663574 -19.37255859 6.33959961 C-6.62047984 -1.11183631 -6.62047984 -1.11183631 0 0 Z " fill="#04112E" transform="translate(702,400)"/>
<path d="M0 0 C0.99 0.66 1.98 1.32 3 2 C3.3013957 4.45228844 3.40448421 6.65418798 3.38095093 9.10955811 C3.3856309 9.85024009 3.39031087 10.59092207 3.39513266 11.35404897 C3.40714927 13.84916769 3.39759962 16.34374388 3.38818359 18.83886719 C3.39224649 20.62251101 3.39758677 22.40615231 3.40411377 24.18978882 C3.41783076 29.04535265 3.41246967 33.90072598 3.40297651 38.7562933 C3.39539783 43.83307864 3.40242097 48.90984733 3.40713501 53.9866333 C3.41259979 62.51781144 3.40538411 71.04891179 3.39111328 79.58007812 C3.37480629 89.44232649 3.38005818 99.30438861 3.3965925 109.16663241 C3.41021176 117.62870844 3.41212423 126.09072842 3.40427649 134.55281186 C3.39959971 139.60893635 3.39897486 144.66497336 3.40888596 149.72109222 C3.41755896 154.4784426 3.4115275 159.23555343 3.39420319 163.99287796 C3.39023924 165.73836749 3.39137082 167.4838772 3.39799118 169.22935867 C3.40620105 171.61401287 3.3958921 173.99790175 3.38095093 176.38250732 C3.38764309 177.07181863 3.39433526 177.76112993 3.40123022 178.47132945 C3.34588855 183.0318775 2.37936754 186.12162163 0 190 C-3.93165788 193.7231345 -8.20491334 196.5055394 -12.8828125 199.22265625 C-13.53036499 199.60476761 -14.17791748 199.98687897 -14.84509277 200.38056946 C-16.93554838 201.61279286 -19.03023848 202.83761378 -21.125 204.0625 C-22.58026762 204.91883525 -24.03518068 205.77577331 -25.48974609 206.63330078 C-28.36059093 208.32554518 -31.23262498 210.01574157 -34.10546875 211.70458984 C-38.96383001 214.56402963 -43.79730144 217.46415228 -48.625 220.375 C-58.13441521 226.09609549 -67.68895393 231.73970635 -77.24853516 237.37646484 C-79.92084921 238.95329612 -82.59159715 240.53274072 -85.26171875 242.11328125 C-96.16388707 248.56552313 -107.08524074 254.98436304 -118.01824951 261.38415527 C-128.60109918 267.57997505 -139.15744046 273.81967394 -149.69799805 280.0871582 C-150.76058838 280.718396 -151.82317871 281.34963379 -152.91796875 282 C-153.85406982 282.556875 -154.7901709 283.11375 -155.75463867 283.6875 C-159.47392159 285.86156382 -161.62377529 286.51484997 -166 286 C-169.41626544 283.3565066 -170.84101698 281.85728274 -171.63758564 277.56195259 C-171.6688127 276.22045491 -171.67284565 274.87815128 -171.65510559 273.53640747 C-171.66502224 272.79386778 -171.67493889 272.05132808 -171.68515605 271.28628719 C-171.71208635 268.80255866 -171.70335566 266.32026574 -171.69458008 263.83642578 C-171.70626887 262.05395079 -171.72003858 260.27148841 -171.73573303 258.48904419 C-171.77135118 253.65005884 -171.7748477 248.81155244 -171.77042222 243.97245646 C-171.76923291 239.93167997 -171.78267849 235.89100323 -171.79580516 231.85025203 C-171.82613943 222.31627551 -171.8294539 212.78254345 -171.81665039 203.24853516 C-171.80396999 193.41602406 -171.83914301 183.58449463 -171.89753419 173.75217068 C-171.94585241 165.30780908 -171.96320791 156.86376196 -171.95605963 148.41926563 C-171.95217946 143.3768684 -171.96029061 138.3352103 -171.99866676 133.29294205 C-172.03351548 128.54988647 -172.02969248 123.8084006 -171.99632835 119.06534958 C-171.99055292 117.32671398 -171.99837603 115.58797088 -172.02093506 113.84947205 C-172.17927508 100.72442254 -172.17927508 100.72442254 -169.24693298 96.43653679 C-167.24138294 94.64418592 -165.3476099 93.29820413 -163 92 C-162.11876465 91.41202637 -161.2375293 90.82405273 -160.32958984 90.21826172 C-159.54793457 89.79303223 -158.7662793 89.36780273 -157.9609375 88.9296875 C-156.61394775 88.18477051 -156.61394775 88.18477051 -155.23974609 87.42480469 C-154.29437988 86.91336914 -153.34901367 86.40193359 -152.375 85.875 C-150.31147761 84.73361727 -148.24900155 83.59034112 -146.1875 82.4453125 C-145.14980469 81.87071289 -144.11210938 81.29611328 -143.04296875 80.70410156 C-138.44213754 78.12757703 -133.90612002 75.44672486 -129.375 72.75 C-127.55086647 71.66652317 -125.72664522 70.58319403 -123.90234375 69.5 C-122.95601074 68.93796875 -122.00967773 68.3759375 -121.03466797 67.796875 C-115.34674783 64.42896734 -109.64149165 61.09058626 -103.9375 57.75 C-102.70596795 57.0285736 -101.47444128 56.30713802 -100.24291992 55.58569336 C-98.3752314 54.49162032 -96.50751543 53.39759426 -94.63972473 52.30369568 C-90.27448946 49.74705421 -85.9103752 47.18850775 -81.546875 44.62890625 C-70.22662686 37.9890214 -58.90249893 31.35613012 -47.5625 24.75 C-39.69659964 20.16566418 -31.84123936 15.56390388 -24 10.9375 C-22.66497437 10.15101074 -22.66497437 10.15101074 -21.30297852 9.34863281 C-16.70998132 6.63420968 -12.17432347 3.8683401 -7.72192383 0.92773438 C-5.05593159 -0.50864312 -2.93923181 -0.4784796 0 0 Z " fill="#04112E" transform="translate(886,535)"/>
<path d="M0 0 C2.91162109 1.21826172 2.91162109 1.21826172 5.7734375 2.9296875 C6.83626953 3.55488281 7.89910156 4.18007813 8.99414062 4.82421875 C10.10982422 5.50097656 11.22550781 6.17773438 12.375 6.875 C13.55057785 7.57305554 14.72701936 8.26965854 15.90429688 8.96484375 C18.23115812 10.3418772 20.55301756 11.72672112 22.87011719 13.12011719 C26.09283763 15.05576051 29.32872328 16.96720229 32.5715332 18.86889648 C33.86813882 19.6293945 35.16353205 20.391963 36.45776367 21.15649414 C42.83920842 24.92459263 49.26419149 28.61636205 55.6875 32.3125 C64.64568681 37.46995096 73.57219961 42.67598021 82.46411133 47.94677734 C90.08829174 52.46557069 97.72852048 56.95658927 105.375 61.4375 C105.98932892 61.7975412 106.60365784 62.1575824 107.23660278 62.52853394 C114.72516838 66.91674503 122.21802337 71.29753163 129.71655273 75.66870117 C131.71144372 76.8319193 133.70576401 77.99611681 135.69946289 79.16137695 C140.17551223 81.77683299 144.65725513 84.38022809 149.16015625 86.94921875 C149.95131836 87.40433838 150.74248047 87.85945801 151.55761719 88.32836914 C153.00612742 89.16130957 154.45832729 89.98788414 155.91503906 90.80639648 C159.42543454 92.83475413 161.98493264 94.46180474 164 98 C164.29246185 100.53489774 164.4138841 102.82337381 164.39440918 105.35679626 C164.40050028 106.09989266 164.40659139 106.84298906 164.41286707 107.60860354 C164.4295227 110.09981986 164.42471774 112.59052649 164.41992188 115.08178711 C164.42726071 116.86735059 164.43584639 118.65290931 164.44558716 120.4384613 C164.46783087 125.28968702 164.47073243 130.14074303 164.46883965 134.99201274 C164.46872008 139.04035727 164.47727839 143.08866565 164.48561716 147.13700014 C164.50486133 156.6866541 164.50773127 166.23622064 164.50097656 175.78588867 C164.49433384 185.64146861 164.51720713 195.49667446 164.55429029 205.35217851 C164.58496431 213.810888 164.59634985 222.26947701 164.59245348 230.72824103 C164.59038369 235.78159284 164.59590065 240.83465358 164.62034607 245.8879528 C164.64257286 250.6396949 164.6407694 255.39082778 164.62041855 260.1425724 C164.61700133 261.88687994 164.62212817 263.63122817 164.63640213 265.37548065 C164.65454272 267.75644105 164.641887 270.13532323 164.62145996 272.51622009 C164.63397781 273.20708 164.64649566 273.8979399 164.65939283 274.60973495 C164.58961201 278.40141425 164.04955184 279.9381538 161.64670563 282.93717289 C159 285 159 285 156.03125 285.48901367 C152.61688025 284.93819355 150.46893667 283.94093294 147.5 282.17578125 C145.93995239 281.26143311 145.93995239 281.26143311 144.34838867 280.32861328 C143.24342041 279.6632959 142.13845215 278.99797852 141 278.3125 C139.83053525 277.62104564 138.6603582 276.9307947 137.48950195 276.24169922 C135.11182635 274.83943164 132.73872553 273.42989654 130.36962891 272.01318359 C127.39172074 270.23403342 124.40738072 268.46675602 121.41796875 266.70703125 C117.88575258 264.62705772 114.35747571 262.54064858 110.83203125 260.44921875 C104.65673235 256.79045892 98.46068239 253.16748238 92.26507568 249.54327393 C82.53783415 243.85242771 72.83219777 238.12938983 63.17871094 232.31396484 C57.17814618 228.70052216 51.15690682 225.1233648 45.125 221.5625 C44.21355225 221.02423584 43.30210449 220.48597168 42.36303711 219.93139648 C37.6721162 217.16266551 32.97816205 214.39917976 28.28125 211.640625 C19.79764652 206.65356808 11.32123647 201.6537111 2.9375 196.5 C2.30086426 196.11497314 1.66422852 195.72994629 1.00830078 195.33325195 C-3.7520435 192.37504726 -8.18004523 189.4598643 -10 184 C-10.09951642 181.58643576 -10.14345776 179.20166899 -10.14044189 176.78796387 C-10.14341302 176.04839431 -10.14638414 175.30882476 -10.1494453 174.54684401 C-10.15813619 172.06181691 -10.15964085 169.57683797 -10.16113281 167.09179688 C-10.16576059 165.31299232 -10.17078519 163.53418875 -10.17617798 161.75538635 C-10.18930498 156.91874034 -10.19574713 152.08210821 -10.20018864 147.24544716 C-10.20311792 144.22604306 -10.20722238 141.20664278 -10.21169281 138.1872406 C-10.22536643 128.74672287 -10.23503464 119.30621384 -10.2388947 109.86568689 C-10.24338001 98.95517463 -10.2609504 88.04478735 -10.2898953 77.13431311 C-10.3114771 68.70794589 -10.32159705 60.28161394 -10.32293582 51.85521936 C-10.32398605 46.81874954 -10.32994046 41.78239724 -10.34775543 36.74595642 C-10.36417644 32.01160954 -10.36642085 27.27746929 -10.35761642 22.54310417 C-10.35684292 20.80279425 -10.3612297 19.06247348 -10.37107468 17.32219124 C-10.38370061 14.95189002 -10.3779692 12.58233114 -10.36749268 10.21203613 C-10.37554908 9.51855937 -10.38360548 8.82508262 -10.39190602 8.11059141 C-10.36276943 5.30466826 -10.28993076 3.42497745 -8.68494797 1.07241058 C-5.80063996 -0.76335081 -3.31961577 -0.33491803 0 0 Z " fill="#03102E" transform="translate(517,536)"/>
<path d="M0 0 C9.92015998 6.16841293 16.08259114 13.7851735 20.48046875 24.61328125 C20.48046875 25.27328125 20.48046875 25.93328125 20.48046875 26.61328125 C21.75821733 26.61051587 23.03596592 26.60775049 24.35243416 26.60490131 C54.68076543 26.53993362 85.00907793 26.49046264 115.33746208 26.46008526 C119.07002692 26.45633312 122.80259162 26.45245016 126.53515625 26.44848633 C127.27824547 26.4476994 128.02133468 26.44691247 128.78694175 26.44610169 C140.82035018 26.43304629 152.85371563 26.40939172 164.88709857 26.38182286 C177.23364034 26.35377238 189.58015961 26.33710575 201.92673194 26.33101577 C209.54578583 26.32689858 217.16471823 26.31389284 224.78373472 26.28953185 C230.62512247 26.27180558 236.4664478 26.26991474 242.30786324 26.27395821 C244.70483588 26.27313165 247.10181304 26.26714813 249.49875832 26.25566483 C252.76798866 26.24076845 256.03669663 26.24431757 259.30593872 26.2525177 C260.2573078 26.24377918 261.20867687 26.23504065 262.18887532 26.22603732 C268.95270717 26.27198388 273.09262102 27.58880166 278.35546875 32.05078125 C281.33453545 35.89753727 281.11360442 40.07266008 280.8984375 44.765625 C280.32735558 48.65645417 279.22312106 50.79845388 276.48046875 53.61328125 C271.11158868 57.10248917 266.41371085 57.03038255 260.23001099 56.9740448 C259.19991279 56.97660807 258.1698146 56.97917135 257.10850132 56.9818123 C253.65827503 56.98675205 250.20848673 56.97025364 246.75830078 56.95385742 C244.28454092 56.95301119 241.8107803 56.95348621 239.33702087 56.95518494 C234.01192727 56.955868 228.68696988 56.94736119 223.36191177 56.93047142 C215.66283993 56.90606778 207.96382139 56.89827476 200.26471506 56.89450745 C187.77280061 56.8879451 175.28094501 56.86798982 162.7890625 56.83959961 C150.65592747 56.81205343 138.52280843 56.79082259 126.38964844 56.77807617 C125.64148889 56.777288 124.89332934 56.77649983 124.12249829 56.77568778 C120.36912031 56.7717726 116.61574222 56.76798149 112.86236405 56.76425207 C81.73502283 56.7331629 50.60775474 56.68010966 19.48046875 56.61328125 C19.1750415 57.5563916 18.86961426 58.49950195 18.55493164 59.47119141 C15.36819607 68.79027498 8.25778025 76.3707446 -0.26171875 81.15234375 C-12.07310321 86.74721007 -25.60660017 89.31087528 -38.33203125 85.05078125 C-52.61723489 78.88265734 -62.69679983 69.19610415 -68.51953125 54.61328125 C-71.39525461 44.738669 -71.21013972 29.81088006 -66.51953125 20.61328125 C-59.45648118 8.38214576 -49.66760522 -0.93256212 -36.19140625 -5.51953125 C-23.21892298 -8.58324538 -11.57836185 -6.37258675 0 0 Z " fill="#135DF4" transform="translate(193.51953125,548.38671875)"/>
<path d="M0 0 C8.92086706 6.86106553 14.99841211 15.05773633 18.5625 25.75 C19.79109962 25.75219984 19.79109962 25.75219984 21.04451942 25.75444412 C40.97506754 25.79149725 60.9054454 25.85049214 80.83585548 25.93390274 C90.47406925 25.97371054 100.11220117 26.00609418 109.75048828 26.02099609 C118.15131803 26.03400359 126.55196781 26.06094516 134.9526962 26.10461307 C139.40077462 26.12724822 143.84863088 26.14290945 148.296772 26.14188385 C152.48459519 26.14113845 156.67192692 26.15904079 160.85962296 26.19116783 C162.39545958 26.19967777 163.93135126 26.20140931 165.46720123 26.19580269 C167.56762499 26.18915716 169.66648756 26.20709286 171.76675415 26.23101807 C172.94111841 26.23470524 174.11548267 26.23839241 175.32543373 26.24219131 C180.21233338 27.00881451 183.23242211 29.62993441 186.9375 32.75 C189.55404429 37.58054331 189.27492318 42.38501729 188.5625 47.75 C186.22599593 52.87233585 183.66525602 54.61379066 178.5625 56.75 C175.30981636 57.13476086 175.30981636 57.13476086 171.72879028 57.14872742 C171.0662118 57.15537424 170.40363333 57.16202107 169.72097671 57.16886932 C167.51450916 57.18743009 165.30858718 57.18489884 163.10205078 57.18237305 C161.5149713 57.19139448 159.92789878 57.20172263 158.34083557 57.21325684 C154.04172273 57.24080833 149.74274217 57.25010883 145.44355249 57.25611091 C140.94716823 57.26549939 136.45088259 57.29170318 131.95455933 57.31611633 C123.44432178 57.35977196 114.93410338 57.38832468 106.42378795 57.41143972 C96.73332901 57.4384964 87.04296932 57.48240763 77.35258126 57.52772844 C57.42260758 57.6205613 37.49260419 57.69224828 17.5625 57.75 C17.22598923 58.43761414 16.88947845 59.12522827 16.54277039 59.8336792 C16.09770645 60.73515686 15.65264252 61.63663452 15.1940918 62.56542969 C14.75445602 63.45929382 14.31482025 64.35315796 13.86186218 65.27410889 C8.15888851 76.14093418 -2.25012676 82.58215507 -13.4375 86.75 C-24.23373149 89.57949561 -37.92826002 89.30105299 -47.90234375 84.29296875 C-61.77802145 75.84783363 -71.03184257 64.40580338 -74.93359375 48.53125 C-77.51043233 34.3086991 -73.09460905 21.44168867 -65.06640625 9.75390625 C-49.11461861 -10.5360446 -20.99050385 -13.76900023 0 0 Z " fill="#0C6EFC" transform="translate(285.4375,436.25)"/>
<path d="M0 0 C0.76441406 -0.00773438 1.52882813 -0.01546875 2.31640625 -0.0234375 C14.94979794 0.01946026 25.89592369 4.74274565 35 13.5 C41.24632304 20.13446161 45.73675201 26.17353204 47.125 35.25 C47.94406641 35.24723462 48.76313282 35.24446924 49.60701942 35.24162006 C69.53744212 35.17536474 89.46784583 35.1257216 109.39835548 35.09456348 C119.03660665 35.07909513 128.6747843 35.05800618 138.31298828 35.02368164 C146.71372476 34.99377836 155.11440799 34.97442477 163.5151962 34.96773452 C167.96328852 34.96382384 172.41122851 34.95463382 176.859272 34.93280983 C181.04694566 34.91243002 185.23440441 34.90616922 189.42212296 34.91067696 C190.95799426 34.90985242 192.49387285 34.9038956 194.02970123 34.89238358 C196.12981475 34.87741556 198.22912121 34.88106142 200.32925415 34.88923645 C201.50361841 34.88647107 202.67798267 34.88370569 203.88793373 34.88085651 C208.84791192 35.44647473 212.08004719 37.15004968 215.5 40.75 C217.77744651 45.65526942 217.90898148 49.92842873 217.125 55.25 C214.53539895 60.62102439 211.29152566 62.66673717 206.125 65.25 C204.02211177 65.35623341 201.9158105 65.3966857 199.81027222 65.40821838 C198.82765638 65.41562535 198.82765638 65.41562535 197.82518971 65.42318195 C195.62027884 65.43859499 193.41539717 65.44692781 191.21044922 65.45532227 C189.63381695 65.46489781 188.05718726 65.47490769 186.4805603 65.48532104 C182.19157582 65.51241132 177.90258029 65.53339852 173.61355734 65.55332303 C169.13453235 65.5751572 164.65554159 65.60255843 160.17654419 65.62937927 C151.69096373 65.67934097 143.20536432 65.72426688 134.71974671 65.76740164 C125.06085307 65.81674433 115.40199376 65.87167345 105.74313331 65.92708123 C85.87045417 66.04095464 65.99774228 66.14778198 46.125 66.25 C45.71997253 67.00866867 45.31494507 67.76733734 44.89764404 68.54899597 C44.095112 70.03910942 44.095112 70.03910942 43.27636719 71.55932617 C42.48320099 73.03764168 42.48320099 73.03764168 41.67401123 74.54582214 C36.05853097 84.349016 26.02508438 91.28340811 15.5625 95.125 C3.11631201 98.42825368 -9.98203477 96.84126207 -21.375 91.125 C-33.12920767 84.15569103 -41.9309402 73.48336294 -45.42578125 60.1484375 C-47.2835594 48.16172979 -47.1713339 35.86609716 -40.875 25.25 C-40.35550781 24.37085938 -39.83601562 23.49171875 -39.30078125 22.5859375 C-30.31776822 8.72403861 -16.68083761 -0.16708685 0 0 Z " fill="#174BEA" transform="translate(256.875,652.75)"/>
<path d="M0 0 C4.479568 1.58423746 7.20316516 4.16230183 10.4375 7.5625 C13.24034226 13.72875296 14.02787894 20.82532889 12 27.375 C9.66391315 32.51867747 5.42966008 35.55533725 0.6875 38.375 C-6.05653844 39.94338103 -12.16497392 39.73783304 -18.24609375 36.2734375 C-22.24198384 33.3721899 -25.0966129 29.55483026 -27 25 C-27.97220916 18.40944526 -27.43091212 13.17123705 -23.50390625 7.72265625 C-16.59673957 -0.18918922 -10.27964559 -0.99189563 0 0 Z " fill="#F8FAFD" transform="translate(265,457)"/>
<path d="M0 0 C4.62463295 2.64398207 7.31777718 6.02690374 10 10.625 C11.66288096 17.27652383 11.50566003 22.64566756 8.1875 28.75 C5.05288114 33.37556287 2.19384325 36.10773786 -3.3125 37.375 C-9.16661572 38.04854575 -14.32485656 38.27847429 -19.75 35.8125 C-25.24414071 30.58636615 -29.38915868 26.5943906 -29.625 18.6875 C-29.54099724 13.44114601 -28.54518245 9.55689114 -25.3125 5.375 C-18.05780836 -1.32500697 -9.45687086 -4.33290091 0 0 Z " fill="#F8F9FD" transform="translate(267.3125,682.625)"/>
<path d="M0 0 C6.10104364 2.43033309 10.20818022 6.59554242 13.25 12.375 C15.03264159 18.61424557 14.03332655 23.35173677 11 29 C7.18633117 33.53517375 3.43496826 36.52057958 -2.546875 37.35546875 C-8.31817372 37.65041081 -12.55960403 37.06230651 -17.2734375 33.609375 C-21.60923233 29.56786489 -24.25394561 25.45558018 -24.5 19.4375 C-24.04549618 12.81310689 -21.87057833 8.52985397 -16.9375 4.125 C-11.45984909 -0.42440839 -7.07066879 -0.84924362 0 0 Z " fill="#F7FAFD" transform="translate(175,570)"/>
<path d="M0 0 C0.99 0.33 1.98 0.66 3 1 C0.81446827 3.35977196 -1.38042767 4.95935548 -4.15625 6.57421875 C-4.99937744 7.06825195 -5.84250488 7.56228516 -6.71118164 8.07128906 C-7.6314917 8.60463867 -8.55180176 9.13798828 -9.5 9.6875 C-11.50932311 10.86292485 -13.51842817 12.03872251 -15.52734375 13.21484375 C-17.11651611 14.14272705 -17.11651611 14.14272705 -18.73779297 15.08935547 C-24.19394785 18.284975 -29.62651042 21.52024221 -35.0625 24.75 C-44.77296844 30.51130187 -54.50522494 36.23443976 -64.25 41.9375 C-72.63526053 46.84496387 -81.0048479 51.77447861 -89.32421875 56.79296875 C-94.86326248 60.12815714 -100.43732059 63.40462796 -106.00732422 66.68774414 C-110.80622467 69.51747465 -115.60029461 72.35482384 -120.38290405 75.21199036 C-122.83941503 76.67940384 -125.29744855 78.14425769 -127.75549316 79.60910034 C-128.95132934 80.3227608 -130.14641054 81.03768799 -131.34069824 81.75393677 C-133.0181512 82.75978945 -134.69847892 83.76084311 -136.37890625 84.76171875 C-137.3438501 85.33881592 -138.30879395 85.91591309 -139.30297852 86.51049805 C-145.93429195 90.17281752 -145.93429195 90.17281752 -149.3125 89.625 C-149.869375 89.41875 -150.42625 89.2125 -151 89 C-149.906875 88.46375 -148.81375 87.9275 -147.6875 87.375 C-139.57436271 83.31127691 -131.69408735 78.9051105 -123.99609375 74.1015625 C-122 73 -122 73 -120 73 C-120 72.34 -120 71.68 -120 71 C-117.03 70.01 -114.06 69.02 -111 68 C-111 67.34 -111 66.68 -111 66 C-110.195625 65.71125 -109.39125 65.4225 -108.5625 65.125 C-105.8673532 64.26737432 -105.8673532 64.26737432 -105 62 C-103.40297239 61.34035816 -101.80495438 60.68305065 -100.203125 60.03515625 C-97.59840094 58.81130541 -95.28411716 57.3243792 -92.875 55.75 C-87.68859835 52.36413336 -82.34063445 49.43474064 -76.84765625 46.578125 C-74.02384711 45.10875768 -74.02384711 45.10875768 -71.80859375 43.296875 C-70 42 -70 42 -67 42 C-66.773125 41.38125 -66.54625 40.7625 -66.3125 40.125 C-64.59445355 37.34340099 -63.09004901 36.90440459 -60 36 C-59.01 36 -58.02 36 -57 36 C-56.505 35.01 -56.505 35.01 -56 34 C-55.01 33.690625 -54.02 33.38125 -53 33.0625 C-52.01 32.711875 -51.02 32.36125 -50 32 C-49.505 30.515 -49.505 30.515 -49 29 C-47.00390625 27.83203125 -47.00390625 27.83203125 -44.5625 26.8125 C-43.75941406 26.46832031 -42.95632813 26.12414062 -42.12890625 25.76953125 C-40 25 -40 25 -38 25 C-38 24.34 -38 23.68 -38 23 C-36.35 22.67 -34.7 22.34 -33 22 C-33 21.34 -33 20.68 -33 20 C-32.48953125 19.72027344 -31.9790625 19.44054687 -31.453125 19.15234375 C-25.75707918 16.01143905 -20.16480751 12.72647897 -14.6015625 9.35546875 C-12 8 -12 8 -9 8 C-9 7.34 -9 6.68 -9 6 C-7.35 5.67 -5.7 5.34 -4 5 C-3.67 4.01 -3.34 3.02 -3 2 C-2.01 1.34 -1.02 0.68 0 0 Z " fill="#2434E4" transform="translate(885,903)"/>
<path d="M0 0 C0.66 0 1.32 0 2 0 C0.80791977 3.5762407 0.23142039 3.67995949 -3 5.3125 C-6.26544238 7.03278037 -9.3364235 8.84230826 -12.375 10.9375 C-15.58159573 13.11776319 -18.83063373 15.04638238 -22.25 16.875 C-30.14007566 21.09909044 -37.66762507 25.90651428 -45.2421875 30.6640625 C-45.95995361 31.11426758 -46.67771973 31.56447266 -47.41723633 32.02832031 C-48.81936216 32.90849854 -50.22029495 33.79058091 -51.61987305 34.67480469 C-54.69418753 36.60738517 -57.74251174 38.3902389 -61 40 C-62.11375 40.928125 -62.11375 40.928125 -63.25 41.875 C-65.47495553 43.59428382 -67.1948055 44.64389272 -69.6875 45.8125 C-73.01417438 47.3978195 -75.89219885 49.27414972 -78.875 51.4375 C-82.97576327 54.39181332 -87.11715464 56.64823832 -91.6796875 58.80078125 C-93.93065422 59.96415967 -95.81150781 61.26627876 -97.8125 62.8125 C-101.01350461 65.00926787 -102.23795566 65.57000672 -106 65 C-102.71509717 62.2819691 -99.41017084 59.92698028 -95.74609375 57.75 C-94.73764404 57.14816895 -93.72919434 56.54633789 -92.69018555 55.92626953 C-91.61679932 55.29060059 -90.54341309 54.65493164 -89.4375 54 C-87.16145117 52.64324119 -84.88540958 51.28647022 -82.609375 49.9296875 C-81.48337891 49.2603418 -80.35738281 48.59099609 -79.19726562 47.90136719 C-74.85482154 45.31897909 -70.51995115 42.72410845 -66.1875 40.125 C-65.39859375 39.65223633 -64.6096875 39.17947266 -63.796875 38.69238281 C-56.06627246 34.05340969 -48.36824654 29.36097114 -40.66766357 24.67242432 C-30.2508896 18.33307432 -19.77599025 12.0955167 -9.26538086 5.91308594 C-8.19425049 5.28176758 -7.12312012 4.65044922 -6.01953125 4 C-5.07182861 3.443125 -4.12412598 2.88625 -3.14770508 2.3125 C-1.0955115 1.17372353 -1.0955115 1.17372353 0 0 Z " fill="#2F98FD" transform="translate(630,243)"/>
<path d="M0 0 C0.99 0.495 0.99 0.495 2 1 C-1.488171 4.93825758 -4.97138319 7.23405834 -9.609375 9.68359375 C-12.00827113 11.00455453 -14.2399097 12.45507814 -16.5 14 C-20.10076602 16.4482717 -23.78381287 18.57514334 -27.609375 20.6484375 C-31.24319744 22.70285345 -34.72774604 24.97915021 -38.2265625 27.25390625 C-40.7533381 28.84470723 -43.32650118 30.31762643 -45.92431641 31.7878418 C-50.47964356 34.44806284 -54.91257403 37.31286696 -59.375 40.125 C-63.57963744 42.75594943 -67.78889147 45.37942295 -72 48 C-72.89428711 48.5578418 -73.78857422 49.11568359 -74.70996094 49.69042969 C-77.04827076 51.14125917 -79.39646447 52.5740436 -81.75 54 C-82.77552979 54.64026123 -82.77552979 54.64026123 -83.82177734 55.29345703 C-88.4993342 58.09139314 -88.4993342 58.09139314 -91.20410156 57.59765625 C-91.79674805 57.40042969 -92.38939453 57.20320313 -93 57 C-92.26177002 56.55309814 -91.52354004 56.10619629 -90.76293945 55.64575195 C-87.27881735 53.53572591 -83.79537557 51.42458285 -80.3125 49.3125 C-79.67508881 48.92596252 -79.03767761 48.53942505 -78.38095093 48.14117432 C-70.33307231 43.25887292 -62.30424019 38.34886373 -54.3125 33.375 C-45.67098209 27.99734352 -36.95084519 22.75809193 -28.20605469 17.55029297 C-20.5866455 12.99746375 -13.07034204 8.30175645 -5.65966797 3.41577148 C-4.57709717 2.7149646 -4.57709717 2.7149646 -3.47265625 2 C-2.84625244 1.5875 -2.21984863 1.175 -1.57446289 0.75 C-1.05489014 0.5025 -0.53531738 0.255 0 0 Z " fill="#278FFD" transform="translate(522,308)"/>
<path d="M0 0 C2.31 0.33 4.62 0.66 7 1 C7 1.66 7 2.32 7 3 C8.65 3.33 10.3 3.66 12 4 C12 4.66 12 5.32 12 6 C12.70125 6.0825 13.4025 6.165 14.125 6.25 C17.6903452 7.18009005 20.09015572 8.76686369 23 11 C23 11.66 23 12.32 23 13 C23.53625 13.103125 24.0725 13.20625 24.625 13.3125 C27.62502044 14.18092697 30.2379535 15.55620296 33 17 C33 17.66 33 18.32 33 19 C33.680625 19.0825 34.36125 19.165 35.0625 19.25 C38.8746907 20.22332528 41.64070329 21.95807455 45 24 C45 24.66 45 25.32 45 26 C45.763125 26.12375 46.52625 26.2475 47.3125 26.375 C50 27 50 27 53 29 C53 29.66 53 30.32 53 31 C53.78375 31.144375 54.5675 31.28875 55.375 31.4375 C58 32 58 32 60 33 C60 33.66 60 34.32 60 35 C61.65 35.33 63.3 35.66 65 36 C65 36.66 65 37.32 65 38 C66.65 38.33 68.3 38.66 70 39 C70 39.66 70 40.32 70 41 C70.66 41 71.32 41 72 41 C72 41.66 72 42.32 72 43 C68.71162188 41.75052431 65.70694453 40.3539948 62.68359375 38.55859375 C61.85093994 38.06584961 61.01828613 37.57310547 60.16040039 37.06542969 C59.26184326 36.52821289 58.36328613 35.99099609 57.4375 35.4375 C56.4880249 34.87321289 55.5385498 34.30892578 54.56030273 33.72753906 C45.32471528 28.22434956 36.13496489 22.64492364 26.95336914 17.05224609 C19.49427865 12.50890171 12.01416225 8.0048925 4.4921875 3.56640625 C2 2 2 2 0 0 Z " fill="#2C45E2" transform="translate(532,908)"/>
<path d="M0 0 C6.2560112 2.92928525 12.20920983 6.23882228 18.10009766 9.84399414 C22.82837385 12.72664986 27.60851487 15.50685594 32.4140625 18.2578125 C34.41649045 19.41007842 36.41834333 20.56333707 38.42001343 21.71691895 C39.76497624 22.48895677 41.11217573 23.25711111 42.46157837 24.0213623 C44.37489018 25.10574963 46.27979009 26.20371596 48.18359375 27.3046875 C49.30306396 27.94390137 50.42253418 28.58311523 51.57592773 29.24169922 C52.37587158 29.82193848 53.17581543 30.40217773 54 31 C54 31.99 54 32.98 54 34 C53.29875 33.566875 52.5975 33.13375 51.875 32.6875 C48.97442594 30.98498914 46.02129125 29.47551433 43 28 C43 27.34 43 26.68 43 26 C42.29875 25.9175 41.5975 25.835 40.875 25.75 C37.34301021 24.82861136 34.98071643 23.07354186 32 21 C31.01 20.67 30.02 20.34 29 20 C29 19.34 29 18.68 29 18 C28.42765625 17.87753906 27.8553125 17.75507813 27.265625 17.62890625 C24.90046809 16.97237132 22.92793203 16.06276488 20.75 14.9375 C20.04359375 14.57527344 19.3371875 14.21304687 18.609375 13.83984375 C18.07828125 13.56269531 17.5471875 13.28554688 17 13 C17 12.34 17 11.68 17 11 C16.29875 10.731875 15.5975 10.46375 14.875 10.1875 C6.32876712 6.65753425 6.32876712 6.65753425 5 4 C4.01 4 3.02 4 2 4 C2 3.34 2 2.68 2 2 C1.34 2 0.68 2 0 2 C0 1.34 0 0.68 0 0 Z " fill="#238EFD" transform="translate(866,301)"/>
<path d="M0 0 C0.99 0.33 1.98 0.66 3 1 C-0.32688004 3.0108415 -3.66349409 5.00517866 -7 7 C-7.64839844 7.39106934 -8.29679688 7.78213867 -8.96484375 8.18505859 C-13.29829615 10.79662942 -17.65377575 13.36310257 -22.04638672 15.87402344 C-23.6917494 16.82233795 -25.31887895 17.80218666 -26.94140625 18.7890625 C-35.09310769 23.24449626 -43.08395256 22.05571019 -52 21 C-52 20.67 -52 20.34 -52 20 C-51.175 19.99742187 -50.35 19.99484375 -49.5 19.9921875 C-34.65451417 19.49512882 -22.79382352 14.01249624 -10.40234375 6.1484375 C-9.26868083 5.43157689 -8.13455921 4.71544121 -7 4 C-6.37883301 3.60458008 -5.75766602 3.20916016 -5.11767578 2.80175781 C-3.45770264 1.78846533 -1.73151723 0.88550581 0 0 Z " fill="#263EE4" transform="translate(751,888)"/>
<path d="M0 0 C0.66 0.66 1.32 1.32 2 2 C-3.74240289 5.45707872 -9.48922135 8.90671096 -15.24072266 12.34863281 C-17.02218183 13.41479719 -18.80314283 14.48179462 -20.58349609 15.54980469 C-22.92793294 16.95451194 -25.27585551 18.35318366 -27.625 19.75 C-28.34034912 20.17974121 -29.05569824 20.60948242 -29.79272461 21.05224609 C-34.77078816 24 -34.77078816 24 -37 24 C-35.6213766 19.8641298 -32.82324222 18.90701262 -29.1875 16.9375 C-28.55779297 16.58623047 -27.92808594 16.23496094 -27.27929688 15.87304688 C-25.52759392 14.9006955 -23.76413533 13.94960885 -22 13 C-20.88044922 12.38318359 -20.88044922 12.38318359 -19.73828125 11.75390625 C-18 11 -18 11 -15 11 C-15 10.34 -15 9.68 -15 9 C-14.01 9 -13.02 9 -12 9 C-11.67 8.34 -11.34 7.68 -11 7 C-9.51171875 5.7109375 -9.51171875 5.7109375 -7.6875 4.375 C-7.09324219 3.92898438 -6.49898437 3.48296875 -5.88671875 3.0234375 C-4 2 -4 2 0 2 C0 1.34 0 0.68 0 0 Z " fill="#243BE6" transform="translate(937,873)"/>
<path d="M0 0 C1.27327148 0.05994141 1.27327148 0.05994141 2.57226562 0.12109375 C8.80023642 0.48773642 8.80023642 0.48773642 11.0625 2.75 C9.27005859 2.73259766 9.27005859 2.73259766 7.44140625 2.71484375 C5.83593908 2.70545505 4.2304702 2.69635602 2.625 2.6875 C1.84189453 2.67912109 1.05878906 2.67074219 0.25195312 2.66210938 C-2.14698355 2.65223721 -4.53939635 2.68711737 -6.9375 2.75 C-8.06103882 2.77429077 -8.06103882 2.77429077 -9.20727539 2.79907227 C-15.55293809 3.19294098 -20.10562948 5.58475731 -25.5 8.8125 C-26.31791016 9.28494141 -27.13582031 9.75738281 -27.97851562 10.24414062 C-29.97340559 11.39907692 -31.9588432 12.56754215 -33.9375 13.75 C-34.2675 13.09 -34.5975 12.43 -34.9375 11.75 C-33.20886297 10.64500435 -31.47956612 9.54104086 -29.75 8.4375 C-28.78707031 7.82261719 -27.82414063 7.20773437 -26.83203125 6.57421875 C-25.87683594 5.97222656 -24.92164063 5.37023437 -23.9375 4.75 C-23.17824219 4.22019531 -22.41898438 3.69039063 -21.63671875 3.14453125 C-14.71657782 -0.43070799 -7.61851842 -0.51387654 0 0 Z " fill="#429AFC" transform="translate(698.9375,307.25)"/>
<path d="M0 0 C-6.69313176 4.46208784 -13.44806099 4.31175677 -21.25 4.25 C-22.24257813 4.25773438 -23.23515625 4.26546875 -24.2578125 4.2734375 C-25.68480469 4.26957031 -25.68480469 4.26957031 -27.140625 4.265625 C-28.00204102 4.26336914 -28.86345703 4.26111328 -29.75097656 4.25878906 C-32 4 -32 4 -35 2 C-34.38592285 1.98018066 -33.7718457 1.96036133 -33.13916016 1.93994141 C-30.30074617 1.84346198 -27.46294843 1.73429198 -24.625 1.625 C-23.65949219 1.5940625 -22.69398438 1.563125 -21.69921875 1.53125 C-15.9778973 1.30086122 -10.64072291 0.671126 -5.07177734 -0.68212891 C-3 -1 -3 -1 0 0 Z " fill="#2934DD" transform="translate(730,995)"/>
<path d="M0 0 C4.14031622 1.50627176 7.726219 3.54909695 11.5 5.8125 C18.09197446 9.69033978 24.76006484 12.49849417 32 15 C32 15.66 32 16.32 32 17 C20.34130684 15.05688447 9.36430253 9.15226257 0 2 C0 1.34 0 0.68 0 0 Z " fill="#2C3CDB" transform="translate(652,979)"/>
<path d="M0 0 C0.66 0.33 1.32 0.66 2 1 C0.12762629 1.96345444 -1.7480299 2.92053102 -3.625 3.875 C-4.66914063 4.40867187 -5.71328125 4.94234375 -6.7890625 5.4921875 C-13.14002997 8.47451529 -18.14222986 9.29536311 -25.0625 9.1875 C-25.85205078 9.18685547 -26.64160156 9.18621094 -27.45507812 9.18554688 C-31.42826071 9.15557316 -35.12286042 8.97513571 -39 8 C-39 7.67 -39 7.34 -39 7 C-38.44014404 7.00523682 -37.88028809 7.01047363 -37.3034668 7.01586914 C-34.76482263 7.03666691 -32.22619641 7.04966904 -29.6875 7.0625 C-28.80642578 7.07087891 -27.92535156 7.07925781 -27.01757812 7.08789062 C-26.17001953 7.09111328 -25.32246094 7.09433594 -24.44921875 7.09765625 C-23.66893311 7.10289307 -22.88864746 7.10812988 -22.0847168 7.11352539 C-19.8038445 7.08137863 -19.8038445 7.08137863 -17 6 C-16.34 6.33 -15.68 6.66 -15 7 C-15 6.34 -15 5.68 -15 5 C-14.01 4.9175 -13.02 4.835 -12 4.75 C-8.08761204 4.22409856 -5.10242265 2.68114453 -1.69921875 0.7421875 C-1.13847656 0.49726563 -0.57773437 0.25234375 0 0 Z " fill="#3086FB" transform="translate(469,435)"/>
<path d="M0 0 C0.33 0.99 0.66 1.98 1 3 C0.03306342 4.70047468 -0.93854226 6.39858807 -1.94140625 8.078125 C-6.28873189 15.97068668 -5.19012259 25.29661051 -5 34 C-5.66 34 -6.32 34 -7 34 C-9.30800799 23.03696206 -8.26328514 12.97740329 -2.3125 3.375 C-1.55344702 2.24201827 -0.78706122 1.11370717 0 0 Z " fill="#2788FC" transform="translate(410,382)"/>
<path d="M0 0 C1.98 0.99 3.96 1.98 6 3 C6 3.66 6 4.32 6 5 C7.65 5.33 9.3 5.66 11 6 C11 6.66 11 7.32 11 8 C12.65 8.33 14.3 8.66 16 9 C16 9.66 16 10.32 16 11 C16.99 11 17.98 11 19 11 C19 11.66 19 12.32 19 13 C19.66 13 20.32 13 21 13 C21 13.66 21 14.32 21 15 C16.02642312 13.2657267 11.68501047 10.56672043 7.1875 7.875 C6.39923828 7.40707031 5.61097656 6.93914063 4.79882812 6.45703125 C2.86397546 5.30784603 0.93112772 4.15542997 -1 3 C-0.67 2.01 -0.34 1.02 0 0 Z " fill="#2F43DF" transform="translate(606,950)"/>
<path d="M0 0 C-1.5295914 3.73050348 -3.76698094 5.89134203 -6.75 8.5625 C-7.59046875 9.32691406 -8.4309375 10.09132813 -9.296875 10.87890625 C-12.94055503 13.73803668 -16.61952639 15.53984213 -21 17 C-19.54459198 13.24488649 -17.8217825 12.05231015 -14.3125 10.1875 C-9.94810007 7.71791914 -6.72091841 5.03621227 -3.375 1.3203125 C-2 0 -2 0 0 0 Z " fill="#1D48EE" transform="translate(949,769)"/>
<path d="M0 0 C5.08279969 1.45785727 9.21818821 3.70109644 13.6875 6.4375 C14.35072266 6.83259766 15.01394531 7.22769531 15.69726562 7.63476562 C18.83408753 9.53328523 21.4657545 11.32184505 24 14 C20.36541336 14 18.7743083 12.96060371 15.625 11.1875 C14.68914063 10.66542969 13.75328125 10.14335937 12.7890625 9.60546875 C11.40847656 8.81076172 11.40847656 8.81076172 10 8 C9.05898438 7.48050781 8.11796875 6.96101563 7.1484375 6.42578125 C6.43945312 5.95527344 5.73046875 5.48476563 5 5 C5 4.34 5 3.68 5 3 C3.35 2.67 1.7 2.34 0 2 C0 1.34 0 0.68 0 0 Z " fill="#1E88FC" transform="translate(921,334)"/>
<path d="M0 0 C6.58922622 3.13433464 13.01066299 6.46910919 19.25 10.25 C20.34828125 10.91515625 21.4465625 11.5803125 22.578125 12.265625 C23.37734375 12.83796875 24.1765625 13.4103125 25 14 C25 14.66 25 15.32 25 16 C19.51614353 13.93204657 14.70082044 11.00444928 9.6875 8 C8.75615234 7.4534375 7.82480469 6.906875 6.86523438 6.34375 C5.98544922 5.8178125 5.10566406 5.291875 4.19921875 4.75 C3.39315186 4.27046875 2.58708496 3.7909375 1.7565918 3.296875 C1.1769165 2.86890625 0.59724121 2.4409375 0 2 C0 1.34 0 0.68 0 0 Z " fill="#2D97FC" transform="translate(820,274)"/>
<path d="M0 0 C-6.66640679 4.74728968 -13.61987122 8.47851723 -21 12 C-19.64898569 8.77704204 -18.44425059 7.3218513 -15.41015625 5.60546875 C-14.70826172 5.20779297 -14.00636719 4.81011719 -13.28320312 4.40039062 C-12.55037109 4.00013672 -11.81753906 3.59988281 -11.0625 3.1875 C-10.33353516 2.76791016 -9.60457031 2.34832031 -8.85351562 1.91601562 C-3.38294396 -1.12764799 -3.38294396 -1.12764799 0 0 Z " fill="#1D46EB" transform="translate(922,790)"/>
<path d="M0 0 C-1.13774455 3.41323365 -1.90303122 3.92000521 -4.75 5.9375 C-5.46929687 6.45828125 -6.18859375 6.9790625 -6.9296875 7.515625 C-7.61289062 8.00546875 -8.29609375 8.4953125 -9 9 C-12.02846607 11.30426766 -13.8824094 12.8236141 -16 16 C-16.66 16 -17.32 16 -18 16 C-15.41456407 10.09043216 -7.06258227 0 0 0 Z " fill="#1C86FD" transform="translate(429,366)"/>
<path d="M0 0 C0.66 0.33 1.32 0.66 2 1 C-0.69172643 4.48341067 -3.81536736 5.05508295 -8 6 C-11.96484375 5.9765625 -11.96484375 5.9765625 -15.9375 5.625 C-16.62134766 5.56828125 -17.30519531 5.5115625 -18.00976562 5.453125 C-19.67417046 5.31345466 -21.33726886 5.15835535 -23 5 C-23 4.67 -23 4.34 -23 4 C-22.09378906 3.96261719 -21.18757812 3.92523437 -20.25390625 3.88671875 C-12.91212916 3.49049586 -6.8822443 2.52348958 0 0 Z " fill="#374DE5" transform="translate(722,904)"/>
<path d="M0 0 C0.52207031 0.24234375 1.04414062 0.4846875 1.58203125 0.734375 C-12.07868304 9.93080357 -12.07868304 9.93080357 -16.41796875 10.734375 C-15.08289189 6.72914442 -12.54459098 5.57548081 -9.10546875 3.484375 C-8.52345703 3.10796875 -7.94144531 2.7315625 -7.34179688 2.34375 C-3.00218627 -0.32980398 -3.00218627 -0.32980398 0 0 Z " fill="#2894FC" transform="translate(577.41796875,276.265625)"/>
<path d="M0 0 C0 0.66 0 1.32 0 2 C-1.5390625 3.1484375 -1.5390625 3.1484375 -3.625 4.375 C-6.25631724 5.94447595 -8.81192949 7.54257478 -11.3125 9.3125 C-14 11 -14 11 -17 11 C-17 10.34 -17 9.68 -17 9 C-14.56866946 7.36136603 -12.15228465 5.85078666 -9.625 4.375 C-8.57699219 3.74464844 -8.57699219 3.74464844 -7.5078125 3.1015625 C-2.27140828 0 -2.27140828 0 0 0 Z " fill="#2445E8" transform="translate(854,828)"/>
<path d="M0 0 C1.98498051 0.92512666 3.96286018 1.86550237 5.9375 2.8125 C7.03964844 3.33457031 8.14179687 3.85664063 9.27734375 4.39453125 C12 6 12 6 13 9 C7.31497465 7.35433477 2.23318364 4.70967216 -3 2 C-2.01 1.34 -1.02 0.68 0 0 Z " fill="#3391FC" transform="translate(716,309)"/>
<path d="M0 0 C0.66 0.33 1.32 0.66 2 1 C0.92173635 2.27513763 -0.16285519 3.54492569 -1.25 4.8125 C-1.85328125 5.52019531 -2.4565625 6.22789062 -3.078125 6.95703125 C-4.92370398 8.91889671 -6.79945332 10.45669625 -9 12 C-9 9 -9 9 -7.03125 6.73828125 C-5.77828125 5.53751953 -5.77828125 5.53751953 -4.5 4.3125 C-3.6646875 3.50425781 -2.829375 2.69601562 -1.96875 1.86328125 C-1.3190625 1.24839844 -0.669375 0.63351562 0 0 Z " fill="#176AFB" transform="translate(143,550)"/>
<path d="M0 0 C0.66 0.66 1.32 1.32 2 2 C-2.95 4.97 -7.9 7.94 -13 11 C-13.33 10.01 -13.66 9.02 -14 8 C-12.41925436 7.18247697 -10.83528777 6.37118003 -9.25 5.5625 C-8.36828125 5.11003906 -7.4865625 4.65757812 -6.578125 4.19140625 C-4.35801434 3.16544602 -2.38555381 2.48491397 0 2 C0 1.34 0 0.68 0 0 Z " fill="#243EE7" transform="translate(976,850)"/>
<path d="M0 0 C3.54243452 1.36591169 6.92627929 2.90931484 10.3125 4.625 C11.63701172 5.29402344 11.63701172 5.29402344 12.98828125 5.9765625 C13.65214844 6.31429687 14.31601562 6.65203125 15 7 C14.34 7.66 13.68 8.32 13 9 C8.71 6.69 4.42 4.38 0 2 C0 1.34 0 0.68 0 0 Z " fill="#233FE6" transform="translate(675,900)"/>
<path d="M0 0 C4.75 0.875 4.75 0.875 7 2 C7 2.66 7 3.32 7 4 C7.99 4 8.98 4 10 4 C10 4.66 10 5.32 10 6 C10.99 6.33 11.98 6.66 13 7 C12.01 7.495 12.01 7.495 11 8 C8.65234375 6.85546875 8.65234375 6.85546875 5.9375 5.1875 C5.03902344 4.64480469 4.14054687 4.10210938 3.21484375 3.54296875 C1 2 1 2 0 0 Z " fill="#2245E4" transform="translate(497,886)"/>
<path d="M0 0 C0.66 0.66 1.32 1.32 2 2 C0.37829621 3.00533667 -1.24747237 4.00411907 -2.875 5 C-4.23238281 5.8353125 -4.23238281 5.8353125 -5.6171875 6.6875 C-8 8 -8 8 -10 8 C-10 7.34 -10 6.68 -10 6 C-7.8125 4.4921875 -7.8125 4.4921875 -5 2.875 C-4.071875 2.33617187 -3.14375 1.79734375 -2.1875 1.2421875 C-1.465625 0.83226562 -0.74375 0.42234375 0 0 Z " fill="#2338E6" transform="translate(898,896)"/>
<path d="M0 0 C-1 2 -1 2 -4.3125 3.1875 C-7.75666263 3.94638329 -8.83008446 3.98666245 -12 3 C-10.75823305 2.29773859 -9.50614401 1.61370891 -8.25 0.9375 C-7.20585937 0.36322266 -7.20585937 0.36322266 -6.140625 -0.22265625 C-3.63859372 -1.1312406 -2.4667645 -0.88336837 0 0 Z " fill="#2F65F3" transform="translate(432,768)"/>
<path d="M0 0 C1.125 1.625 1.125 1.625 2 4 C1.25 6.9375 1.25 6.9375 0 10 C-0.37125 10.94875 -0.7425 11.8975 -1.125 12.875 C-1.41375 13.57625 -1.7025 14.2775 -2 15 C-2.33 15 -2.66 15 -3 15 C-2.44854729 9.76119922 -1.57077907 5.02649303 0 0 Z " fill="#1948EB" transform="translate(956,749)"/>
<path d="M0 0 C4.51478398 0.53115106 7.34666857 2.36620292 11 5 C10.67 5.66 10.34 6.32 10 7 C6.4124787 5.66749209 3.1635377 4.169283 0 2 C0 1.34 0 0.68 0 0 Z " fill="#101838" transform="translate(521,540)"/>
<path d="M0 0 C4.61513112 1.31860889 8.09897612 3.21355437 12 6 C11.34 6.66 10.68 7.32 10 8 C8.32819726 7.05065487 6.66266064 6.09026687 5 5.125 C4.071875 4.59132813 3.14375 4.05765625 2.1875 3.5078125 C1.465625 3.01023437 0.74375 2.51265625 0 2 C0 1.34 0 0.68 0 0 Z " fill="#1F89FC" transform="translate(945,348)"/>
<path d="M0 0 C0.66 0.33 1.32 0.66 2 1 C-3.30311615 6.74504249 -3.30311615 6.74504249 -7 7 C-7.66 6.67 -8.32 6.34 -9 6 C-6.03 4.02 -3.06 2.04 0 0 Z " fill="#3298FD" transform="translate(522,308)"/>
<path d="M0 0 C3.82524236 1.450954 5.19090966 3.38181932 7 7 C7 7.66 7 8.32 7 9 C6.01 9 5.02 9 4 9 C0 2.25 0 2.25 0 0 Z " fill="#2657F0" transform="translate(467,690)"/>
<path d="M0 0 C4.61513112 1.31860889 8.09897612 3.21355437 12 6 C11.34 6.66 10.68 7.32 10 8 C9.0925 7.38125 8.185 6.7625 7.25 6.125 C4.85051183 4.55610389 2.59038388 3.19556179 0 2 C0 1.34 0 0.68 0 0 Z " fill="#2084FC" transform="translate(981,369)"/>
<path d="M0 0 C2.31 0.66 4.62 1.32 7 2 C7 2.66 7 3.32 7 4 C8.65 4.33 10.3 4.66 12 5 C12 5.66 12 6.32 12 7 C7.0682659 6.55166054 3.6807076 4.13973905 0 1 C0 0.67 0 0.34 0 0 Z " fill="#2445E3" transform="translate(512,895)"/>
<path d="M0 0 C1.32 0 2.64 0 4 0 C4 0.66 4 1.32 4 2 C4.763125 2.12375 5.52625 2.2475 6.3125 2.375 C9 3 9 3 12 5 C12 5.66 12 6.32 12 7 C7.69235185 5.43358249 3.93828536 3.31663844 0 1 C0 0.67 0 0.34 0 0 Z " fill="#3591FD" transform="translate(739,324)"/>
<path d="M0 0 C-1.28813342 0.83878455 -2.58063256 1.67086783 -3.875 2.5 C-4.59429688 2.9640625 -5.31359375 3.428125 -6.0546875 3.90625 C-8 5 -8 5 -10 5 C-9 2 -9 2 -6.125 0.25 C-3 -1 -3 -1 0 0 Z " fill="#224AEE" transform="translate(900,803)"/>
<path d="M0 0 C0 0.99 0 1.98 0 3 C-4.95 5.475 -4.95 5.475 -10 8 C-8.76736651 4.30209954 -7.79947549 4.0645154 -4.4375 2.3125 C-3.61121094 1.87550781 -2.78492188 1.43851562 -1.93359375 0.98828125 C-1.29550781 0.66214844 -0.65742187 0.33601563 0 0 Z " fill="#268BFD" transform="translate(593,361)"/>
<path d="M0 0 C0 3 0 3 -2.5 5.6875 C-3.325 6.450625 -4.15 7.21375 -5 8 C-5.99 7.67 -6.98 7.34 -8 7 C-5.36 4.69 -2.72 2.38 0 0 Z " fill="#2561F1" transform="translate(230,662)"/>
<path d="M0 0 C-1.34882814 4.04648443 -3.34826069 4.95502599 -7 7 C-7.99 6.67 -8.98 6.34 -10 6 C-8.71283353 4.99421411 -7.42011342 3.99553202 -6.125 3 C-5.40570313 2.443125 -4.68640625 1.88625 -3.9453125 1.3125 C-2 0 -2 0 0 0 Z " fill="#298DFC" transform="translate(429,366)"/>
<path d="M0 0 C1.64936913 0.78427352 3.29441127 1.57765259 4.9375 2.375 C5.85402344 2.81585938 6.77054688 3.25671875 7.71484375 3.7109375 C10 5 10 5 11 7 C6.4923533 6.46968862 3.58045212 4.74778884 0 2 C0 1.34 0 0.68 0 0 Z " fill="#1F84FC" transform="translate(970,362)"/>
<path d="M0 0 C1 4 1 4 -0.4375 6.75 C-1.2109375 7.86375 -1.2109375 7.86375 -2 9 C-2.99 8.67 -3.98 8.34 -5 8 C-3.35 5.36 -1.7 2.72 0 0 Z " fill="#325DEF" transform="translate(952,760)"/>
<path d="M0 0 C5.75 1.75 5.75 1.75 8 4 C6.3125 4.75 6.3125 4.75 4 5 C1.25 3.0625 1.25 3.0625 -1 1 C-0.67 0.67 -0.34 0.34 0 0 Z " fill="#1F263F" transform="translate(542,511)"/>
<path d="M0 0 C2.88437779 1.29299694 4.87219421 2.65941363 7 5 C6.67 5.99 6.34 6.98 6 8 C4.99403703 7.0479279 3.99538437 6.08812654 3 5.125 C2.443125 4.59132813 1.88625 4.05765625 1.3125 3.5078125 C0 2 0 2 0 0 Z " fill="#1B76FC" transform="translate(941,442)"/>
<path d="M0 0 C1.258125 0.12375 2.51625 0.2475 3.8125 0.375 C4.87404297 0.47941406 4.87404297 0.47941406 5.95703125 0.5859375 C8 1 8 1 11 3 C7.44706507 4.14947895 6.20023331 4.0868937 2.6875 2.5625 C1.800625 2.046875 0.91375 1.53125 0 1 C0 0.67 0 0.34 0 0 Z " fill="#2A80FA" transform="translate(421,438)"/>
<path d="M0 0 C3.94120709 0.56302958 6.7508723 1.6791945 10 4 C10 4.66 10 5.32 10 6 C6.40992874 4.66654496 3.20429093 3.1056769 0 1 C0 0.67 0 0.34 0 0 Z " fill="#2D85FB" transform="translate(823,373)"/>
<path d="M0 0 C3.3 1.65 6.6 3.3 10 5 C9.34 5.66 8.68 6.32 8 7 C6.66144944 6.21718695 5.32926356 5.42348123 4 4.625 C3.2575 4.18414062 2.515 3.74328125 1.75 3.2890625 C1.1725 2.86367187 0.595 2.43828125 0 2 C0 1.34 0 0.68 0 0 Z " fill="#2D9BFC" transform="translate(757,237)"/>
<path d="M0 0 C2.97 0 5.94 0 9 0 C7.515 1.485 7.515 1.485 6 3 C4.68 3 3.36 3 2 3 C2 2.34 2 1.68 2 1 C1.34 0.67 0.68 0.34 0 0 Z " fill="#EFF1FD" transform="translate(254,749)"/>
<path d="M0 0 C-2.55068845 2.35448165 -3.71017358 2.98327924 -7.25 3.1875 C-8.1575 3.125625 -9.065 3.06375 -10 3 C-4.375 -1.3125 -4.375 -1.3125 0 0 Z " fill="#3781FB" transform="translate(158,545)"/>
<path d="M0 0 C1.32 0 2.64 0 4 0 C4 0.66 4 1.32 4 2 C5.65 2.33 7.3 2.66 9 3 C9.33 3.99 9.66 4.98 10 6 C6.00499382 4.6302836 3.19990508 2.74277578 0 0 Z " fill="#3C93FC" transform="translate(751,331)"/>
<path d="M0 0 C3.94120709 0.56302958 6.7508723 1.6791945 10 4 C10 4.66 10 5.32 10 6 C6.00499382 4.6302836 3.19990508 2.74277578 0 0 Z " fill="#2090FD" transform="translate(835,284)"/>
<path d="M0 0 C-1.25 1.5625 -1.25 1.5625 -3 3 C-5.125 2.8125 -5.125 2.8125 -7 2 C-7.33 1.34 -7.66 0.68 -8 0 C-4.71303767 -0.79953138 -3.28976808 -1.09658936 0 0 Z " fill="#E6E7FB" transform="translate(730,997)"/>
<path d="M0 0 C0.66 0.66 1.32 1.32 2 2 C-3.625 6 -3.625 6 -7 6 C-6 4 -6 4 -4 2 C-2.68 2 -1.36 2 0 2 C0 1.34 0 0.68 0 0 Z " fill="#2036E9" transform="translate(937,873)"/>
<path d="M0 0 C-2.97 1.65 -5.94 3.3 -9 5 C-6.64389875 0.2877975 -5.23968794 -1.74656265 0 0 Z " fill="#2146EA" transform="translate(871,820)"/>
<path d="M0 0 C0.33 0 0.66 0 1 0 C1.24954005 1.43410368 1.47392642 2.87260072 1.6875 4.3125 C1.87892578 5.51326172 1.87892578 5.51326172 2.07421875 6.73828125 C2 9 2 9 0.51953125 10.79296875 C0.01808594 11.19128906 -0.48335938 11.58960938 -1 12 C-2.3609623 9.2780754 -1.70366248 7.8168043 -1.0625 4.875 C-0.86785156 3.96492187 -0.67320312 3.05484375 -0.47265625 2.1171875 C-0.31667969 1.41851563 -0.16070312 0.71984375 0 0 Z " fill="#2B5CF1" transform="translate(278,698)"/>
<path d="M0 0 C0.66 0.33 1.32 0.66 2 1 C1.01 2.485 1.01 2.485 0 4 C-0.99 4 -1.98 4 -3 4 C-3 4.66 -3 5.32 -3 6 C-3.99 6.33 -4.98 6.66 -6 7 C-4.60667426 3.63279613 -3.0210714 2.0140476 0 0 Z " fill="#292F46" transform="translate(535,491)"/>
<path d="M0 0 C0.66 0 1.32 0 2 0 C2.99 2.97 3.98 5.94 5 9 C4.34 9 3.68 9 3 9 C0 3.375 0 3.375 0 0 Z " fill="#1E7EFD" transform="translate(1031,415)"/>
<path d="M0 0 C2.97 1.65 5.94 3.3 9 5 C8.01 5.33 7.02 5.66 6 6 C2.8125 4.1875 2.8125 4.1875 0 2 C0 1.34 0 0.68 0 0 Z " fill="#329CFC" transform="translate(771,245)"/>
<path d="M0 0 C0.66 0 1.32 0 2 0 C1.25 4.75 1.25 4.75 -1 7 C-1.625 4.625 -1.625 4.625 -2 2 C-1.34 1.34 -0.68 0.68 0 0 Z " fill="#121B37" transform="translate(510,536)"/>
</svg>
