<?xml version="1.0" encoding="UTF-8"?>
<svg version="1.1" xmlns="http://www.w3.org/2000/svg" width="404" height="450">

<path d="M0 0 C3.98119037 -0.11162216 5.73988685 0.13737954 8.9375 2.5625 C12.729713 5.24786476 16.56660172 7.35077502 20.75 9.375 C26.51509678 12.17349334 31.92880043 15.32682432 37.35546875 18.74609375 C44.08133424 22.95382581 51.0141629 26.82895158 57.89453125 30.77661133 C59.4226973 31.66455661 60.94259756 32.566776 62.45727539 33.47753906 C64.9101518 34.94620323 67.38315176 36.36904223 69.87109375 37.77734375 C71.22750977 38.54788086 71.22750977 38.54788086 72.61132812 39.33398438 C74.49081156 40.40036717 76.37101719 41.46547815 78.25195312 42.52929688 C82.95571511 45.20424764 87.50971306 47.97606221 92 51 C94.78194924 52.55865375 97.59431339 54.04629713 100.4140625 55.53515625 C101.69410156 56.26025391 101.69410156 56.26025391 103 57 C103.70396912 57.33264359 104.40793823 57.66528717 105.13323975 58.00801086 C108.21001179 61.29118367 107.52286655 65.00649821 107.45410156 69.33666992 C107.45468567 70.29295792 107.45526978 71.24924591 107.45587158 72.23451233 C107.45308145 75.40019844 107.4219451 78.56494682 107.390625 81.73046875 C107.38316593 83.92336004 107.37747142 86.11625799 107.37347412 88.30915833 C107.35819161 94.08464925 107.31888691 99.85973866 107.2746582 105.6350708 C107.23376211 111.5268409 107.2154752 117.41867579 107.1953125 123.31054688 C107.15239546 134.87387446 107.08411224 146.43690386 107 158 C102.49274247 157.3348483 99.46144023 156.38913784 95.5625 154 C94.53253906 153.37738281 93.50257813 152.75476563 92.44140625 152.11328125 C91.8911377 151.77506348 91.34086914 151.4368457 90.77392578 151.08837891 C88.19277241 149.50473154 85.59630347 147.94691309 82.99975586 146.38867188 C81.69041414 145.60220365 80.38257087 144.81323404 79.07641602 144.02148438 C76.10328277 142.2251253 73.14232501 140.48474857 70 139 C70 138.34 70 137.68 70 137 C69.26523438 136.8865625 68.53046875 136.773125 67.7734375 136.65625 C64.91048428 135.97881881 63.1004046 135.06341343 60.625 133.5 C59.76132813 132.96375 58.89765625 132.4275 58.0078125 131.875 C56.51894531 130.946875 56.51894531 130.946875 55 130 C52.50547091 128.49084445 50.00256798 126.99577696 47.5 125.5 C46.19904992 124.72033373 44.89826571 123.9403906 43.59765625 123.16015625 C42.97906738 122.78906738 42.36047852 122.41797852 41.72314453 122.03564453 C40.24995941 121.15023064 38.77904189 120.26104567 37.30859375 119.37109375 C30.27791419 115.12025455 23.1442189 111.05593984 16 107 C16 106.34 16 105.68 16 105 C15.01 104.79375 14.02 104.5875 13 104.375 C7.9503132 102.96314879 3.68405766 99.68405766 0 96 C-0.0952822 93.01701786 -0.12552175 90.05723655 -0.11352539 87.07397461 C-0.11367142 86.13748581 -0.11381744 85.20099701 -0.1139679 84.23612976 C-0.11326837 81.12484461 -0.10547415 78.01361851 -0.09765625 74.90234375 C-0.09579221 72.75142957 -0.09436824 70.60051497 -0.09336853 68.44960022 C-0.08954225 62.77618242 -0.07971102 57.10279005 -0.06866455 51.42938232 C-0.0584528 45.64498234 -0.05387142 39.86057827 -0.04882812 34.07617188 C-0.03808885 22.71743672 -0.02101111 11.35872047 0 0 Z " fill="#106DF8" transform="translate(76,236)"/>
<path d="M0 0 C1.88885195 1.88885195 1.12010635 4.64051759 1.12442017 7.15324402 C1.11902725 8.48033134 1.11902725 8.48033134 1.11352539 9.83422852 C1.11367142 10.76096375 1.11381744 11.68769897 1.1139679 12.64251709 C1.11326838 15.72133687 1.10547421 18.80009697 1.09765625 21.87890625 C1.09579221 24.00740018 1.09436824 26.13589453 1.09336853 28.26438904 C1.08954228 33.8786232 1.07971108 39.49283168 1.06866455 45.10705566 C1.05845273 50.83113253 1.0538714 56.55521353 1.04882812 62.27929688 C1.03808891 73.51954256 1.0210112 84.75976915 1 96 C0.34 96 -0.32 96 -1 96 C-1.495 97.485 -1.495 97.485 -2 99 C-4.046875 100.32421875 -4.046875 100.32421875 -6.75 101.6875 C-11.1571736 103.98838804 -15.40582832 106.43172236 -19.625 109.0625 C-23.96219616 111.76108604 -28.32290383 114.34272818 -32.8125 116.77734375 C-35.31695776 118.17715675 -37.74648018 119.68002496 -40.1875 121.1875 C-43.70413709 123.32162142 -46.99154838 124.94514431 -51 126 C-51 126.66 -51 127.32 -51 128 C-51.63164062 128.3403125 -52.26328125 128.680625 -52.9140625 129.03125 C-57.22868908 131.36885748 -61.53222996 133.71771638 -65.77734375 136.1796875 C-66.40624512 136.54384766 -67.03514648 136.90800781 -67.68310547 137.28320312 C-68.92517423 138.00475827 -70.16513252 138.72995999 -71.40283203 139.45898438 C-75.78026392 142 -75.78026392 142 -78 142 C-78 142.66 -78 143.32 -78 144 C-79.65 144.33 -81.3 144.66 -83 145 C-83 145.66 -83 146.32 -83 147 C-84.03447266 147.56267578 -84.03447266 147.56267578 -85.08984375 148.13671875 C-86.02957031 148.64847656 -86.96929687 149.16023437 -87.9375 149.6875 C-88.93523437 150.23019531 -89.93296875 150.77289063 -90.9609375 151.33203125 C-94.40394917 153.22170475 -97.81799907 155.1593557 -101.22265625 157.1171875 C-103 158 -103 158 -105 158 C-105.23184045 145.2132892 -105.40945305 132.42707934 -105.51812172 119.63869381 C-105.57028222 113.70018652 -105.64100987 107.76311838 -105.75439453 101.82543945 C-105.86316301 96.093536 -105.92286476 90.36301525 -105.94877243 84.63015938 C-105.96723069 82.44472036 -106.00327842 80.25935596 -106.05730057 78.07450676 C-106.46389246 60.94710764 -106.46389246 60.94710764 -102.86143494 56.15551758 C-100.27986991 54.31110695 -97.95036145 53.13754191 -95 52 C-93.52629914 51.16842976 -92.06174089 50.32010846 -90.61328125 49.4453125 C-89.18238503 48.66689577 -87.74873445 47.89352275 -86.3125 47.125 C-80.51295312 43.9632098 -74.77517064 40.73466218 -69.125 37.3125 C-68.50979492 36.94012207 -67.89458984 36.56774414 -67.26074219 36.18408203 C-66.06706975 35.4610228 -64.87354265 34.7377236 -63.68017578 34.01416016 C-57.34997426 30.19322771 -50.93836378 26.51674363 -44.48046875 22.91699219 C-36.58773168 18.51527344 -28.81557597 13.93825612 -21.08984375 9.24926758 C-18.73287694 7.8219879 -16.36793112 6.40900053 -14 5 C-13.20062012 4.51466797 -12.40124023 4.02933594 -11.57763672 3.52929688 C-10.79791504 3.07103516 -10.01819336 2.61277344 -9.21484375 2.140625 C-8.52382568 1.72844727 -7.83280762 1.31626953 -7.12084961 0.89160156 C-4.5933037 -0.17097443 -2.71657792 -0.23193466 0 0 Z " fill="#0B63EC" transform="translate(299,236)"/>
<path d="M0 0 C3.89469583 1.43220646 7.21003498 3.55839375 10.6875 5.80078125 C11.38617188 6.23970703 12.08484375 6.67863281 12.8046875 7.13085938 C14.78584704 8.38870878 16.74016952 9.67881569 18.6875 10.98828125 C19.6775 11.65214844 20.6675 12.31601563 21.6875 13 C23.6875 14.98828125 23.6875 14.98828125 24 17.73828125 C23.8453125 18.85203125 23.8453125 18.85203125 23.6875 19.98828125 C19.73947447 22.21177047 15.7906967 24.43388235 11.83984375 26.65234375 C9.45228674 27.99342585 7.06943466 29.34123121 4.69140625 30.69921875 C3.51384766 31.36824219 3.51384766 31.36824219 2.3125 32.05078125 C1.64476562 32.43363281 0.97703125 32.81648438 0.2890625 33.2109375 C-1.3125 33.98828125 -1.3125 33.98828125 -3.3125 33.98828125 C-3.3125 34.64828125 -3.3125 35.30828125 -3.3125 35.98828125 C-4.20001953 36.47748047 -4.20001953 36.47748047 -5.10546875 36.9765625 C-5.89566406 37.41355469 -6.68585938 37.85054687 -7.5 38.30078125 C-8.27730469 38.73003906 -9.05460938 39.15929687 -9.85546875 39.6015625 C-11.50001716 40.52972575 -13.13048308 41.48327261 -14.74609375 42.4609375 C-17.51492124 44.10874807 -20.33677824 45.61175605 -23.1875 47.11328125 C-28.96162292 50.19412727 -34.56573678 53.49122868 -40.11083984 56.96728516 C-43.74643578 59.20571831 -47.21014334 60.8045478 -51.3125 61.98828125 C-51.3125 62.64828125 -51.3125 63.30828125 -51.3125 63.98828125 C-51.99054688 64.35179687 -52.66859375 64.7153125 -53.3671875 65.08984375 C-59.10218622 68.18769625 -64.71080984 71.39954885 -70.21875 74.88671875 C-72.3125 75.98828125 -72.3125 75.98828125 -75.3125 75.98828125 C-75.8075 77.47328125 -75.8075 77.47328125 -76.3125 78.98828125 C-77.94921875 80.15625 -77.94921875 80.15625 -80 81.17578125 C-80.66386719 81.51996094 -81.32773438 81.86414063 -82.01171875 82.21875 C-86.47893259 83.71287755 -89.44786776 83.37431296 -93.7421875 81.45703125 C-94.87914062 80.80734375 -96.01609375 80.15765625 -97.1875 79.48828125 C-97.78046875 79.15441406 -98.3734375 78.82054687 -98.984375 78.4765625 C-100.43354717 77.65848143 -101.87396981 76.82493382 -103.3125 75.98828125 C-103.3125 75.32828125 -103.3125 74.66828125 -103.3125 73.98828125 C-104.075625 73.78203125 -104.83875 73.57578125 -105.625 73.36328125 C-116.80337086 69.19507517 -127.15879696 62.11568649 -137.32861328 55.95068359 C-145.35376957 51.09283552 -153.4997494 46.46799046 -161.67626953 41.87011719 C-168.34654535 38.11416771 -174.98552137 34.31253311 -181.5559082 30.3840332 C-184.6762822 28.51979893 -187.8001929 26.70866248 -191.0234375 25.02734375 C-192.12945312 24.43695313 -193.23546875 23.8465625 -194.375 23.23828125 C-195.33535156 22.7484375 -196.29570312 22.25859375 -197.28515625 21.75390625 C-199.3125 19.98828125 -199.3125 19.98828125 -199.62109375 16.78515625 C-199.51925781 15.8621875 -199.41742188 14.93921875 -199.3125 13.98828125 C-198.22710937 13.385 -197.14171875 12.78171875 -196.0234375 12.16015625 C-194.57805301 11.35299348 -193.13274454 10.54569457 -191.6875 9.73828125 C-190.97464844 9.34253906 -190.26179688 8.94679687 -189.52734375 8.5390625 C-186.25355906 6.70694446 -183.05203971 4.8550262 -179.9609375 2.7265625 C-176.59671513 0.51848145 -175.28269087 0.30113283 -171.3125 0.98828125 C-166.35441354 2.99453846 -161.81035798 5.51359723 -157.5 8.67578125 C-154.75440495 10.66768354 -152.50252433 11.92493981 -149.3125 12.98828125 C-149.3125 13.64828125 -149.3125 14.30828125 -149.3125 14.98828125 C-148.49136719 15.22289062 -147.67023438 15.4575 -146.82421875 15.69921875 C-142.60866163 17.24664239 -138.97701169 19.32720863 -135.125 21.61328125 C-134.32271973 22.08330566 -133.52043945 22.55333008 -132.69384766 23.03759766 C-129.89563341 24.68042698 -127.10355378 26.33331642 -124.3125 27.98828125 C-123.19762207 28.64892578 -122.08274414 29.30957031 -120.93408203 29.99023438 C-119.74900655 30.69267984 -118.56394822 31.39515425 -117.37890625 32.09765625 C-116.48716454 32.62623734 -116.48716454 32.62623734 -115.57740784 33.16549683 C-112.63032946 34.91289347 -109.68453287 36.66237669 -106.74145508 38.41650391 C-104.58513988 39.69932467 -102.42507245 40.97586588 -100.26074219 42.24511719 C-98.38673696 43.35313287 -96.52604753 44.48423437 -94.68457031 45.64550781 C-93.90436523 46.12213867 -93.12416016 46.59876953 -92.3203125 47.08984375 C-91.65918457 47.50830566 -90.99805664 47.92676758 -90.31689453 48.35791016 C-87.38677674 49.27941614 -86.00949963 48.35351437 -83.3125 46.98828125 C-81.54601115 46.02812628 -79.79810838 45.03328038 -78.06640625 44.01171875 C-77.07133057 43.42745117 -76.07625488 42.84318359 -75.05102539 42.24121094 C-74.00293701 41.62149414 -72.95484863 41.00177734 -71.875 40.36328125 C-69.69819444 39.08416259 -67.52111278 37.80551367 -65.34375 36.52734375 C-64.29832031 35.9127832 -63.25289062 35.29822266 -62.17578125 34.66503906 C-58.75671296 32.66280842 -55.32056813 30.69452671 -51.875 28.73828125 C-46.66677773 25.77310931 -41.48293711 22.76871191 -36.3125 19.73828125 C-35.25204468 19.11904785 -35.25204468 19.11904785 -34.17016602 18.48730469 C-31.03709854 16.64568785 -27.97685909 14.77740726 -25 12.69140625 C-22.3125 10.98828125 -22.3125 10.98828125 -19.3125 10.98828125 C-19.3125 10.32828125 -19.3125 9.66828125 -19.3125 8.98828125 C-18.50425781 8.58996094 -17.69601562 8.19164062 -16.86328125 7.78125 C-15.79464844 7.25144531 -14.72601563 6.72164062 -13.625 6.17578125 C-12.56925781 5.65371094 -11.51351562 5.13164062 -10.42578125 4.59375 C-7.33172848 3.07854786 -7.33172848 3.07854786 -4.73046875 1.2265625 C-2.3125 -0.01171875 -2.3125 -0.01171875 0 0 Z " fill="#0F6CF7" transform="translate(275.3125,200.01171875)"/>
<path d="M0 0 C0 42.24 0 84.48 0 128 C-10.395 133.445 -10.395 133.445 -21 139 C-25.92937319 141.84646127 -25.92937319 141.84646127 -30.8203125 144.7578125 C-33 146 -33 146 -36 147 C-36 104.1 -36 61.2 -36 17 C-16.22736307 6.53213339 -16.22736307 6.53213339 -9.5625 3.4375 C-8.84513672 3.09654297 -8.12777344 2.75558594 -7.38867188 2.40429688 C-2.25595762 0 -2.25595762 0 0 0 Z " fill="#FCFCFC" transform="translate(254,69)"/>
<path d="M0 0 C0 36.3 0 72.6 0 110 C-3.63 111.98 -7.26 113.96 -11 116 C-12.11375 116.825 -13.2275 117.65 -14.375 118.5 C-17 120 -17 120 -19.5 119.4375 C-20.325 118.963125 -21.15 118.48875 -22 118 C-23.093125 117.46375 -24.18625 116.9275 -25.3125 116.375 C-26.199375 115.92125 -27.08625 115.4675 -28 115 C-28 114.34 -28 113.68 -28 113 C-28.78375 112.855625 -29.5675 112.71125 -30.375 112.5625 C-33 112 -33 112 -35 111 C-35 77.67 -35 44.34 -35 10 C-29.39 8.35 -23.78 6.7 -18 5 C-13.99379498 3.71229125 -10.06183363 2.44832975 -6.1875 0.8125 C-4 0 -4 0 0 0 Z " fill="#FCFCFC" transform="translate(206,113)"/>
<path d="M0 0 C0 22.44 0 44.88 0 68 C-4.50714797 66.49761734 -6.68648056 65.76493105 -10.25 63.1875 C-14.93581748 59.93856011 -19.8508003 57.42947627 -25 55 C-25 54.34 -25 53.68 -25 53 C-26.1446875 52.814375 -26.1446875 52.814375 -27.3125 52.625 C-30 52 -30 52 -33 50 C-33.36076355 48.12704468 -33.36076355 48.12704468 -33.34057617 45.82568359 C-33.34034958 44.96494232 -33.34012299 44.10420105 -33.33988953 43.21737671 C-33.31666374 41.8220018 -33.31666374 41.8220018 -33.29296875 40.3984375 C-33.28872391 39.44683746 -33.28447906 38.49523743 -33.28010559 37.51480103 C-33.26327896 34.46791586 -33.22561954 31.42168609 -33.1875 28.375 C-33.17245831 26.31250954 -33.15876901 24.25000873 -33.14648438 22.1875 C-33.11336239 17.1247465 -33.06155284 12.06248446 -33 7 C-32.22285645 6.823479 -31.44571289 6.64695801 -30.64501953 6.46508789 C-27.1377359 5.66688032 -23.63136309 4.86474119 -20.125 4.0625 C-18.90167969 3.78470703 -17.67835938 3.50691406 -16.41796875 3.22070312 C-15.25136719 2.95322266 -14.08476562 2.68574219 -12.8828125 2.41015625 C-11.80402832 2.16402588 -10.72524414 1.91789551 -9.61376953 1.66430664 C-3.06541713 0 -3.06541713 0 0 0 Z " fill="#FBFBFA" transform="translate(159,148)"/>
<path d="M0 0 C0.99 0.495 0.99 0.495 2 1 C-0.21035473 5.1049445 -1.54785357 7.39864509 -5.93359375 9.21484375 C-8.06065495 9.85066396 -10.20185261 10.44140084 -12.35546875 10.98046875 C-15.13501478 11.75382668 -15.13501478 11.75382668 -16.36328125 14.11328125 C-16.57339844 14.73589844 -16.78351563 15.35851562 -17 16 C-13.97786398 16.97140086 -11.9812093 17.19248372 -9 16 C-8.34 15.01 -7.68 14.02 -7 13 C-5.23046875 12.1640625 -5.23046875 12.1640625 -3.1875 11.625 C-2.18783203 11.33496094 -2.18783203 11.33496094 -1.16796875 11.0390625 C2.1703191 10.97891317 3.47911239 11.80783748 6 14 C6.77080292 17.11034192 6.65134652 20.19131501 6.59936523 23.38085938 C6.60330795 24.34208206 6.60725067 25.30330475 6.61131287 26.2936554 C6.61803706 29.47754682 6.58882995 32.66001157 6.55859375 35.84375 C6.55434507 38.05187705 6.55201524 40.26000856 6.55152893 42.46813965 C6.54535708 47.09859417 6.5226257 51.72856617 6.48706055 56.35888672 C6.44178762 62.30103514 6.42703509 68.24274602 6.42332363 74.18505096 C6.41889926 78.74546647 6.40360284 83.30578967 6.3844471 87.86616516 C6.37555332 90.05747211 6.36882895 92.24878896 6.36428642 94.44010925 C6.35526473 97.49995554 6.33289168 100.55940215 6.30639648 103.61914062 C6.30573181 104.52936478 6.30506714 105.43958893 6.30438232 106.37739563 C6.2944072 107.21018539 6.28443207 108.04297516 6.27415466 108.90100098 C6.26950416 109.62439919 6.26485365 110.34779739 6.26006222 111.09311676 C6 113 6 113 4 116 C1.66057358 117.12472424 -0.57927555 118.09914828 -3 119 C-4.093125 119.4125 -5.18625 119.825 -6.3125 120.25 C-9 121 -9 121 -11 120 C-10.31292969 119.60167969 -9.62585938 119.20335937 -8.91796875 118.79296875 C-8.01691406 118.26316406 -7.11585938 117.73335938 -6.1875 117.1875 C-5.29417969 116.66542969 -4.40085937 116.14335937 -3.48046875 115.60546875 C-1.01198722 114.13059348 -1.01198722 114.13059348 0.69921875 112.30078125 C1.12847656 111.87152344 1.55773437 111.44226563 2 111 C2.66 111 3.32 111 4 111 C3.67 79.65 3.34 48.3 3 16 C-3.20981597 16.88711657 -5.54148047 17.52072192 -10.625 20.5625 C-11.22618652 20.91820068 -11.82737305 21.27390137 -12.44677734 21.64038086 C-14.30658246 22.7464806 -16.15469569 23.86989929 -18 25 C-19.11375 25.680625 -20.2275 26.36125 -21.375 27.0625 C-23.53353322 28.39082814 -25.68980691 29.72283535 -27.84375 31.05859375 C-34.51925606 35.16469092 -41.28707679 39.0968875 -48.1875 42.8125 C-53.71697256 45.80032739 -59.12067512 48.98502038 -64.52783203 52.18676758 C-69.01331313 54.84043735 -73.52291674 57.4400067 -78.0625 60 C-84.13248347 63.44436271 -90.04854778 67.10408883 -95.93579102 70.8515625 C-100.90039677 74 -100.90039677 74 -102 74 C-102 72.35 -102 70.7 -102 69 C-99.525 68.01 -99.525 68.01 -97 67 C-97.99 66.01 -98.98 65.02 -100 64 C-95.01770224 62.08373163 -90.27315333 61.4452885 -85 61 C-85 60.01 -85 59.02 -85 58 C-87.80764728 57.22573891 -87.80764728 57.22573891 -91 57 C-93.05990478 58.29467677 -93.05990478 58.29467677 -95 60 C-98.87029931 61.61262471 -101.01344251 62.20284062 -105 61 C-104.15115234 60.60167969 -104.15115234 60.60167969 -103.28515625 60.1953125 C-102.55167969 59.84210938 -101.81820312 59.48890625 -101.0625 59.125 C-99.96615234 58.60292969 -99.96615234 58.60292969 -98.84765625 58.0703125 C-96.83667541 57.1315023 -96.83667541 57.1315023 -96 55 C-94.17610727 54.00488413 -92.31471809 53.07794513 -90.4375 52.1875 C-85.9889189 50.02932986 -81.81010426 47.7528996 -77.71875 44.98046875 C-75.83607711 43.90648944 -74.11549693 43.43145003 -72 43 C-72 42.34 -72 41.68 -72 41 C-71.16597656 40.56429687 -70.33195312 40.12859375 -69.47265625 39.6796875 C-61.89242954 35.6870774 -61.89242954 35.6870774 -54.6875 31.0625 C-49.99299896 27.81112335 -44.94552112 25.4024115 -39.82446289 22.90844727 C-36.13281575 21.10100068 -32.58461379 19.23262097 -29.125 17 C-26 15 -26 15 -24 15 C-24 14.34 -24 13.68 -24 13 C-23.18917969 12.56429687 -22.37835938 12.12859375 -21.54296875 11.6796875 C-20.43566406 11.08414063 -19.32835937 10.48859375 -18.1875 9.875 C-17.60379639 9.56240234 -17.02009277 9.24980469 -16.41870117 8.92773438 C-13.5135966 7.36868652 -10.62710003 5.78883978 -7.7578125 4.1640625 C-6.78585937 3.61492187 -5.81390625 3.06578125 -4.8125 2.5 C-3.93207031 1.9946875 -3.05164063 1.489375 -2.14453125 0.96875 C-1.43683594 0.6490625 -0.72914063 0.329375 0 0 Z " fill="#FFFFFF" transform="translate(296,221)"/>
<path d="M0 0 C1.98 0 3.96 0 6 0 C6.33 0.66 6.66 1.32 7 2 C8.88013106 3.12224855 8.88013106 3.12224855 11.0625 4.125 C11.79597656 4.47820312 12.52945313 4.83140625 13.28515625 5.1953125 C14.13400391 5.59363281 14.13400391 5.59363281 15 6 C15 6.66 15 7.32 15 8 C17.31 8 19.62 8 22 8 C22.23976563 8.639375 22.47953125 9.27875 22.7265625 9.9375 C23.80460218 12.1730955 23.80460218 12.1730955 26.0234375 12.6875 C27.18746094 12.8421875 27.18746094 12.8421875 28.375 13 C32.47007129 13.7350128 34.31720543 14.69809899 37 18 C39.31856917 19.54571278 41.50638429 20.79618552 44 22 C44 22.99 44 23.98 44 25 C44.350625 24.505 44.70125 24.01 45.0625 23.5 C47.94374289 21.26936034 50.47009026 21.80019379 54 22 C52.37633534 18.75267068 49.24612161 18.29844864 46 17 C46 16.01 46 15.02 46 14 C43.36 13.67 40.72 13.34 38 13 C38 12.34 38 11.68 38 11 C36.5459375 10.3503125 36.5459375 10.3503125 35.0625 9.6875 C32 8 32 8 31 5 C39.94904154 8.42356572 48.06375614 13.60073971 56.23974609 18.5390625 C67.62440964 25.40718739 79.23789896 31.80595239 91 38 C91 38.66 91 39.32 91 40 C91.845625 40.2475 92.69125 40.495 93.5625 40.75 C96.22207134 41.71711685 98.13864924 42.6162384 100.5 44.0625 C103.61390792 45.92807067 106.35557392 46.64444624 110 47 C110 47.33 110 47.66 110 48 C108.0641649 48.36315666 106.12624752 48.71522731 104.1875 49.0625 C103.10855469 49.25972656 102.02960938 49.45695312 100.91796875 49.66015625 C98 50 98 50 95 49 C95.70339566 51.50965614 95.70339566 51.50965614 97 54 C99.04105639 54.88693303 99.04105639 54.88693303 101 55 C101 55.66 101 56.32 101 57 C101.66 57 102.32 57 103 57 C104.71419439 60.42838877 104.07595002 64.36260502 104.02172852 68.13134766 C104.01212097 69.07773605 104.00251343 70.02412445 103.99261475 70.99919128 C103.95954758 74.13755555 103.91924466 77.27578395 103.87890625 80.4140625 C103.85461268 82.5859631 103.83076874 84.75786876 103.80735779 86.92977905 C103.74444098 92.65419276 103.67539588 98.37851699 103.60510254 104.10284424 C103.53448762 109.9409171 103.46962975 115.77905356 103.40429688 121.6171875 C103.27518664 133.07819488 103.13960645 144.53911601 103 156 C102.67 156 102.34 156 102 156 C102.01189865 154.81284897 102.0237973 153.62569794 102.03605652 152.40257263 C102.14109434 141.20558318 102.18818263 130.00964334 102.17878246 118.81214809 C102.17580563 113.05537053 102.19312288 107.3001551 102.25708008 101.54370117 C102.31807446 95.98632785 102.32541885 90.4312168 102.29583168 84.87361336 C102.29393058 82.75531076 102.31124488 80.6368996 102.34822655 78.51891899 C103.02518651 67.09537377 103.02518651 67.09537377 98.58096313 57.16586304 C95.7541664 55.33412819 93.17178133 54.10511203 90 53 C88.906875 52.43796875 87.81375 51.8759375 86.6875 51.296875 C85.800625 50.86890625 84.91375 50.4409375 84 50 C81.98806808 48.76929697 79.9885174 47.51818712 78 46.25 C72.33875706 42.68825815 66.53183658 39.68605695 60.484375 36.8359375 C56.91316616 34.95424674 53.67194362 32.81800088 50.33837891 30.55224609 C46.5967122 28.06847945 42.71122268 25.85093393 38.8125 23.625 C37.98661377 23.15022217 37.16072754 22.67544434 36.30981445 22.1862793 C33.87502277 20.7876595 31.43785154 19.39327779 29 18 C27.71609013 17.26442014 26.43223094 16.5287518 25.1484375 15.79296875 C20.46262961 13.11158658 15.77726485 10.43096623 11.0625 7.80078125 C10.41450439 7.43686279 9.76650879 7.07294434 9.09887695 6.69799805 C7.85253879 5.99833574 6.60377618 5.30296958 5.35229492 4.61254883 C1.11250969 2.22501939 1.11250969 2.22501939 0 0 Z " fill="#FFFFFF" transform="translate(81,236)"/>
<path d="M0 0 C0.66 0.33 1.32 0.66 2 1 C-0.21035473 5.1049445 -1.54785357 7.39864509 -5.93359375 9.21484375 C-8.06065495 9.85066396 -10.20185261 10.44140084 -12.35546875 10.98046875 C-15.13501478 11.75382668 -15.13501478 11.75382668 -16.36328125 14.11328125 C-16.67845703 15.04720703 -16.67845703 15.04720703 -17 16 C-13.97786398 16.97140086 -11.9812093 17.19248372 -9 16 C-8.34 15.01 -7.68 14.02 -7 13 C-5.23046875 12.1640625 -5.23046875 12.1640625 -3.1875 11.625 C-2.52105469 11.43164062 -1.85460937 11.23828125 -1.16796875 11.0390625 C2.1703191 10.97891317 3.47911239 11.80783748 6 14 C6.77080292 17.11034192 6.65134652 20.19131501 6.59936523 23.38085938 C6.60330795 24.34208206 6.60725067 25.30330475 6.61131287 26.2936554 C6.61803706 29.47754682 6.58882995 32.66001157 6.55859375 35.84375 C6.55434507 38.05187705 6.55201524 40.26000856 6.55152893 42.46813965 C6.54535708 47.09859417 6.5226257 51.72856617 6.48706055 56.35888672 C6.44178762 62.30103514 6.42703509 68.24274602 6.42332363 74.18505096 C6.41889926 78.74546647 6.40360284 83.30578967 6.3844471 87.86616516 C6.37555332 90.05747211 6.36882895 92.24878896 6.36428642 94.44010925 C6.35526473 97.49995554 6.33289168 100.55940215 6.30639648 103.61914062 C6.30539948 104.98447685 6.30539948 104.98447685 6.30438232 106.37739563 C6.2944072 107.21018539 6.28443207 108.04297516 6.27415466 108.90100098 C6.26950416 109.62439919 6.26485365 110.34779739 6.26006222 111.09311676 C6 113 6 113 4 116 C1.66057358 117.12472424 -0.57927555 118.09914828 -3 119 C-4.093125 119.4125 -5.18625 119.825 -6.3125 120.25 C-9 121 -9 121 -11 120 C-10.31292969 119.60167969 -9.62585938 119.20335937 -8.91796875 118.79296875 C-8.01691406 118.26316406 -7.11585938 117.73335938 -6.1875 117.1875 C-5.29417969 116.66542969 -4.40085937 116.14335937 -3.48046875 115.60546875 C-1.01198722 114.13059348 -1.01198722 114.13059348 0.69921875 112.30078125 C1.12847656 111.87152344 1.55773437 111.44226563 2 111 C2.66 111 3.32 111 4 111 C3.67 79.65 3.34 48.3 3 16 C-3.20981597 16.88711657 -5.54148047 17.52072192 -10.625 20.5625 C-11.22111084 20.9145752 -11.81722168 21.26665039 -12.43139648 21.62939453 C-15.51725082 23.46229366 -18.56989478 25.34841529 -21.62109375 27.23828125 C-22.19972168 27.59656006 -22.77834961 27.95483887 -23.37451172 28.32397461 C-24.97455865 29.32024334 -26.56757781 30.32777309 -28.16015625 31.3359375 C-30.73043449 32.84204277 -33.20559068 33.9847834 -36 35 C-36 34.34 -36 33.68 -36 33 C-37.32 32.67 -38.64 32.34 -40 32 C-40 31.01 -40 30.02 -40 29 C-39.34 29 -38.68 29 -38 29 C-38 29.66 -38 30.32 -38 31 C-34.7 30.34 -31.4 29.68 -28 29 C-28 28.34 -28 27.68 -28 27 C-26.68 27 -25.36 27 -24 27 C-24 26.34 -24 25.68 -24 25 C-23.34 25 -22.68 25 -22 25 C-22.33 24.01 -22.66 23.02 -23 22 C-23 21.01 -23 20.02 -23 19 C-22.01 18.67 -21.02 18.34 -20 18 C-20.33 17.01 -20.66 16.02 -21 15 C-21.66 15 -22.32 15 -23 15 C-23 15.66 -23 16.32 -23 17 C-23.56589844 17.26554687 -24.13179688 17.53109375 -24.71484375 17.8046875 C-25.44832031 18.15789062 -26.18179687 18.51109375 -26.9375 18.875 C-27.66839844 19.22304687 -28.39929688 19.57109375 -29.15234375 19.9296875 C-31.16332459 20.8684977 -31.16332459 20.8684977 -32 23 C-32.66 23 -33.32 23 -34 23 C-34 23.66 -34 24.32 -34 25 C-35.98 24.67 -37.96 24.34 -40 24 C-37.80362897 21.80362897 -35.69162845 20.55516311 -33 19 C-32.401875 18.64292969 -31.80375 18.28585938 -31.1875 17.91796875 C-26.23829505 15 -26.23829505 15 -24 15 C-24 14.34 -24 13.68 -24 13 C-23.18917969 12.56429687 -22.37835938 12.12859375 -21.54296875 11.6796875 C-20.43566406 11.08414063 -19.32835937 10.48859375 -18.1875 9.875 C-17.60379639 9.56240234 -17.02009277 9.24980469 -16.41870117 8.92773438 C-13.5135966 7.36868652 -10.62710003 5.78883978 -7.7578125 4.1640625 C-6.78585937 3.61492187 -5.81390625 3.06578125 -4.8125 2.5 C-3.93207031 1.9946875 -3.05164063 1.489375 -2.14453125 0.96875 C-1.43683594 0.6490625 -0.72914063 0.329375 0 0 Z " fill="#FFFFFF" transform="translate(296,221)"/>
<path d="M0 0 C0.66 0 1.32 0 2 0 C2 0.66 2 1.32 2 2 C2.66 2.33 3.32 2.66 4 3 C2.68 3.99 1.36 4.98 0 6 C0.66 6 1.32 6 2 6 C1.67 7.32 1.34 8.64 1 10 C0.34 10 -0.32 10 -1 10 C-1 10.66 -1 11.32 -1 12 C-2.32 12 -3.64 12 -5 12 C-5 12.66 -5 13.32 -5 14 C-8.4019487 16.09350689 -11.05272412 16.17942163 -15 16 C-15 15.34 -15 14.68 -15 14 C-15.66 14 -16.32 14 -17 14 C-17 14.99 -17 15.98 -17 17 C-15.68 17.33 -14.36 17.66 -13 18 C-13 18.99 -13 19.98 -13 21 C-18.81193395 24.21365759 -24.71982647 26.75139026 -31 28.875 C-31.6587915 29.1021167 -32.31758301 29.3292334 -32.99633789 29.56323242 C-37.75232321 31.12383839 -37.75232321 31.12383839 -40 30 C-40 26.67941669 -39.56938028 24.91456338 -38 22 C-35.5 20.8125 -35.5 20.8125 -33 20 C-32.34 19.34 -31.68 18.68 -31 18 C-30.071875 17.731875 -29.14375 17.46375 -28.1875 17.1875 C-24.46298372 15.79993511 -22.74010582 13.81416273 -20 11 C-19.01 11 -18.02 11 -17 11 C-17 10.34 -17 9.68 -17 9 C-14.03 9.495 -14.03 9.495 -11 10 C-11 9.34 -11 8.68 -11 8 C-10.34 8 -9.68 8 -9 8 C-8.67 7.01 -8.34 6.02 -8 5 C-2.77777778 2 -2.77777778 2 0 2 C0 1.34 0 0.68 0 0 Z " fill="#FFFFFF" transform="translate(273,236)"/>
<path d="M0 0 C0.66 0.33 1.32 0.66 2 1 C1.071875 1.5775 0.14375 2.155 -0.8125 2.75 C-3.99279146 4.75010395 -3.99279146 4.75010395 -5.6875 7.25 C-6.3371875 8.11625 -6.3371875 8.11625 -7 9 C-7.99 9 -8.98 9 -10 9 C-10 9.66 -10 10.32 -10 11 C-10.66386719 11.24234375 -11.32773438 11.4846875 -12.01171875 11.734375 C-19.11882245 14.35841826 -19.11882245 14.35841826 -25 19 C-26.31321607 23.46697108 -26.13413621 28.03152688 -26.11352539 32.64575195 C-26.11367142 33.5047963 -26.11381744 34.36384064 -26.1139679 35.24891663 C-26.11327312 38.07873082 -26.10550111 40.9084786 -26.09765625 43.73828125 C-26.09579052 45.70411646 -26.09436735 47.66995213 -26.09336853 49.63578796 C-26.08955553 54.80279836 -26.07973562 59.96978052 -26.06866455 65.13677979 C-26.05842427 70.41214618 -26.0538653 75.68751715 -26.04882812 80.96289062 C-26.03811227 91.30860614 -26.02105045 101.65430072 -26 112 C-22.49826254 110.91578003 -19.88919268 109.92612845 -16.8125 107.875 C-14 106 -14 106 -11 106 C-11 105.34 -11 104.68 -11 104 C-10.34 104 -9.68 104 -9 104 C-9 103.34 -9 102.68 -9 102 C-8.21625 101.731875 -7.4325 101.46375 -6.625 101.1875 C-3.71885077 100.15185568 -3.71885077 100.15185568 -2 97 C-0.01171875 96.19140625 -0.01171875 96.19140625 2.3125 95.5625 C6.3260988 94.35520948 8.73203512 92.63252726 12 90 C14.8125 89.75 14.8125 89.75 17 90 C12.67630171 93.87641915 5.04191557 100 -1 100 C-1 100.66 -1 101.32 -1 102 C-3.475 102.495 -3.475 102.495 -6 103 C-6 103.66 -6 104.32 -6 105 C-6.68964844 105.37511719 -7.37929687 105.75023437 -8.08984375 106.13671875 C-9.02957031 106.64847656 -9.96929687 107.16023438 -10.9375 107.6875 C-11.93523437 108.23019531 -12.93296875 108.77289063 -13.9609375 109.33203125 C-17.40394917 111.22170475 -20.81799907 113.1593557 -24.22265625 115.1171875 C-26 116 -26 116 -28 116 C-28.23184045 103.2132892 -28.40945305 90.42707934 -28.51812172 77.63869381 C-28.57028222 71.70018652 -28.64100987 65.76311838 -28.75439453 59.82543945 C-28.86316301 54.093536 -28.92286476 48.36301525 -28.94877243 42.63015938 C-28.96723069 40.44472036 -29.00327842 38.25935596 -29.05730057 36.07450676 C-29.46374944 18.95313213 -29.46374944 18.95313213 -25.87750244 14.1678772 C-23.29279402 12.32189203 -20.94746988 11.15564589 -18 10 C-16.37228473 9.05348064 -14.75546824 8.08765992 -13.15625 7.09375 C-11.60735493 6.22346782 -10.055285 5.35881057 -8.5 4.5 C-7.70335937 4.04625 -6.90671875 3.5925 -6.0859375 3.125 C-5.32539063 2.7021875 -4.56484375 2.279375 -3.78125 1.84375 C-3.10126953 1.46412109 -2.42128906 1.08449219 -1.72070312 0.69335938 C-1.15287109 0.46455078 -0.58503906 0.23574219 0 0 Z " fill="#2664C7" transform="translate(222,278)"/>
<path d="M0 0 C0 22.44 0 44.88 0 68 C-6 66 -6 66 -9 64 C-8.67 63.01 -8.34 62.02 -8 61 C-6.68 61.33 -5.36 61.66 -4 62 C-4 42.86 -4 23.72 -4 4 C-5.32 3.67 -6.64 3.34 -8 3 C-5.28488343 -0.42962093 -4.93250871 0 0 0 Z " fill="#DEDFE1" transform="translate(159,148)"/>
<path d="M0 0 C3.465 1.98 3.465 1.98 7 4 C7 36.34 7 68.68 7 102 C1.67654389 101.11275732 -0.49217796 100.42387021 -4.875 97.75 C-5.90882813 97.12351562 -6.94265625 96.49703125 -8.0078125 95.8515625 C-8.99523437 95.24054688 -9.98265625 94.62953125 -11 94 C-12.26457031 93.23816406 -12.26457031 93.23816406 -13.5546875 92.4609375 C-15.39193686 91.34289607 -17.19993113 90.17696811 -19 89 C-19 88.67 -19 88.34 -19 88 C-15.6875 87.75 -15.6875 87.75 -12 88 C-10.375 89.875 -10.375 89.875 -9 92 C-6.41501488 93.26847685 -6.41501488 93.26847685 -4 94 C-4 94.66 -4 95.32 -4 96 C-1.03 96.99 1.94 97.98 5 99 C4.96200361 86.79555049 4.90273046 74.59140919 4.81609726 62.38720226 C4.77654496 56.72060657 4.74439456 51.05416809 4.72900391 45.38745117 C4.71388836 39.92133962 4.67953388 34.45566005 4.63169098 28.98974037 C4.6168244 26.90173402 4.60895598 24.81366602 4.60811615 22.72560692 C4.60576059 19.80642717 4.57879527 16.88845505 4.54589844 13.96948242 C4.5509288 13.10129883 4.55595917 12.23311523 4.56114197 11.33862305 C4.56001033 8.66703262 4.56001033 8.66703262 4 5 C2.10749346 3.03038263 2.10749346 3.03038263 0 2 C0 1.34 0 0.68 0 0 Z " fill="#2459B0" transform="translate(176,292)"/>
<path d="M0 0 C2.475 0.495 2.475 0.495 5 1 C5 1.66 5 2.32 5 3 C5.78375 3.20625 6.5675 3.4125 7.375 3.625 C12.29273755 5.49034873 16.55842103 8.20865195 21 11 C18 13 18 13 16 14 C15.01 14.66 14.02 15.32 13 16 C12.34 16 11.68 16 11 16 C10.67 16.99 10.34 17.98 10 19 C11.32 19.33 12.64 19.66 14 20 C14.33 21.32 14.66 22.64 15 24 C11.25299685 22.58719553 7.81213429 20.8806803 4.3125 18.9375 C0.68323434 16.91741708 0.68323434 16.91741708 -3 15 C-3 14.34 -3 13.68 -3 13 C-4.299375 12.62875 -4.299375 12.62875 -5.625 12.25 C-9.18302254 10.93221387 -11.9226155 9.19813178 -15 7 C-13.25 6.3125 -13.25 6.3125 -11 6 C-9.63461347 6.95577057 -8.30518475 7.96352976 -7 9 C-5.4221875 9.495 -5.4221875 9.495 -3.8125 10 C-2.4203125 10.495 -2.4203125 10.495 -1 11 C-0.67 11.99 -0.34 12.98 0 14 C1.65 13.67 3.3 13.34 5 13 C5 12.34 5 11.68 5 11 C3.02 10.34 1.04 9.68 -1 9 C-0.67 8.01 -0.34 7.02 0 6 C0.66 5.67 1.32 5.34 2 5 C1.34 4.34 0.68 3.68 0 3 C0 2.01 0 1.02 0 0 Z " fill="#FFFFFF" transform="translate(129,200)"/>
<path d="M0 0 C1.88885195 1.88885195 1.12010635 4.64051759 1.12442017 7.15324402 C1.11902725 8.48033134 1.11902725 8.48033134 1.11352539 9.83422852 C1.11367142 10.76096375 1.11381744 11.68769897 1.1139679 12.64251709 C1.11326838 15.72133687 1.10547421 18.80009697 1.09765625 21.87890625 C1.09579221 24.00740018 1.09436824 26.13589453 1.09336853 28.26438904 C1.08954228 33.8786232 1.07971108 39.49283168 1.06866455 45.10705566 C1.05845273 50.83113253 1.0538714 56.55521353 1.04882812 62.27929688 C1.03808891 73.51954256 1.0210112 84.75976915 1 96 C0.67 96 0.34 96 0 96 C0 64.98 0 33.96 0 2 C-1.98 2 -3.96 2 -6 2 C-6.33 2.99 -6.66 3.98 -7 5 C-8.32 5 -9.64 5 -11 5 C-11.020625 5.5775 -11.04125 6.155 -11.0625 6.75 C-12.8346061 11.00305465 -17.60619449 12.39255043 -21.6171875 14.140625 C-28.56426056 17 -28.56426056 17 -31 17 C-31 17.66 -31 18.32 -31 19 C-32.175625 19.12375 -32.175625 19.12375 -33.375 19.25 C-34.24125 19.4975 -35.1075 19.745 -36 20 C-36.28875 20.61875 -36.5775 21.2375 -36.875 21.875 C-38.34226068 24.64649239 -40.14282982 25.12525163 -42.98828125 26.2109375 C-46.4399576 27.5647989 -49.70023152 29.31598022 -53 31 C-53.66 31.33 -54.32 31.66 -55 32 C-55.66 31.34 -56.32 30.68 -57 30 C-56.00742188 29.443125 -55.01484375 28.88625 -53.9921875 28.3125 C-49.65883232 25.87965438 -45.32889544 23.44077053 -41 21 C-40.36562012 20.64276855 -39.73124023 20.28553711 -39.07763672 19.91748047 C-32.70870703 16.32621255 -26.40261346 12.6626979 -20.1875 8.8125 C-12.12794503 3.83540576 -12.12794503 3.83540576 -9 2 C-8.34 1.608125 -7.68 1.21625 -7 0.8125 C-4.539679 -0.18700541 -2.63173311 -0.21338377 0 0 Z " fill="#215BC2" transform="translate(299,236)"/>
<path d="M0 0 C0.98120464 3.05263664 0.98120464 4.94736336 0 8 C-1.32 7.67 -2.64 7.34 -4 7 C-3.67 8.65 -3.34 10.3 -3 12 C-10.54522932 16.88657568 -18.20441771 21.52400249 -26 26 C-26 24.35 -26 22.7 -26 21 C-24.35 20.34 -22.7 19.68 -21 19 C-21.99 18.01 -22.98 17.02 -24 16 C-19.01770224 14.08373163 -14.27315333 13.4452885 -9 13 C-9 12.01 -9 11.02 -9 10 C-11.80764728 9.22573891 -11.80764728 9.22573891 -15 9 C-17.05990478 10.29467677 -17.05990478 10.29467677 -19 12 C-22.87029931 13.61262471 -25.01344251 14.20284062 -29 13 C-28.43410156 12.73445313 -27.86820313 12.46890625 -27.28515625 12.1953125 C-26.55167969 11.84210938 -25.81820312 11.48890625 -25.0625 11.125 C-23.96615234 10.60292969 -23.96615234 10.60292969 -22.84765625 10.0703125 C-20.83667541 9.1315023 -20.83667541 9.1315023 -20 7 C-17.28898872 5.38756845 -14.77101204 4.63757773 -11.6875 4.0625 C-7.47816309 3.1913624 -3.88785036 1.81984485 0 0 Z " fill="#FFFFFF" transform="translate(220,269)"/>
<path d="M0 0 C4.18645059 -0.13384514 6.03074054 0.31663879 9.4375 2.8125 C12.87102085 5.24122796 16.18634578 7.2398519 20 9 C16.71023192 10.09658936 15.28696233 9.79953138 12 9 C12 8.01 12 7.02 12 6 C10.824375 5.814375 10.824375 5.814375 9.625 5.625 C7 5 7 5 5 3 C2.93125966 2.3574765 2.93125966 2.3574765 1 2 C1.06114139 14.07403316 1.13819701 26.14784891 1.23571491 38.22164631 C1.28049067 43.8276813 1.31973085 49.43364241 1.34643555 55.03979492 C1.37239668 60.44749652 1.41274786 65.85491486 1.46318626 71.26244164 C1.47990374 73.32812166 1.49138751 75.39385072 1.49761391 77.459589 C1.50720201 80.34746806 1.53519745 83.2346144 1.56762695 86.12231445 C1.56619186 86.98114731 1.56475677 87.83998016 1.5632782 88.72483826 C1.49769241 93.00826932 1.49769241 93.00826932 3.35695171 96.70024395 C5.48156916 98.38095194 7.34828163 98.64165968 10 99 C10 99.66 10 100.32 10 101 C11.093125 101.103125 12.18625 101.20625 13.3125 101.3125 C17.06399892 102.011932 17.69835795 102.25994995 20 105 C20.66 105.33 21.32 105.66 22 106 C24.14852141 107.0742607 25.46652965 108.15983558 27 110 C27 110.66 27 111.32 27 112 C28.65 112 30.3 112 32 112 C32.33 112.99 32.66 113.98 33 115 C33.99 115.33 34.98 115.66 36 116 C35.01 116.495 35.01 116.495 34 117 C32.15234375 116.1796875 32.15234375 116.1796875 29.9375 114.875 C29.1434375 114.41480469 28.349375 113.95460938 27.53125 113.48046875 C26.6959375 112.99191406 25.860625 112.50335938 25 112 C23.31477957 111.05840847 21.62739089 110.12068342 19.9375 109.1875 C18.625 108.45833333 17.3125 107.72916667 16 107 C16 106.34 16 105.68 16 105 C15.01 104.79375 14.02 104.5875 13 104.375 C7.9503132 102.96314879 3.68405766 99.68405766 0 96 C-0.0952822 93.01701786 -0.12552175 90.05723655 -0.11352539 87.07397461 C-0.11367142 86.13748581 -0.11381744 85.20099701 -0.1139679 84.23612976 C-0.11326837 81.12484461 -0.10547415 78.01361851 -0.09765625 74.90234375 C-0.09579221 72.75142957 -0.09436824 70.60051497 -0.09336853 68.44960022 C-0.08954225 62.77618242 -0.07971102 57.10279005 -0.06866455 51.42938232 C-0.0584528 45.64498234 -0.05387142 39.86057827 -0.04882812 34.07617188 C-0.03808885 22.71743672 -0.02101111 11.35872047 0 0 Z M17 101 C20 102 20 102 20 102 Z " fill="#296ED0" transform="translate(76,236)"/>
<path d="M0 0 C0.33 0 0.66 0 1 0 C1 32.67 1 65.34 1 99 C3.97 98.01 3.97 98.01 7 97 C7 97.66 7 98.32 7 99 C6.34 99 5.68 99 5 99 C5 99.66 5 100.32 5 101 C1.25 102.125 1.25 102.125 -1 101 C-1.023121 87.9788936 -1.04091384 74.95779205 -1.05181217 61.93666935 C-1.05704153 55.89112183 -1.06414014 49.8455883 -1.07543945 43.80004883 C-1.08626645 37.97105712 -1.09227643 32.14207891 -1.09487724 26.31307793 C-1.09673183 24.0838239 -1.10035308 21.85457065 -1.10573006 19.62532234 C-1.11293799 16.51460266 -1.11399105 13.40393951 -1.11352539 10.29321289 C-1.11712067 9.36173431 -1.12071594 8.43025574 -1.12442017 7.47055054 C-1.11405216 1.11405216 -1.11405216 1.11405216 0 0 Z " fill="#FFFFFF" transform="translate(193,295)"/>
<path d="M0 0 C3.89469583 1.43220646 7.21003498 3.55839375 10.6875 5.80078125 C11.38617188 6.23970703 12.08484375 6.67863281 12.8046875 7.13085938 C14.78584704 8.38870878 16.74016952 9.67881569 18.6875 10.98828125 C19.6775 11.65214844 20.6675 12.31601563 21.6875 13 C23.6875 14.98828125 23.6875 14.98828125 24 17.73828125 C23.896875 18.48078125 23.79375 19.22328125 23.6875 19.98828125 C21.12714079 21.45048404 18.5643644 22.90813278 16 24.36328125 C15.27876953 24.77578125 14.55753906 25.18828125 13.81445312 25.61328125 C10.17742349 27.67260397 6.63516212 29.57117177 2.6875 30.98828125 C2.6875 30.32828125 2.6875 29.66828125 2.6875 28.98828125 C3.3475 28.65828125 4.0075 28.32828125 4.6875 27.98828125 C4.6875 26.66828125 4.6875 25.34828125 4.6875 23.98828125 C8.3175 23.65828125 11.9475 23.32828125 15.6875 22.98828125 C16.1825 21.50328125 16.1825 21.50328125 16.6875 19.98828125 C18.75 19.30078125 18.75 19.30078125 20.6875 18.98828125 C20.6875 17.66828125 20.6875 16.34828125 20.6875 14.98828125 C20.12160156 14.80652344 19.55570312 14.62476563 18.97265625 14.4375 C18.23917969 14.18613281 17.50570312 13.93476563 16.75 13.67578125 C16.01910156 13.43214844 15.28820312 13.18851563 14.53515625 12.9375 C12.6875 11.98828125 12.6875 11.98828125 11.6875 8.98828125 C7.1340155 5.67142727 2.3461936 3.42356537 -3.3125 2.98828125 C-3.3125 3.64828125 -3.3125 4.30828125 -3.3125 4.98828125 C-4.364375 5.38015625 -5.41625 5.77203125 -6.5 6.17578125 C-9.33127772 7.37297484 -10.55373018 8.22951143 -12.8125 10.48828125 C-15.84808298 13.52386423 -18.33881431 14.4599406 -22.3125 15.98828125 C-22.6425 16.31828125 -22.9725 16.64828125 -23.3125 16.98828125 C-25.64547433 17.02921062 -27.97955225 17.03069848 -30.3125 16.98828125 C-22.9125 10.98828125 -22.9125 10.98828125 -19.3125 10.98828125 C-19.3125 10.32828125 -19.3125 9.66828125 -19.3125 8.98828125 C-18.10013672 8.39080078 -18.10013672 8.39080078 -16.86328125 7.78125 C-15.79464844 7.25144531 -14.72601563 6.72164062 -13.625 6.17578125 C-12.56925781 5.65371094 -11.51351563 5.13164062 -10.42578125 4.59375 C-7.33172848 3.07854786 -7.33172848 3.07854786 -4.73046875 1.2265625 C-2.3125 -0.01171875 -2.3125 -0.01171875 0 0 Z " fill="#1C65D5" transform="translate(275.3125,200.01171875)"/>
<path d="M0 0 C0.00586624 1.18128479 0.01173248 2.36256958 0.01777649 3.57965088 C0.07495193 14.7039451 0.14768643 25.82804286 0.23571491 36.95213699 C0.28047126 42.6713648 0.31971584 48.39052051 0.34643555 54.10986328 C0.37241588 59.62779153 0.41278103 65.14544307 0.46318626 70.66320038 C0.47989065 72.76992098 0.49138262 74.87668949 0.49761391 76.9834671 C0.50721609 79.93100599 0.53522901 82.87783123 0.56762695 85.82519531 C0.56619186 86.69913437 0.56475677 87.57307343 0.5632782 88.47349548 C0.62315631 93.25596647 0.62315631 93.25596647 2.52702332 97.57342529 C3.01310562 98.04419495 3.49918793 98.5149646 4 99 C2.35 99 0.7 99 -1 99 C-2.70194463 95.59611074 -2.18110512 91.70730593 -2.20532227 87.96044922 C-2.21522186 87.02381439 -2.22512146 86.08717957 -2.23532104 85.12216187 C-2.26698922 82.01636307 -2.29171448 78.91054896 -2.31640625 75.8046875 C-2.33697119 73.65519811 -2.35796753 71.50571281 -2.37937927 69.35623169 C-2.4346475 63.69109399 -2.48403581 58.02591951 -2.53222656 52.36071777 C-2.58240694 46.58289302 -2.63811106 40.80512187 -2.69335938 35.02734375 C-2.80099904 23.68494159 -2.90243109 12.34249295 -3 1 C-1 0 -1 0 0 0 Z " fill="#FFFFFF" transform="translate(76,237)"/>
<path d="M0 0 C12.02803738 2.18691589 12.02803738 2.18691589 16 6 C16 6.66 16 7.32 16 8 C18.475 8.495 18.475 8.495 21 9 C21 9.66 21 10.32 21 11 C23.475 11.495 23.475 11.495 26 12 C26 12.66 26 13.32 26 14 C27.010625 14.226875 28.02125 14.45375 29.0625 14.6875 C32.7616349 15.72415272 35.27477087 17.51167516 38.29296875 19.828125 C40.68634548 21.47117539 43.22757557 22.20787873 46 23 C46.33 23.33 46.66 23.66 47 24 C49.32817964 24.36760731 51.6618385 24.70241581 54 25 C54.33 23.35 54.66 21.7 55 20 C59.98283716 18.85948394 64.94468132 17.77774134 70 17 C65.375 21 65.375 21 62 21 C61.505 22.485 61.505 22.485 61 24 C59.36328125 25.16796875 59.36328125 25.16796875 57.3125 26.1875 C56.64863281 26.53167969 55.98476562 26.87585938 55.30078125 27.23046875 C50.83356741 28.7245963 47.86463224 28.38603171 43.5703125 26.46875 C42.43335938 25.8190625 41.29640625 25.169375 40.125 24.5 C39.53203125 24.16613281 38.9390625 23.83226562 38.328125 23.48828125 C36.87895283 22.67020018 35.43853019 21.83665257 34 21 C34 20.34 34 19.68 34 19 C33.236875 18.79375 32.47375 18.5875 31.6875 18.375 C26.48844633 16.43636982 21.81605278 13.73866214 17 11 C15.41445312 10.10474609 15.41445312 10.10474609 13.796875 9.19140625 C8.90088949 6.3876707 4.34566317 3.61875224 0 0 Z " fill="#2563C9" transform="translate(138,255)"/>
<path d="M0 0 C0.94875 0.350625 1.8975 0.70125 2.875 1.0625 C2.875 1.7225 2.875 2.3825 2.875 3.0625 C4.195 3.7225 5.515 4.3825 6.875 5.0625 C4.895 6.0525 2.915 7.0425 0.875 8.0625 C0.37330585 10.89323436 0.37330585 10.89323436 0.875 14.0625 C3.81736782 16.27418225 3.81736782 16.27418225 6.875 18.0625 C6.875 19.0525 6.875 20.0425 6.875 21.0625 C1.45985842 19.56778426 -2.81643234 16.99392616 -7.5 14 C-8.23605469 13.54044922 -8.97210938 13.08089844 -9.73046875 12.60742188 C-11.54956776 11.45825079 -13.34025923 10.2643385 -15.125 9.0625 C-15.125 8.7325 -15.125 8.4025 -15.125 8.0625 C-13.454375 8.124375 -13.454375 8.124375 -11.75 8.1875 C-8.08133975 8.47371859 -8.08133975 8.47371859 -6.125 6.0625 C-6.455 5.4025 -6.785 4.7425 -7.125 4.0625 C-5.48916533 -0.09000341 -4.55277071 -1.36583121 0 0 Z " fill="#FFFFFF" transform="translate(175.125,224.9375)"/>
<path d="M0 0 C0 0.66 0 1.32 0 2 C-0.59167969 2.32613281 -1.18335938 2.65226563 -1.79296875 2.98828125 C-2.58316406 3.42527344 -3.37335938 3.86226562 -4.1875 4.3125 C-4.96480469 4.74175781 -5.74210937 5.17101562 -6.54296875 5.61328125 C-8.18751716 6.5414445 -9.81798308 7.49499136 -11.43359375 8.47265625 C-14.20242124 10.12046682 -17.02427824 11.6234748 -19.875 13.125 C-25.64912292 16.20584602 -31.25323678 19.50294743 -36.79833984 22.97900391 C-40.43393578 25.21743706 -43.89764334 26.81626655 -48 28 C-48 28.66 -48 29.32 -48 30 C-49.72718516 30.96189997 -51.45684058 31.91936508 -53.1875 32.875 C-54.15042969 33.40867187 -55.11335937 33.94234375 -56.10546875 34.4921875 C-58.69739518 35.8423678 -61.26761098 36.97098329 -64 38 C-63.83984375 36.16015625 -63.83984375 36.16015625 -63 34 C-60.56640625 32.62109375 -60.56640625 32.62109375 -57.5625 31.4375 C-53.0313498 29.71072859 -53.0313498 29.71072859 -50 26 C-48.1953125 25.0859375 -48.1953125 25.0859375 -46.125 24.375 C-45.44695312 24.13523437 -44.76890625 23.89546875 -44.0703125 23.6484375 C-42 23 -42 23 -39.796875 22.53515625 C-39.20390625 22.35855469 -38.6109375 22.18195313 -38 22 C-37.71125 21.360625 -37.4225 20.72125 -37.125 20.0625 C-35.47364574 17.03501719 -33.20408954 17.02530865 -30 16 C-28.64691687 14.68671343 -27.31129922 13.35500919 -26 12 C-23.8125 11.375 -23.8125 11.375 -22 11 C-21.67 10.34 -21.34 9.68 -21 9 C-18.93359375 8.5859375 -18.93359375 8.5859375 -16.4375 8.375 C-15.19806641 8.26285156 -15.19806641 8.26285156 -13.93359375 8.1484375 C-12.97646484 8.07496094 -12.97646484 8.07496094 -12 8 C-12 7.34 -12 6.68 -12 6 C-11.34 5.67 -10.68 5.34 -10 5 C-9.67 4.01 -9.34 3.02 -9 2 C-5.67908998 0.29466783 -3.81507216 0 0 0 Z " fill="#2469D1" transform="translate(272,234)"/>
<path d="M0 0 C0 36.3 0 72.6 0 110 C-0.33 110 -0.66 110 -1 110 C-1.33 76.01 -1.66 42.02 -2 7 C-2.99 7 -3.98 7 -5 7 C-5 6.34 -5 5.68 -5 5 C-7.97 4.67 -10.94 4.34 -14 4 C-14 3.67 -14 3.34 -14 3 C-12.4188708 2.49307308 -10.83498617 1.99473557 -9.25 1.5 C-7.92742187 1.08234375 -7.92742187 1.08234375 -6.578125 0.65625 C-4 0 -4 0 0 0 Z " fill="#D5D7DB" transform="translate(206,113)"/>
<path d="M0 0 C0.66 0 1.32 0 2 0 C2.17684663 12.72566335 2.34281055 25.45141721 2.49477577 38.17740345 C2.56567907 44.08620982 2.64036938 49.99491831 2.72363281 55.90356445 C2.80380733 61.60280236 2.87414075 67.30208361 2.93757248 73.0015316 C2.96355078 75.1789366 2.99311061 77.35630183 3.02626419 79.53360939 C3.07199863 82.57682302 3.10514247 85.61992748 3.13525391 88.66333008 C3.1517952 89.56891663 3.16833649 90.47450317 3.18537903 91.40753174 C3.19104385 92.23624283 3.19670868 93.06495392 3.20254517 93.91877747 C3.21637206 94.99865795 3.21637206 94.99865795 3.23047829 96.10035419 C3 98 3 98 1 101 C-1.33942642 102.12472424 -3.57927555 103.09914828 -6 104 C-7.093125 104.4125 -8.18625 104.825 -9.3125 105.25 C-12 106 -12 106 -14 105 C-13.31292969 104.60167969 -12.62585938 104.20335937 -11.91796875 103.79296875 C-11.01691406 103.26316406 -10.11585938 102.73335938 -9.1875 102.1875 C-8.29417969 101.66542969 -7.40085937 101.14335937 -6.48046875 100.60546875 C-4.01198722 99.13059348 -4.01198722 99.13059348 -2.30078125 97.30078125 C-1.65689453 96.65689453 -1.65689453 96.65689453 -1 96 C-0.34 96 0.32 96 1 96 C0.505 48.48 0.505 48.48 0 0 Z " fill="#FFFFFF" transform="translate(299,236)"/>
<path d="M0 0 C3.92838726 2.06924775 7.70030888 4.13959955 11.28515625 6.76953125 C14.0307513 8.76143354 16.28263192 10.01868981 19.47265625 11.08203125 C19.47265625 11.74203125 19.47265625 12.40203125 19.47265625 13.08203125 C20.25640625 13.28828125 21.04015625 13.49453125 21.84765625 13.70703125 C26.7653938 15.57237998 31.03107728 18.2906832 35.47265625 21.08203125 C34.48265625 21.41203125 33.49265625 21.74203125 32.47265625 22.08203125 C30.7109375 21.19140625 30.7109375 21.19140625 28.78515625 19.83203125 C26.00026901 17.97373333 23.45584128 16.59444152 20.28515625 15.51953125 C16.7451253 14.30242827 14.29713985 12.57422266 11.47265625 10.08203125 C10.81265625 9.75203125 10.15265625 9.42203125 9.47265625 9.08203125 C9.47265625 8.42203125 9.47265625 7.76203125 9.47265625 7.08203125 C7.89484375 6.64890625 7.89484375 6.64890625 6.28515625 6.20703125 C2.47265625 5.08203125 2.47265625 5.08203125 0.16015625 3.89453125 C-3.99076709 2.63960094 -8.37653863 2.8037302 -12.52734375 4.08203125 C-13.23917858 5.39180734 -13.90713281 6.72646472 -14.52734375 8.08203125 C-18.15234375 9.33203125 -18.15234375 9.33203125 -21.52734375 10.08203125 C-22.18734375 9.42203125 -22.84734375 8.76203125 -23.52734375 8.08203125 C-21.16174317 6.5651576 -18.78669811 5.06890391 -16.40234375 3.58203125 C-15.7371875 3.15277344 -15.07203125 2.72351563 -14.38671875 2.28125 C-9.37704031 -0.81296316 -5.80329938 -2.10784444 0 0 Z " fill="#2762C5" transform="translate(106.52734375,201.91796875)"/>
<path d="M0 0 C0.33 0 0.66 0 1 0 C1.09261957 12.18692967 1.16372428 24.37377582 1.20724869 36.56098557 C1.22813669 42.21981982 1.25647682 47.87841356 1.30175781 53.53710938 C1.34517177 58.99655781 1.36912797 64.45577468 1.37950897 69.91538239 C1.38690831 71.99984636 1.40135724 74.08429745 1.42292023 76.16866302 C1.45189474 79.08505286 1.45595846 82.00048192 1.45410156 84.91699219 C1.47567322 86.21387466 1.47567322 86.21387466 1.49768066 87.53695679 C1.45725855 93.3917225 1.45725855 93.3917225 -0.83990479 96.4475708 C-3.55703625 98.4003339 -6.3365609 100.10327355 -9.25 101.75 C-10.32765625 102.36359375 -11.4053125 102.9771875 -12.515625 103.609375 C-13.74539063 104.29773438 -13.74539063 104.29773438 -15 105 C-15 104.01 -15 103.02 -15 102 C-12.39125736 100.04344302 -9.82751291 98.38941784 -6.875 97 C-4.2335351 95.59121872 -2.84874376 94.4050092 -1 92 C-0.39073463 89.03956979 -0.43617679 86.11474663 -0.45410156 83.10058594 C-0.43859505 81.75371704 -0.43859505 81.75371704 -0.42277527 80.37963867 C-0.39329851 77.41436878 -0.39184706 74.44978002 -0.390625 71.484375 C-0.37564666 69.42741592 -0.35892025 67.37046887 -0.34051514 65.3135376 C-0.2967907 59.90156509 -0.27683117 54.48975481 -0.26177979 49.07763672 C-0.24222713 43.55426418 -0.20025503 38.03106733 -0.16015625 32.5078125 C-0.08479889 21.67192912 -0.03454082 10.83608496 0 0 Z " fill="#1C6EDF" transform="translate(298,238)"/>
<path d="M0 0 C0.66 0.33 1.32 0.66 2 1 C-0.23407889 4.35111834 -1.26215824 5.81553956 -5.25 6.8125 C-6.1575 6.874375 -7.065 6.93625 -8 7 C-8 7.66 -8 8.32 -8 9 C-11.23147965 12.10222046 -14.74384123 12.87995822 -19 14 C-21.78223378 14.69485264 -21.78223378 14.69485264 -24 16 C-24.433125 17.2375 -24.433125 17.2375 -24.875 18.5 C-25.24625 19.325 -25.6175 20.15 -26 21 C-28.31847874 21.7166207 -30.65319703 22.38242027 -33 23 C-33.474375 23.70125 -33.94875 24.4025 -34.4375 25.125 C-36 27 -36 27 -37.953125 27.2578125 C-39.97056884 27.2507585 -41.98686734 27.1320087 -44 27 C-41.30463823 24.10109832 -38.82908831 22.17469826 -35.3125 20.375 C-30.31173569 17.73422205 -25.4283021 14.94123476 -20.5625 12.0625 C-19.83708008 11.63525635 -19.11166016 11.2080127 -18.36425781 10.76782227 C-15.0022205 8.7855174 -11.64856523 6.79135389 -8.3125 4.765625 C-7.24 4.12109375 -6.1675 3.4765625 -5.0625 2.8125 C-4.12535156 2.24144531 -3.18820313 1.67039063 -2.22265625 1.08203125 C-1.12244141 0.54642578 -1.12244141 0.54642578 0 0 Z " fill="#2163C8" transform="translate(233,223)"/>
<path d="M0 0 C3.63 0.33 7.26 0.66 11 1 C11 1.33 11 1.66 11 2 C9.35 2 7.7 2 6 2 C6 15.86 6 29.72 6 44 C5.67 42.68 5.34 41.36 5 40 C4.34 40 3.68 40 3 40 C3 28.78 3 17.56 3 6 C2.34 5.67 1.68 5.34 1 5 C1.66 4.01 2.32 3.02 3 2 C2.01 1.67 1.02 1.34 0 1 C0 0.67 0 0.34 0 0 Z " fill="#FFFFFF" transform="translate(120,153)"/>
<path d="M0 0 C1.88885195 1.88885195 1.12010635 4.64051759 1.12442017 7.15324402 C1.12082489 8.0379689 1.11722961 8.92269379 1.11352539 9.83422852 C1.11367142 10.76096375 1.11381744 11.68769897 1.1139679 12.64251709 C1.11326838 15.72133687 1.10547421 18.80009697 1.09765625 21.87890625 C1.09579221 24.00740018 1.09436824 26.13589453 1.09336853 28.26438904 C1.08954228 33.8786232 1.07971108 39.49283168 1.06866455 45.10705566 C1.05845273 50.83113253 1.0538714 56.55521353 1.04882812 62.27929688 C1.03808891 73.51954256 1.0210112 84.75976915 1 96 C0.67 96 0.34 96 0 96 C0 64.98 0 33.96 0 2 C-1.98 2 -3.96 2 -6 2 C-6.33 2.99 -6.66 3.98 -7 5 C-9.31 5.33 -11.62 5.66 -14 6 C-11.7048321 1.40966421 -4.85261345 -0.73524446 0 0 Z " fill="#1A56AC" transform="translate(299,236)"/>
<path d="M0 0 C1.98 0 3.96 0 6 0 C6.33 0.66 6.66 1.32 7 2 C8.88013106 3.12224855 8.88013106 3.12224855 11.0625 4.125 C11.79597656 4.47820312 12.52945313 4.83140625 13.28515625 5.1953125 C14.13400391 5.59363281 14.13400391 5.59363281 15 6 C15 6.66 15 7.32 15 8 C17.31 8 19.62 8 22 8 C22.23976563 8.639375 22.47953125 9.27875 22.7265625 9.9375 C23.80460218 12.1730955 23.80460218 12.1730955 26.0234375 12.6875 C27.18746094 12.8421875 27.18746094 12.8421875 28.375 13 C32.40709385 13.73900112 34.54581273 14.5232347 37 18 C37.75 20.25 37.75 20.25 38 22 C33.4348865 20.66253775 29.81103823 18.81303817 25.8125 16.25 C21.67327939 13.63140646 17.50569217 11.12796516 13.1875 8.8125 C8.65985668 6.38270901 4.28901015 3.8323652 0 1 C0 0.67 0 0.34 0 0 Z " fill="#FFFFFF" transform="translate(81,236)"/>
<path d="M0 0 C0.99 0 1.98 0 3 0 C3 1.98 3 3.96 3 6 C4.32 6.33 5.64 6.66 7 7 C7 7.99 7 8.98 7 10 C5.35538655 10.83573823 3.70927487 11.66852882 2.0625 12.5 C1.14597656 12.9640625 0.22945312 13.428125 -0.71484375 13.90625 C-3 15 -3 15 -4 15 C-4.33 13.35 -4.66 11.7 -5 10 C-7.31 9.67 -9.62 9.34 -12 9 C-11.67 8.34 -11.34 7.68 -11 7 C-10.0925 6.731875 -9.185 6.46375 -8.25 6.1875 C-4.47269183 4.80732971 -2.77069428 2.84557791 0 0 Z " fill="#FFFFFF" transform="translate(253,247)"/>
<path d="M0 0 C1.98 0.66 3.96 1.32 6 2 C5.67 34.01 5.34 66.02 5 99 C4.67 99 4.34 99 4 99 C3.99413376 97.80396652 3.98826752 96.60793304 3.98222351 95.37565613 C3.92507575 84.11860627 3.85235598 72.86175107 3.76428509 61.60489941 C3.71950734 55.81726147 3.68026759 50.02969515 3.65356445 44.24194336 C3.62760533 38.65918242 3.58725555 33.07669594 3.53681374 27.49410439 C3.5200949 25.36143717 3.50861198 23.22872243 3.50238609 21.09599876 C3.49279949 18.11473002 3.46480569 15.13417147 3.43237305 12.15307617 C3.43380814 11.2661911 3.43524323 10.37930603 3.4367218 9.46554565 C3.42418365 8.65366287 3.41164551 7.84178009 3.39872742 7.0052948 C3.39411845 6.30012317 3.38950949 5.59495153 3.38476086 4.86841106 C2.89122952 2.47180707 1.83586107 1.55531872 0 0 Z " fill="#FFFFFF" transform="translate(179,293)"/>
<path d="M0 0 C3.33396137 1.23073444 6.06230786 2.60939083 8.9375 4.6875 C14.02765001 8.18107682 19.41605207 10.80253499 24.9609375 13.484375 C28 15 28 15 31 17 C30.67 18.65 30.34 20.3 30 22 C28.68 21.34 27.36 20.68 26 20 C26.33 19.34 26.66 18.68 27 18 C26.0925 17.7525 25.185 17.505 24.25 17.25 C21 16 21 16 19 13.9375 C16.44139966 11.45885593 14.48111139 11.31646467 11 11 C11 11.66 11 12.32 11 13 C10.01 12.67 9.02 12.34 8 12 C8.20625 11.38125 8.4125 10.7625 8.625 10.125 C8.74875 9.42375 8.8725 8.7225 9 8 C7.17084359 5.76154985 7.17084359 5.76154985 4.5 5.6875 C3.675 5.460625 2.85 5.23375 2 5 C0.6875 2.4375 0.6875 2.4375 0 0 Z " fill="#FFFFFF" transform="translate(152,378)"/>
<path d="M0 0 C6.89659679 3.34484944 13.63420951 6.71533333 20 11 C20 11.33 20 11.66 20 12 C19.09636719 11.91621094 18.19273438 11.83242187 17.26171875 11.74609375 C16.08222656 11.64425781 14.90273437 11.54242188 13.6875 11.4375 C12.51574219 11.33308594 11.34398438 11.22867188 10.13671875 11.12109375 C6.96967425 10.81422566 6.96967425 10.81422566 4 12 C1.8125 10.5625 1.8125 10.5625 0 9 C0.33 7.68 0.66 6.36 1 5 C1.99 5 2.98 5 4 5 C4 4.34 4 3.68 4 3 C2.35 3 0.7 3 -1 3 C-0.67 2.01 -0.34 1.02 0 0 Z " fill="#FFFFFF" transform="translate(92,229)"/>
<path d="M0 0 C0.66 0.33 1.32 0.66 2 1 C1.071875 1.5775 0.14375 2.155 -0.8125 2.75 C-3.99279146 4.75010395 -3.99279146 4.75010395 -5.6875 7.25 C-6.3371875 8.11625 -6.3371875 8.11625 -7 9 C-7.99 9 -8.98 9 -10 9 C-10 9.66 -10 10.32 -10 11 C-10.66386719 11.24234375 -11.32773438 11.4846875 -12.01171875 11.734375 C-19.11882245 14.35841826 -19.11882245 14.35841826 -25 19 C-25.87943404 21.63460948 -25.87943404 21.63460948 -26 24 C-26.33 24 -26.66 24 -27 24 C-27.33 21.69 -27.66 19.38 -28 17 C-21.79379852 12.29077174 -15.28170612 8.31614193 -8.5 4.5 C-7.69836426 4.04254395 -6.89672852 3.58508789 -6.07080078 3.11376953 C-5.31524902 2.69466309 -4.55969727 2.27555664 -3.78125 1.84375 C-3.10126953 1.46412109 -2.42128906 1.08449219 -1.72070312 0.69335938 C-1.15287109 0.46455078 -0.58503906 0.23574219 0 0 Z " fill="#1D5AC1" transform="translate(222,278)"/>
<path d="M0 0 C5.06696738 0.44708536 7.53516778 2.45459029 11 6 C11.16796875 8.671875 11.16796875 8.671875 11 11 C8.43964079 12.46220279 5.8768644 13.91985153 3.3125 15.375 C2.2306543 15.99375 2.2306543 15.99375 1.12695312 16.625 C-2.51007651 18.68432272 -6.05233788 20.58289052 -10 22 C-10 21.34 -10 20.68 -10 20 C-9.34 19.67 -8.68 19.34 -8 19 C-8 17.68 -8 16.36 -8 15 C-2.555 14.505 -2.555 14.505 3 14 C3.33 13.01 3.66 12.02 4 11 C6.0625 10.3125 6.0625 10.3125 8 10 C8 8.68 8 7.36 8 6 C5.36 5.01 2.72 4.02 0 3 C0 2.01 0 1.02 0 0 Z " fill="#2966CA" transform="translate(288,209)"/>
<path d="M0 0 C0 0.99 0 1.98 0 3 C-0.99 3.495 -0.99 3.495 -2 4 C-2 4.66 -2 5.32 -2 6 C-1.34 6.33 -0.68 6.66 0 7 C0 7.66 0 8.32 0 9 C1.32 9 2.64 9 4 9 C6.5 11.3125 6.5 11.3125 9 14 C11.53537056 16.0743941 14.02987845 17.62101499 17 19 C14.50444211 19.91790227 13.33784843 20.12310981 10.80175781 19.19897461 C8.27016739 17.8013367 5.75179044 16.38794719 3.25 14.9375 C2.36183594 14.45861328 1.47367187 13.97972656 0.55859375 13.48632812 C-1.82362393 12.1195719 -3.95638751 10.83611258 -6 9 C-6.578125 5.62890625 -6.578125 5.62890625 -6 3 C-4.02 2.01 -2.04 1.02 0 0 Z " fill="#2562BF" transform="translate(82,211)"/>
<path d="M0 0 C4.94799584 1.42672273 8.91953776 3.55831725 13.25 6.25 C14.56892469 7.05743171 15.88793543 7.86472288 17.20703125 8.671875 C17.84850098 9.06697266 18.4899707 9.46207031 19.15087891 9.86914062 C22.5188728 11.92889079 25.9328391 13.91190582 29.33984375 15.90625 C29.88769531 16.2671875 30.43554688 16.628125 31 17 C31 17.33 31 17.66 31 18 C21.82713348 17.64989059 21.82713348 17.64989059 18.375 14.9375 C17.92125 14.298125 17.4675 13.65875 17 13 C17.99 13 18.98 13 20 13 C17.03 12.01 14.06 11.02 11 10 C11 9.34 11 8.68 11 8 C10.34 8 9.68 8 9 8 C9 7.34 9 6.68 9 6 C7.02 5.34 5.04 4.68 3 4 C3 3.34 3 2.68 3 2 C2.01 2 1.02 2 0 2 C0 1.34 0 0.68 0 0 Z " fill="#2C6DD0" transform="translate(96,246)"/>
<path d="M0 0 C2.31 0.33 4.62 0.66 7 1 C7 1.66 7 2.32 7 3 C9.3431213 2.74438677 11.67843403 2.40729228 14 2 C14.33 1.34 14.66 0.68 15 0 C15.3403125 1.6396875 15.3403125 1.6396875 15.6875 3.3125 C17.19112931 7.53698235 18.19309753 7.99636712 22 10 C22 10.99 22 11.98 22 13 C16.58485842 11.50528426 12.30856766 8.93142616 7.625 5.9375 C6.88894531 5.47794922 6.15289062 5.01839844 5.39453125 4.54492188 C3.57543224 3.39575079 1.78474077 2.2018385 0 1 C0 0.67 0 0.34 0 0 Z " fill="#FFFFFF" transform="translate(160,233)"/>
<path d="M0 0 C1.04414063 0.556875 2.08828125 1.11375 3.1640625 1.6875 C4.22367187 2.244375 5.28328125 2.80125 6.375 3.375 C7.17164063 3.808125 7.96828125 4.24125 8.7890625 4.6875 C8.7890625 5.6775 8.7890625 6.6675 8.7890625 7.6875 C5.7108533 6.5681512 3.0447891 5.2426805 0.2890625 3.5 C-3.61613803 1.47766401 -4.19586412 1.49918232 -8.2109375 2.6875 C-10.00701862 3.48721495 -11.77910262 4.34294586 -13.5234375 5.25 C-14.40644531 5.70503906 -15.28945313 6.16007813 -16.19921875 6.62890625 C-16.86308594 6.97824219 -17.52695312 7.32757813 -18.2109375 7.6875 C-18.5409375 6.6975 -18.8709375 5.7075 -19.2109375 4.6875 C-14.4609375 1.6875 -14.4609375 1.6875 -12.2109375 1.6875 C-12.2109375 1.0275 -12.2109375 0.3675 -12.2109375 -0.3125 C-7.65323125 -1.83173542 -4.47700042 -1.83001477 0 0 Z " fill="#FFFFFF" transform="translate(279.2109375,199.3125)"/>
<path d="M0 0 C1.75570312 0.02707031 1.75570312 0.02707031 3.546875 0.0546875 C4.88492188 0.08949219 4.88492188 0.08949219 6.25 0.125 C2.37678305 3.41316124 -1.64533265 5.91849086 -6.0625 8.375 C-6.70767578 8.73851562 -7.35285156 9.10203125 -8.01757812 9.4765625 C-9.59281416 10.36336205 -11.17109714 11.24474563 -12.75 12.125 C-12.75 10.475 -12.75 8.825 -12.75 7.125 C-11.1 6.465 -9.45 5.805 -7.75 5.125 C-8.74 4.135 -9.73 3.145 -10.75 2.125 C-7.15537669 -0.13498595 -4.18404325 -0.08368087 0 0 Z " fill="#FFFFFF" transform="translate(206.75,282.875)"/>
<path d="M0 0 C0.66 0.33 1.32 0.66 2 1 C-2.67017396 5.85359469 -7.97587658 9.05202471 -14 12 C-14.969375 12.70125 -15.93875 13.4025 -16.9375 14.125 C-20.38059113 16.23301498 -23.01027857 16.68082229 -27 17 C-19.71509853 10.89008264 -11.95889652 6.31356007 -3.40625 2.19921875 C-1.10589035 1.21171047 -1.10589035 1.21171047 0 0 Z " fill="#FFFFFF" transform="translate(283,342)"/>
<path d="M0 0 C0.66 0.33 1.32 0.66 2 1 C2 4.61656862 0.97869233 6.0319615 -1 9 C-1.66 9.66 -2.32 10.32 -3 11 C-2.34 11.33 -1.68 11.66 -1 12 C-1 12.66 -1 13.32 -1 14 C-1.99 14.33 -2.98 14.66 -4 15 C-6.5 12.6875 -6.5 12.6875 -9 10 C-9 9.01 -9 8.02 -9 7 C-7.03125 5.17578125 -7.03125 5.17578125 -4.5 3.3125 C-3.6646875 2.68988281 -2.829375 2.06726563 -1.96875 1.42578125 C-0.99421875 0.72001953 -0.99421875 0.72001953 0 0 Z " fill="#FFFFFF" transform="translate(195,228)"/>
<path d="M0 0 C1.3125 2.0625 1.3125 2.0625 2 4 C-2.75 3.125 -2.75 3.125 -5 2 C-10.77546493 0.98929364 -14.21601248 3.70342652 -18.828125 6.78515625 C-19.54484375 7.18605469 -20.2615625 7.58695313 -21 8 C-21.66 7.67 -22.32 7.34 -23 7 C-22.34 6.01 -21.68 5.02 -21 4 C-20.34 4 -19.68 4 -19 4 C-19 3.34 -19 2.68 -19 2 C-18.34 2 -17.68 2 -17 2 C-17 1.34 -17 0.68 -17 0 C-11.90812675 -1.69729108 -5.09513893 -1.79828433 0 0 Z " fill="#FFFFFF" transform="translate(109,200)"/>
<path d="M0 0 C0.66 0.33 1.32 0.66 2 1 C0.89184175 4.21365891 0.01470446 4.9914224 -3 6.75 C-6 8 -6 8 -8 8 C-8 8.66 -8 9.32 -8 10 C-9.73034298 10.73206818 -11.46072703 11.46403959 -13.19140625 12.1953125 C-15.09719754 13.00700819 -15.09719754 13.00700819 -17.1875 14.25 C-19.50419879 15.20863398 -20.64486602 14.68264753 -23 14 C-20.71125827 12.66141476 -18.41930344 11.32898986 -16.125 10 C-15.47402344 9.6184375 -14.82304687 9.236875 -14.15234375 8.84375 C-9.2265625 6 -9.2265625 6 -7 6 C-7 5.34 -7 4.68 -7 4 C-5.35 3.67 -3.7 3.34 -2 3 C-2 2.34 -2 1.68 -2 1 C-1.34 0.67 -0.68 0.34 0 0 Z " fill="#FFFFFF" transform="translate(223,377)"/>
<path d="M0 0 C1.23047495 0.60149768 2.45930984 1.2063507 3.6875 1.8125 C4.37199219 2.14894531 5.05648437 2.48539062 5.76171875 2.83203125 C8.24055128 4.12552327 10.60999686 5.54892666 13 7 C15.10252667 8.23196983 17.20673853 9.4610675 19.3125 10.6875 C20.38113281 11.31011719 21.44976562 11.93273437 22.55078125 12.57421875 C23.35902344 13.04472656 24.16726562 13.51523437 25 14 C21.05485492 15.97257254 15.16730438 14.21546378 11 13 C11 11.35 11 9.7 11 8 C10.071875 7.7834375 10.071875 7.7834375 9.125 7.5625 C7 7 7 7 5 6 C5 5.34 5 4.68 5 4 C2.525 3.01 2.525 3.01 0 2 C0 1.34 0 0.68 0 0 Z " fill="#1F69DC" transform="translate(128,264)"/>
<path d="M0 0 C2.64 0 5.28 0 8 0 C8.33 1.32 8.66 2.64 9 4 C9.515625 4.103125 10.03125 4.20625 10.5625 4.3125 C13.86026435 5.24263866 16.86633332 6.61395512 20 8 C20 8.66 20 9.32 20 10 C20.804375 10.268125 21.60875 10.53625 22.4375 10.8125 C23.283125 11.204375 24.12875 11.59625 25 12 C25.33 12.99 25.66 13.98 26 15 C22.05159017 13.64273412 18.81174201 11.67401156 15.328125 9.43359375 C11.75031914 7.23048175 8.03501581 5.29285653 4.3203125 3.33203125 C2 2 2 2 0 0 Z " fill="#2264C6" transform="translate(112,240)"/>
<path d="M0 0 C0 0.66 0 1.32 0 2 C-0.99 2 -1.98 2 -3 2 C-3.2475 2.598125 -3.495 3.19625 -3.75 3.8125 C-6.38063029 8.41610301 -10.1584537 9.4212349 -15 11 C-15.66 11.66 -16.32 12.32 -17 13 C-18.32 13 -19.64 13 -21 13 C-21.33 13.66 -21.66 14.32 -22 15 C-22.66 14.34 -23.32 13.68 -24 13 C-3.12903226 0 -3.12903226 0 0 0 Z " fill="#FFFFFF" transform="translate(256,245)"/>
<path d="M0 0 C3.53823027 1.32211452 6.66194804 2.89378905 9.875 4.875 C13.88040622 7.32141577 17.91423808 9.6906563 22 12 C20.3125 12.6875 20.3125 12.6875 18 13 C17.2575 12.54625 16.515 12.0925 15.75 11.625 C12.09853184 9.46731427 9.205974 9.35643847 5 9 C5.33 7.35 5.66 5.7 6 4 C5.071875 3.7834375 5.071875 3.7834375 4.125 3.5625 C2 3 2 3 0 2 C0 1.34 0 0.68 0 0 Z " fill="#2269D7" transform="translate(153,279)"/>
<path d="M0 0 C0.66 0.33 1.32 0.66 2 1 C1.34 2.32 0.68 3.64 0 5 C-1.65 5 -3.3 5 -5 5 C-5 5.66 -5 6.32 -5 7 C-5.56589844 7.26554688 -6.13179688 7.53109375 -6.71484375 7.8046875 C-7.44832031 8.15789062 -8.18179687 8.51109375 -8.9375 8.875 C-10.03384766 9.39707031 -10.03384766 9.39707031 -11.15234375 9.9296875 C-13.16332459 10.8684977 -13.16332459 10.8684977 -14 13 C-14.66 13 -15.32 13 -16 13 C-16 13.66 -16 14.32 -16 15 C-18.97 14.505 -18.97 14.505 -22 14 C-19.80362897 11.80362897 -17.69162845 10.55516311 -15 9 C-14.1028125 8.46439453 -14.1028125 8.46439453 -13.1875 7.91796875 C-8.23829505 5 -8.23829505 5 -6 5 C-6 4.34 -6 3.68 -6 3 C-4.03533587 1.93224776 -2.03144641 0.93446535 0 0 Z " fill="#FFFFFF" transform="translate(278,231)"/>
<path d="M0 0 C-7.29238449 4.40447116 -14.63301685 8.72158023 -22 13 C-22.66 12.34 -23.32 11.68 -24 11 C-24 10.01 -24 9.02 -24 8 C-22.9275 7.855625 -21.855 7.71125 -20.75 7.5625 C-18.08337051 7.16250558 -15.58600271 6.72408076 -13 6 C-13 5.34 -13 4.68 -13 4 C-12.401875 3.896875 -11.80375 3.79375 -11.1875 3.6875 C-8.69130983 2.90298309 -7.74268135 1.90110692 -6 0 C-3.50907189 -1.24546405 -2.58919267 -0.7767578 0 0 Z " fill="#FFFFFF" transform="translate(240,268)"/>
<path d="M0 0 C-0.70125 0.37511719 -1.4025 0.75023437 -2.125 1.13671875 C-3.548125 1.90435547 -3.548125 1.90435547 -5 2.6875 C-6.00289062 3.22761719 -7.00578125 3.76773438 -8.0390625 4.32421875 C-10.59617664 5.7714509 -12.96604355 7.32480615 -15.375 9 C-18.61166844 11.07597791 -18.61166844 11.07597791 -21.875 10.4375 C-24 9 -24 9 -26 7 C-22.7 7 -19.4 7 -16 7 C-16 6.34 -16 5.68 -16 5 C-15.34 5 -14.68 5 -14 5 C-14 4.34 -14 3.68 -14 3 C-12.63875 2.566875 -12.63875 2.566875 -11.25 2.125 C-8.11697634 1.14690572 -8.11697634 1.14690572 -5.875 -0.1875 C-3.50401958 -1.21492485 -2.42158082 -0.70838775 0 0 Z " fill="#FFFFFF" transform="translate(208,239)"/>
<path d="M0 0 C3.04943715 1.15801411 5.5628673 2.69866207 8.28125 4.5 C9.25707031 5.14066406 10.23289062 5.78132812 11.23828125 6.44140625 C11.97433594 6.93511719 12.71039063 7.42882812 13.46875 7.9375 C12.47875 8.4325 12.47875 8.4325 11.46875 8.9375 C9.515625 7.9765625 9.515625 7.9765625 7.21875 6.5625 C3.61058315 4.45822176 0.69852479 3.26286729 -3.53125 2.9375 C-3.53125 3.5975 -3.53125 4.2575 -3.53125 4.9375 C-10.49553571 8.28571429 -10.49553571 8.28571429 -14.53125 6.9375 C-12.64667462 5.73221335 -10.74807415 4.54883551 -8.84375 3.375 C-7.78800781 2.71371094 -6.73226563 2.05242187 -5.64453125 1.37109375 C-2.53125 -0.0625 -2.53125 -0.0625 0 0 Z " fill="#2963C2" transform="translate(275.53125,200.0625)"/>
<path d="M0 0 C-4.625 3 -4.625 3 -8 3 C-8.33 3.99 -8.66 4.98 -9 6 C-13.40956717 8.61818051 -18.04606469 8.19427197 -23 8 C-23 7.67 -23 7.34 -23 7 C-20.69 7 -18.38 7 -16 7 C-15.67 5.35 -15.34 3.7 -15 2 C-14.37351563 1.86722656 -13.74703125 1.73445313 -13.1015625 1.59765625 C-12.28429687 1.42105469 -11.46703125 1.24445313 -10.625 1.0625 C-9.40683594 0.80146484 -9.40683594 0.80146484 -8.1640625 0.53515625 C-2.71108179 -0.81332454 -2.71108179 -0.81332454 0 0 Z " fill="#2167D6" transform="translate(208,273)"/>
<path d="M0 0 C-0.66 0 -1.32 0 -2 0 C-2.33 0.66 -2.66 1.32 -3 2 C-5.87378924 4.87378924 -9.20460572 5.89301 -13 7 C-13.99 7 -14.98 7 -16 7 C-16 5.35 -16 3.7 -16 2 C-14.08654673 1.46748234 -12.1690705 0.94940517 -10.25 0.4375 C-9.18265625 0.14746094 -8.1153125 -0.14257812 -7.015625 -0.44140625 C-4.15664073 -0.97098494 -2.68402617 -0.98370862 0 0 Z " fill="#E3E4E5" transform="translate(142,153)"/>
<path d="M0 0 C8.4 0.98823529 8.4 0.98823529 12 3 C12.8125 5.125 12.8125 5.125 13 7 C14.11375 7.2475 15.2275 7.495 16.375 7.75 C20 9 20 9 21.4375 11.125 C21.623125 11.74375 21.80875 12.3625 22 13 C14.27595973 10.25921152 6.67867274 5.73148477 0 1 C0 0.67 0 0.34 0 0 Z " fill="#FFFFFF" transform="translate(157,280)"/>
<path d="M0 0 C2.64 0 5.28 0 8 0 C8.20367187 0.59296875 8.40734375 1.1859375 8.6171875 1.796875 C10.55744992 4.88814055 12.84891424 5.71651305 16.125 7.25 C17.22070312 7.77078125 18.31640625 8.2915625 19.4453125 8.828125 C20.28835937 9.21484375 21.13140625 9.6015625 22 10 C22 10.99 22 11.98 22 13 C21.34 13 20.68 13 20 13 C20 12.34 20 11.68 20 11 C19.278125 10.89300781 18.55625 10.78601563 17.8125 10.67578125 C11.20535581 9.08823133 5.07215454 4.39586727 0 0 Z " fill="#2562C0" transform="translate(126,362)"/>
<path d="M0 0 C4.73474097 1.6996506 8.96167111 4.13659027 13.3125 6.625 C14.05306641 7.04523438 14.79363281 7.46546875 15.55664062 7.8984375 C17.37269011 8.92948495 19.18656533 9.96436046 21 11 C17.29218328 12.23593891 16.32489747 11.5678132 12.8125 10.0625 C11.91144531 9.68222656 11.01039063 9.30195313 10.08203125 8.91015625 C9.39496094 8.60980469 8.70789063 8.30945313 8 8 C8 7.34 8 6.68 8 6 C7.236875 5.855625 6.47375 5.71125 5.6875 5.5625 C3 5 3 5 0 4 C0 2.68 0 1.36 0 0 Z " fill="#2369D7" transform="translate(144,225)"/>
<path d="M0 0 C5 2 5 2 10 4 C10 4.66 10 5.32 10 6 C10.78375 6.20625 11.5675 6.4125 12.375 6.625 C17.29273755 8.49034873 21.55842103 11.20865195 26 14 C25.01 14.33 24.02 14.66 23 15 C21.23828125 14.109375 21.23828125 14.109375 19.3125 12.75 C16.52761276 10.89170208 13.98318503 9.51241027 10.8125 8.4375 C7.27246905 7.22039702 4.8244836 5.49219141 2 3 C1.34 2.67 0.68 2.34 0 2 C0 1.34 0 0.68 0 0 Z " fill="#296ACF" transform="translate(116,209)"/>
<path d="M0 0 C-0.81082031 0.42410156 -1.62164062 0.84820312 -2.45703125 1.28515625 C-9.13511142 4.82243969 -15.55761054 8.51934523 -21.85546875 12.71484375 C-24 14 -24 14 -26 14 C-25.67 13.01 -25.34 12.02 -25 11 C-24.01 11 -23.02 11 -22 11 C-21.67 10.01 -21.34 9.02 -21 8 C-19.35965807 7.27095914 -17.68698082 6.61344757 -16 6 C-15.154375 5.484375 -14.30875 4.96875 -13.4375 4.4375 C-11.21853522 3.12887975 -9.50924843 2.46467564 -7 2 C-7 1.34 -7 0.68 -7 0 C-3.98968256 -0.93423645 -3.13349732 -1.04449911 0 0 Z " fill="#2661C2" transform="translate(282,344)"/>
<path d="M0 0 C7.56159465 3.6302346 14.79707766 7.70547414 22 12 C21.01 12.66 20.02 13.32 19 14 C17.68176698 13.40844669 16.37052949 12.80128537 15.0625 12.1875 C14.33160156 11.85105469 13.60070312 11.51460937 12.84765625 11.16796875 C11 10 11 10 10 7 C8.01363702 6.29373761 6.01151741 5.63106429 4 5 C1.625 3.5 1.625 3.5 0 2 C0 1.34 0 0.68 0 0 Z " fill="#2A65C2" transform="translate(165,237)"/>
<path d="M0 0 C7.92 3.96 7.92 3.96 16 8 C16 8.66 16 9.32 16 10 C17.98 10.66 19.96 11.32 22 12 C17.82412255 13.39195915 15.86525224 11.82323219 12 10 C12 9.34 12 8.68 12 8 C11.30132812 7.80664062 10.60265625 7.61328125 9.8828125 7.4140625 C8.51769531 7.02347656 8.51769531 7.02347656 7.125 6.625 C6.22007812 6.36976563 5.31515625 6.11453125 4.3828125 5.8515625 C2 5 2 5 0 3 C0 2.01 0 1.02 0 0 Z " fill="#FFFFFF" transform="translate(156,266)"/>
<path d="M0 0 C3.3125 -0.25 3.3125 -0.25 7 0 C8.625 1.875 8.625 1.875 10 4 C12.58498512 5.26847685 12.58498512 5.26847685 15 6 C15 6.66 15 7.32 15 8 C16.32 8.66 17.64 9.32 19 10 C18.01 10.495 18.01 10.495 17 11 C15.1171875 10.1796875 15.1171875 10.1796875 12.875 8.875 C12.07964844 8.41351563 11.28429687 7.95203125 10.46484375 7.4765625 C9.65144531 6.98929687 8.83804688 6.50203125 8 6 C7.21753906 5.53335937 6.43507812 5.06671875 5.62890625 4.5859375 C1.56253686 2.10697434 1.56253686 2.10697434 0 1 C0 0.67 0 0.34 0 0 Z " fill="#2560BC" transform="translate(157,380)"/>
<path d="M0 0 C7.50537495 2.85530569 14.991867 6.613398 21 12 C18.03 11.505 18.03 11.505 15 11 C15 10.34 15 9.68 15 9 C12.36 8.67 9.72 8.34 7 8 C7 7.34 7 6.68 7 6 C6.030625 5.566875 5.06125 5.13375 4.0625 4.6875 C1 3 1 3 0 0 Z " fill="#FFFFFF" transform="translate(112,241)"/>
<path d="M0 0 C0.66 0.33 1.32 0.66 2 1 C0.65774581 5.02676256 -1.38942276 5.99028066 -4.921875 8.125 C-7 9 -7 9 -10 8.3125 C-10.66 7.879375 -11.32 7.44625 -12 7 C-12 6.34 -12 5.68 -12 5 C-9.69 5 -7.38 5 -5 5 C-4.731875 4.360625 -4.46375 3.72125 -4.1875 3.0625 C-3 1 -3 1 0 0 Z " fill="#F1F2F1" transform="translate(196,224)"/>
<path d="M0 0 C6.88411391 3.30967015 13.43279372 7.10345761 20 11 C19.67 11.66 19.34 12.32 19 13 C18.34 13 17.68 13 17 13 C16.67 12.34 16.34 11.68 16 11 C15.21625 10.855625 14.4325 10.71125 13.625 10.5625 C10.63072641 9.92086995 10.05608172 9.14175179 8 7 C5.40084462 5.80972016 5.40084462 5.80972016 3 5 C3 4.34 3 3.68 3 3 C2.01 2.67 1.02 2.34 0 2 C0 1.34 0 0.68 0 0 Z " fill="#FFFFFF" transform="translate(93,343)"/>
<path d="M0 0 C0 0.99 0 1.98 0 3 C-0.66 3 -1.32 3 -2 3 C-2 3.66 -2 4.32 -2 5 C-2.99 5 -3.98 5 -5 5 C-5 5.66 -5 6.32 -5 7 C-12.42857143 9.42857143 -12.42857143 9.42857143 -16 8 C-10.25 5 -10.25 5 -8 5 C-8 4.34 -8 3.68 -8 3 C-2.25 0 -2.25 0 0 0 Z " fill="#FFFFFF" transform="translate(256,359)"/>
<path d="M0 0 C0.75 1.75 0.75 1.75 1 4 C-1.91493715 7.48649345 -5.32239106 9.53004712 -9.25 11.75 C-10.86648438 12.67039062 -10.86648438 12.67039062 -12.515625 13.609375 C-13.74539063 14.29773438 -13.74539063 14.29773438 -15 15 C-15 14.01 -15 13.02 -15 12 C-12.41094058 10.05820544 -9.92330641 8.39170575 -6.9375 7.125 C-3.90037119 5.36150585 -2.15506696 2.75369667 0 0 Z " fill="#2462C9" transform="translate(298,328)"/>
<path d="M0 0 C5.75 0.75 5.75 0.75 8 3 C8.99 3.268125 9.98 3.53625 11 3.8125 C14 5 14 5 15.375 7.625 C15.58125 8.40875 15.7875 9.1925 16 10 C14.68 9.67 13.36 9.34 12 9 C12 8.34 12 7.68 12 7 C11.13375 6.7525 10.2675 6.505 9.375 6.25 C5.80481983 4.92771105 3.05577189 3.25545068 0 1 C0 0.67 0 0.34 0 0 Z " fill="#FFFFFF" transform="translate(114,206)"/>
<path d="M0 0 C4.14605001 -0.32789499 6.10429971 0.37052973 9.4375 2.8125 C12.87102085 5.24122796 16.18634578 7.2398519 20 9 C16.71023192 10.09658936 15.28696233 9.79953138 12 9 C12 8.01 12 7.02 12 6 C10.824375 5.814375 10.824375 5.814375 9.625 5.625 C7 5 7 5 5 3 C2.41645782 2.83312552 2.41645782 2.83312552 0 3 C0 2.01 0 1.02 0 0 Z " fill="#2A66C9" transform="translate(76,236)"/>
<path d="M0 0 C6.7559102 0.79481297 11.48820305 1.65268509 16 7 C16 7.66 16 8.32 16 9 C10.0942118 7.44584521 5.02261107 4.40465533 0 1 C0 0.67 0 0.34 0 0 Z " fill="#FFFFFF" transform="translate(144,224)"/>
<path d="M0 0 C-1.10815825 3.21365891 -1.98529554 3.9914224 -5 5.75 C-8 7 -8 7 -10 7 C-10 7.66 -10 8.32 -10 9 C-13.47307692 11.10865385 -13.47307692 11.10865385 -16.140625 10.55859375 C-17.06101563 10.28208984 -17.06101563 10.28208984 -18 10 C-17.34773437 9.61328125 -16.69546875 9.2265625 -16.0234375 8.828125 C-10.17937097 5.35610963 -10.17937097 5.35610963 -4.5 1.625 C-2 0 -2 0 0 0 Z " fill="#1F55B4" transform="translate(242,267)"/>
<path d="M0 0 C0.66 0.33 1.32 0.66 2 1 C1.67 1.66 1.34 2.32 1 3 C-1.5625 3.625 -1.5625 3.625 -4 4 C-4.33 4.99 -4.66 5.98 -5 7 C-7.31 7.33 -9.62 7.66 -12 8 C-12 8.66 -12 9.32 -12 10 C-13.32 9.67 -14.64 9.34 -16 9 C-13.70870707 7.68684387 -11.4169845 6.37444807 -9.125 5.0625 C-8.47402344 4.68931641 -7.82304687 4.31613281 -7.15234375 3.93164062 C-2.2265625 1.11328125 -2.2265625 1.11328125 0 0 Z " fill="#FFFFFF" transform="translate(296,221)"/>
<path d="M0 0 C1.65 0 3.3 0 5 0 C5.33 0.66 5.66 1.32 6 2 C4.54550599 3.0055761 3.08627557 4.00430435 1.625 5 C0.40683594 5.8353125 0.40683594 5.8353125 -0.8359375 6.6875 C-3 8 -3 8 -5 8 C-5 6.35 -5 4.7 -5 3 C-3.35 2.67 -1.7 2.34 0 2 C0 1.34 0 0.68 0 0 Z " fill="#EDF2F4" transform="translate(223,208)"/>
<path d="M0 0 C4.96539506 0.47289477 8.26824778 1.62365276 12 5 C12.375 8.75 12.375 8.75 12 12 C11.01 12 10.02 12 9 12 C9.0928125 11.24203125 9.185625 10.4840625 9.28125 9.703125 C9.29159673 6.8640332 9.29159673 6.8640332 7.03125 5.234375 C6.1959375 4.74453125 5.360625 4.2546875 4.5 3.75 C2.99177639 2.84692784 1.48938232 1.93381908 0 1 C0 0.67 0 0.34 0 0 Z " fill="#FFFFFF" transform="translate(289,208)"/>
<path d="M0 0 C1.98 0 3.96 0 6 0 C6.33 0.66 6.66 1.32 7 2 C8.88013106 3.12224855 8.88013106 3.12224855 11.0625 4.125 C11.79597656 4.47820312 12.52945313 4.83140625 13.28515625 5.1953125 C14.13400391 5.59363281 14.13400391 5.59363281 15 6 C15 6.99 15 7.98 15 9 C9.26800429 7.53025751 4.66416601 4.55513098 0 1 C0 0.67 0 0.34 0 0 Z " fill="#FFFFFF" transform="translate(81,236)"/>
<path d="M0 0 C0.33 1.32 0.66 2.64 1 4 C-1.58789062 5.07421875 -1.58789062 5.07421875 -4.17578125 6.1484375 C-6.26533932 7.06806692 -6.26533932 7.06806692 -9 9 C-11.6875 9.125 -11.6875 9.125 -14 9 C-9.7045025 5.25876024 -5.00099548 2.65848126 0 0 Z " fill="#FFFFFF" transform="translate(239,368)"/>
<path d="M0 0 C0.99 0 1.98 0 3 0 C3 0.66 3 1.32 3 2 C1.27281484 2.96189997 -0.45684058 3.91936508 -2.1875 4.875 C-3.15042969 5.40867187 -4.11335937 5.94234375 -5.10546875 6.4921875 C-7.69739518 7.8423678 -10.26761098 8.97098329 -13 10 C-12.84375 8.16796875 -12.84375 8.16796875 -12 6 C-9.53125 4.55078125 -9.53125 4.55078125 -6.5 3.3125 C-2.99503654 2.06059082 -2.99503654 2.06059082 0 0 Z " fill="#2966C7" transform="translate(221,262)"/>
<path d="M0 0 C1.98 0 3.96 0 6 0 C6.33 0.99 6.66 1.98 7 3 C8.32 3 9.64 3 11 3 C13.25 5.5 13.25 5.5 15 8 C11.07573665 8 9.17100092 6.55673531 5.8125 4.5625 C4.72582031 3.92441406 3.63914062 3.28632813 2.51953125 2.62890625 C1.68808594 2.09136719 0.85664062 1.55382812 0 1 C0 0.67 0 0.34 0 0 Z " fill="#2661BD" transform="translate(97,231)"/>
<path d="M0 0 C-1.16369126 3.49107379 -1.88973538 3.85222763 -4.9375 5.6875 C-5.64777344 6.12449219 -6.35804688 6.56148437 -7.08984375 7.01171875 C-9 8 -9 8 -11 8 C-11 7.34 -11 6.68 -11 6 C-10.34 5.67 -9.68 5.34 -9 5 C-9 3.68 -9 2.36 -9 1 C-5.94152152 0.45627049 -3.11227195 0 0 0 Z " fill="#236DE0" transform="translate(289,223)"/>
<path d="M0 0 C-5.75 3 -5.75 3 -8 3 C-8 3.66 -8 4.32 -8 5 C-13.75 8 -13.75 8 -16 8 C-16 7.01 -16 6.02 -16 5 C-14.02 4.67 -12.04 4.34 -10 4 C-10.33 3.01 -10.66 2.02 -11 1 C-3.57142857 -1.42857143 -3.57142857 -1.42857143 0 0 Z " fill="#2362C7" transform="translate(256,359)"/>
<path d="M0 0 C0.66 0.33 1.32 0.66 2 1 C2 4.61537605 1.10770759 6.11165997 -1 9 C-1.99 9 -2.98 9 -4 9 C-4.33 7.35 -4.66 5.7 -5 4 C-3.35 2.68 -1.7 1.36 0 0 Z " fill="#FFFFFF" transform="translate(195,228)"/>
<path d="M0 0 C3.54792984 1.30383288 6.51253206 2.86084678 9.625 5 C10.38039062 5.515625 11.13578125 6.03125 11.9140625 6.5625 C12.60242188 7.036875 13.29078125 7.51125 14 8 C14.99 8.66 15.98 9.32 17 10 C15.35 10 13.7 10 12 10 C11.67 9.01 11.34 8.02 11 7 C8.95085546 6.38035162 8.95085546 6.38035162 6.5625 6.125 C4.1015625 5.671875 4.1015625 5.671875 2 5 C0.4375 2.375 0.4375 2.375 0 0 Z " fill="#FFFFFF" transform="translate(152,378)"/>
<path d="M0 0 C0.33 0 0.66 0 1 0 C1.03738281 0.75925781 1.07476562 1.51851563 1.11328125 2.30078125 C1.17902344 3.29464844 1.24476562 4.28851563 1.3125 5.3125 C1.37050781 6.29863281 1.42851563 7.28476562 1.48828125 8.30078125 C2.05167269 11.27256359 2.57656486 12.24974129 5 14 C5.845625 14.12375 6.69125 14.2475 7.5625 14.375 C8.366875 14.58125 9.17125 14.7875 10 15 C11.3125 17.5625 11.3125 17.5625 12 20 C7.58342362 17.96158013 3.44742258 15.44742258 0 12 C-0.1953125 9.1796875 -0.1953125 9.1796875 -0.125 5.875 C-0.10695313 4.77929688 -0.08890625 3.68359375 -0.0703125 2.5546875 C-0.04710938 1.71164062 -0.02390625 0.86859375 0 0 Z " fill="#2864BE" transform="translate(76,320)"/>
<path d="M0 0 C3.3 0.33 6.6 0.66 10 1 C10.66 2.98 11.32 4.96 12 7 C7.39104317 5.68315519 3.85859765 3.84801255 0 1 C0 0.67 0 0.34 0 0 Z " fill="#FFFFFF" transform="translate(107,251)"/>
<path d="M0 0 C0.66 0.33 1.32 0.66 2 1 C0.5361389 5.39158329 -1.97831338 5.87947433 -6 8 C-6.99 7.01 -7.98 6.02 -9 5 C-7.54735962 4.1361871 -6.0876837 3.28419546 -4.625 2.4375 C-3.40683594 1.72400391 -3.40683594 1.72400391 -2.1640625 0.99609375 C-1.44992188 0.66738281 -0.73578125 0.33867187 0 0 Z " fill="#FFFFFF" transform="translate(246,200)"/>
<path d="M0 0 C-3.08809695 1.76462683 -4.23312136 2 -8 2 C-8 3.32 -8 4.64 -8 6 C-11.465 7.485 -11.465 7.485 -15 9 C-15.33 8.01 -15.66 7.02 -16 6 C-11.25 3 -11.25 3 -9 3 C-9 2.34 -9 1.68 -9 1 C-5.8035914 -0.06546953 -3.34252724 -0.07427838 0 0 Z " fill="#FFFFFF" transform="translate(276,198)"/>
<path d="M0 0 C0 1.98 0 3.96 0 6 C-0.99 6 -1.98 6 -3 6 C-3 5.34 -3 4.68 -3 4 C-5.97 3.67 -8.94 3.34 -12 3 C-12 2.67 -12 2.34 -12 2 C-10.7625 1.67 -9.525 1.34 -8.25 1 C-7.55390625 0.814375 -6.8578125 0.62875 -6.140625 0.4375 C-4 0 -4 0 0 0 Z " fill="#DEE2E3" transform="translate(204,114)"/>
<path d="M0 0 C4.16056673 1.68022887 7.42299806 3.28641232 11 6 C13.14733927 6.70514846 13.14733927 6.70514846 15 7 C15 7.66 15 8.32 15 9 C10.64477147 8.49357808 7.55760365 7.61588503 4 5 C4 4.34 4 3.68 4 3 C2.68 2.67 1.36 2.34 0 2 C0 1.34 0 0.68 0 0 Z " fill="#FFFFFF" transform="translate(131,366)"/>
<path d="M0 0 C3.96 1.98 7.92 3.96 12 6 C12 6.99 12 7.98 12 9 C8.5625 7.6875 8.5625 7.6875 5 6 C4.67 5.01 4.34 4.02 4 3 C2.35 3 0.7 3 -1 3 C-0.67 2.01 -0.34 1.02 0 0 Z " fill="#FFFFFF" transform="translate(92,229)"/>
<path d="M0 0 C0 0.66 0 1.32 0 2 C0.66 2.33 1.32 2.66 2 3 C-0.31 3.66 -2.62 4.32 -5 5 C-5.99 4.01 -6.98 3.02 -8 2 C-6.14210462 -1.71579076 -3.44525918 -1.06921837 0 0 Z " fill="#F3F3F1" transform="translate(187,225)"/>
<path d="M0 0 C1.6266848 0.28211877 3.25132896 0.57602375 4.875 0.875 C5.77992188 1.03742188 6.68484375 1.19984375 7.6171875 1.3671875 C10 2 10 2 12 4 C12 4.99 12 5.98 12 7 C7.39104317 5.68315519 3.85859765 3.84801255 0 1 C0 0.67 0 0.34 0 0 Z " fill="#FFFFFF" transform="translate(170,239)"/>
<path d="M0 0 C5.32938809 0.33671515 9.62826633 0.615432 14 4 C14 4.33 14 4.66 14 5 C4.82713348 4.64989059 4.82713348 4.64989059 1.375 1.9375 C0.92125 1.298125 0.4675 0.65875 0 0 Z " fill="#1B63D8" transform="translate(113,259)"/>
<path d="M0 0 C0.66 0.33 1.32 0.66 2 1 C0.25626032 4.01191399 -1.11847904 5.72504283 -4.4921875 6.77734375 C-6.99049108 7.26214204 -9.47590991 7.67726329 -12 8 C-9.72254211 5.51017465 -7.37664762 3.89631003 -4.4375 2.25 C-3.65246094 1.80140625 -2.86742187 1.3528125 -2.05859375 0.890625 C-1.37925781 0.59671875 -0.69992188 0.3028125 0 0 Z " fill="#205EBB" transform="translate(233,223)"/>
<path d="M0 0 C1.98 0 3.96 0 6 0 C6.33 0.99 6.66 1.98 7 3 C7.66 3 8.32 3 9 3 C9 3.66 9 4.32 9 5 C10.32 5.33 11.64 5.66 13 6 C13 6.66 13 7.32 13 8 C8.27626146 6.37621488 4.05818166 3.89006982 0 1 C0 0.67 0 0.34 0 0 Z " fill="#2166C5" transform="translate(113,354)"/>
<path d="M0 0 C7.45155855 0.61078349 7.45155855 0.61078349 9.9375 2.375 C11 4 11 4 12 7 C7.69235185 5.43358249 3.93828536 3.31663844 0 1 C0 0.67 0 0.34 0 0 Z " fill="#FFFFFF" transform="translate(134,267)"/>
<path d="M0 0 C0 0.66 0 1.32 0 2 C-1.43011973 2.86646667 -2.86940619 3.71781829 -4.3125 4.5625 C-5.51326172 5.27599609 -5.51326172 5.27599609 -6.73828125 6.00390625 C-9 7 -9 7 -12 6 C-11.34 5.67 -10.68 5.34 -10 5 C-9.67 4.01 -9.34 3.02 -9 2 C-5.67908998 0.29466783 -3.81507216 0 0 0 Z " fill="#2668D2" transform="translate(272,234)"/>
<path d="M0 0 C2.9375 0.375 2.9375 0.375 6 1 C6.33 1.66 6.66 2.32 7 3 C9.52733235 3.65555119 9.52733235 3.65555119 12 4 C12.33 5.32 12.66 6.64 13 8 C8.27626146 6.37621488 4.05818166 3.89006982 0 1 C0 0.67 0 0.34 0 0 Z " fill="#FFFFFF" transform="translate(131,216)"/>
<path d="M0 0 C-3.19990508 2.74277578 -6.00499382 4.6302836 -10 6 C-10 3 -10 3 -8.75 1.375 C-5.61920791 -1.08490807 -3.76033583 -1.25344528 0 0 Z " fill="#FFFFFF" transform="translate(250,213)"/>
<path d="M0 0 C-1.62170379 1.00533667 -3.24747237 2.00411907 -4.875 3 C-6.23238281 3.8353125 -6.23238281 3.8353125 -7.6171875 4.6875 C-10 6 -10 6 -12 6 C-12 5.01 -12 4.02 -12 3 C-11.01 3 -10.02 3 -9 3 C-9 2.01 -9 1.02 -9 0 C-3.375 -1.125 -3.375 -1.125 0 0 Z " fill="#FFFFFF" transform="translate(213,284)"/>
<path d="M0 0 C1.299375 0.7115625 1.299375 0.7115625 2.625 1.4375 C5.85387374 2.93234895 8.49033826 3.58218313 12 4 C12 4.33 12 4.66 12 5 C10.56359829 5.19573608 9.12580496 5.38127816 7.6875 5.5625 C6.88699219 5.66691406 6.08648437 5.77132813 5.26171875 5.87890625 C3 6 3 6 0 5 C0 3.35 0 1.7 0 0 Z " fill="#FFFFFF" transform="translate(179,279)"/>
<path d="M0 0 C0.66 0.33 1.32 0.66 2 1 C-1.14272231 4.41209851 -3.57129956 6.56366472 -8 8 C-8.99 8.495 -8.99 8.495 -10 9 C-10.66 8.34 -11.32 7.68 -12 7 C-10.04754815 5.80285445 -8.08785003 4.61751926 -6.125 3.4375 C-5.03445312 2.77621094 -3.94390625 2.11492187 -2.8203125 1.43359375 C-1.88960937 0.96050781 -0.95890625 0.48742187 0 0 Z " fill="#1C51AF" transform="translate(254,259)"/>
<path d="M0 0 C5.75 0.875 5.75 0.875 8 2 C8 2.66 8 3.32 8 4 C5.36 4.66 2.72 5.32 0 6 C0.66 4.35 1.32 2.7 2 1 C1.34 0.67 0.68 0.34 0 0 Z " fill="#FFFFFF" transform="translate(144,375)"/>
<path d="M0 0 C0.66 0.33 1.32 0.66 2 1 C0.92130607 1.96355244 -0.16318743 2.92061417 -1.25 3.875 C-1.85328125 4.40867187 -2.4565625 4.94234375 -3.078125 5.4921875 C-5.03165008 7.02483116 -6.66785362 8.14126393 -9 9 C-11.25 8.625 -11.25 8.625 -13 8 C-12.43410156 7.73445313 -11.86820313 7.46890625 -11.28515625 7.1953125 C-10.55167969 6.84210938 -9.81820312 6.48890625 -9.0625 6.125 C-8.33160156 5.77695312 -7.60070312 5.42890625 -6.84765625 5.0703125 C-4.83667541 4.1315023 -4.83667541 4.1315023 -4 2 C-2.0625 0.8125 -2.0625 0.8125 0 0 Z " fill="#FFFFFF" transform="translate(204,274)"/>
<path d="M0 0 C11.73786408 5.73786408 11.73786408 5.73786408 15 9 C8.375 8.25 8.375 8.25 5 6 C5 5.34 5 4.68 5 4 C2.525 3.01 2.525 3.01 0 2 C0 1.34 0 0.68 0 0 Z " fill="#2567C9" transform="translate(128,264)"/>
<path d="M0 0 C0.66 0.33 1.32 0.66 2 1 C-4.7037037 7.7037037 -4.7037037 7.7037037 -9 8 C-9.66 7.34 -10.32 6.68 -11 6 C-9.21385682 4.96953278 -7.42089982 3.95086764 -5.625 2.9375 C-4.62726563 2.36902344 -3.62953125 1.80054687 -2.6015625 1.21484375 C-1.74304688 0.81394531 -0.88453125 0.41304688 0 0 Z " fill="#D1D4D5" transform="translate(245,72)"/>
<path d="M0 0 C0.8971875 0.309375 0.8971875 0.309375 1.8125 0.625 C0.8225 0.955 -0.1675 1.285 -1.1875 1.625 C-1.5175 3.605 -1.8475 5.585 -2.1875 7.625 C-4.4975 6.965 -6.8075 6.305 -9.1875 5.625 C-3.21691176 -0.55147059 -3.21691176 -0.55147059 0 0 Z " fill="#0F64DE" transform="translate(226.1875,278.375)"/>
<path d="M0 0 C-1.0799689 3.13190982 -2.00950474 4.00599212 -4.875 5.8125 C-8.1457197 7.05537349 -8.84860486 7.00271664 -12 6 C-10.37829621 4.99466333 -8.75252763 3.99588093 -7.125 3 C-5.76761719 2.1646875 -5.76761719 2.1646875 -4.3828125 1.3125 C-2 0 -2 0 0 0 Z " fill="#FFFFFF" transform="translate(218,267)"/>
<path d="M0 0 C1.875 0.125 1.875 0.125 4 1 C5.25 4.0625 5.25 4.0625 6 7 C1.25 5.125 1.25 5.125 -1 4 C-0.67 2.68 -0.34 1.36 0 0 Z " fill="#E4E7E6" transform="translate(127,194)"/>
<path d="M0 0 C1.32 0 2.64 0 4 0 C4 0.66 4 1.32 4 2 C4.804375 2.268125 5.60875 2.53625 6.4375 2.8125 C7.7059375 3.4003125 7.7059375 3.4003125 9 4 C9.33 4.99 9.66 5.98 10 7 C6.4124787 5.66749209 3.1635377 4.169283 0 2 C0 1.34 0 0.68 0 0 Z " fill="#1E5EBC" transform="translate(128,248)"/>
<path d="M0 0 C0.33 0 0.66 0 1 0 C1 1.65 1 3.3 1 5 C-2.465 6.485 -2.465 6.485 -6 8 C-5.67 6.35 -5.34 4.7 -5 3 C-4.01 3 -3.02 3 -2 3 C-1.67 2.34 -1.34 1.68 -1 1 C-0.67 0.67 -0.34 0.34 0 0 Z " fill="#D7DADD" transform="translate(253,192)"/>
<path d="M0 0 C1.051875 0.680625 1.051875 0.680625 2.125 1.375 C5.02984591 3.01686943 7.8139348 4.03677099 11 5 C11 5.66 11 6.32 11 7 C10.01 7 9.02 7 8 7 C8 6.34 8 5.68 8 5 C5.36 5 2.72 5 0 5 C0 3.35 0 1.7 0 0 Z " fill="#FFFFFF" transform="translate(81,336)"/>
<path d="M0 0 C0.93423645 3.01031744 1.04449911 3.86650268 0 7 C-2.475 6.01 -2.475 6.01 -5 5 C-4.67 3.68 -4.34 2.36 -4 1 C-2.68 0.67 -1.36 0.34 0 0 Z " fill="#FFFFFF" transform="translate(220,269)"/>
<path d="M0 0 C1.44010481 0.25662245 2.8770687 0.53090821 4.3125 0.8125 C5.11300781 0.96332031 5.91351563 1.11414063 6.73828125 1.26953125 C9.23445587 2.07572236 10.32422106 3.02052002 12 5 C9 6 9 6 6.9921875 5.29296875 C6.29351562 4.92816406 5.59484375 4.56335938 4.875 4.1875 C4.17117187 3.83042969 3.46734375 3.47335938 2.7421875 3.10546875 C1 2 1 2 0 0 Z " fill="#246BD6" transform="translate(175,245)"/>
<path d="M0 0 C1.32 0.66 2.64 1.32 4 2 C2.35 2.66 0.7 3.32 -1 4 C-1 4.66 -1 5.32 -1 6 C-0.34 6 0.32 6 1 6 C1 6.66 1 7.32 1 8 C-1.475 7.01 -1.475 7.01 -4 6 C-3.0022242 3.00667261 -2.2477975 2.05233685 0 0 Z " fill="#1A72ED" transform="translate(83,211)"/>
<path d="M0 0 C-1.76956458 2.14210449 -2.87575652 2.96060573 -5.5625 3.8125 C-6.7690625 3.9053125 -6.7690625 3.9053125 -8 4 C-8.66 3.34 -9.32 2.68 -10 2 C-6.27511755 -0.66063032 -4.42132508 -1.38955931 0 0 Z " fill="#2166CC" transform="translate(93,208)"/>
<path d="M0 0 C0.99 0.99 1.98 1.98 3 3 C-0.83325617 5.70582788 -3.32538149 6.32613618 -8 6 C-7.34 5.01 -6.68 4.02 -6 3 C-4.68 3 -3.36 3 -2 3 C-1.34 2.01 -0.68 1.02 0 0 Z " fill="#FFFFFF" transform="translate(240,71)"/>
<path d="M0 0 C2.31 0.66 4.62 1.32 7 2 C6.67 3.98 6.34 5.96 6 8 C4.68 7.34 3.36 6.68 2 6 C2 4.68 2 3.36 2 2 C1.34 2 0.68 2 0 2 C0 1.34 0 0.68 0 0 Z " fill="#FFFFFF" transform="translate(176,392)"/>
<path d="M0 0 C1.32 0 2.64 0 4 0 C4 0.66 4 1.32 4 2 C4.8971875 1.6596875 4.8971875 1.6596875 5.8125 1.3125 C6.8953125 1.1578125 6.8953125 1.1578125 8 1 C9.75 2.3125 9.75 2.3125 11 4 C11 4.66 11 5.32 11 6 C7.2089881 4.55049545 3.6125362 2.84827434 0 1 C0 0.67 0 0.34 0 0 Z " fill="#FFFFFF" transform="translate(146,274)"/>
<path d="M0 0 C0.66 0.33 1.32 0.66 2 1 C1.67 2.32 1.34 3.64 1 5 C-1.31 5 -3.62 5 -6 5 C-6 4.34 -6 3.68 -6 3 C-4.03533587 1.93224776 -2.03144641 0.93446535 0 0 Z " fill="#FFFFFF" transform="translate(230,259)"/>
<path d="M0 0 C-3.41016497 2.86453858 -6.90694544 4.34703566 -11 6 C-11 5.01 -11 4.02 -11 3 C-7.14243493 0.84694043 -4.44870215 -0.39253254 0 0 Z " fill="#FFFFFF" transform="translate(260,256)"/>
<path d="M0 0 C1.32 0.33 2.64 0.66 4 1 C4 1.66 4 2.32 4 3 C5.32 2.67 6.64 2.34 8 2 C8 2.99 8 3.98 8 5 C6.68 5.33 5.36 5.66 4 6 C3.67 5.01 3.34 4.02 3 3 C2.01 3 1.02 3 0 3 C0 2.01 0 1.02 0 0 Z " fill="#FFFFFF" transform="translate(106,353)"/>
<path d="M0 0 C6.52307692 0.49230769 6.52307692 0.49230769 8.9375 3.0625 C9.288125 3.701875 9.63875 4.34125 10 5 C5.2482602 4.56802365 3.07999946 3.67230705 0 0 Z M7 0 C10 1 10 1 10 1 Z " fill="#2170E0" transform="translate(86,337)"/>
<path d="M0 0 C0.99 0 1.98 0 3 0 C3 0.66 3 1.32 3 2 C3.928125 2.2165625 3.928125 2.2165625 4.875 2.4375 C7 3 7 3 9 4 C8.67 4.66 8.34 5.32 8 6 C5.36 5.67 2.72 5.34 0 5 C0.66 3.68 1.32 2.36 2 1 C1.34 0.67 0.68 0.34 0 0 Z " fill="#1069EB" transform="translate(96,248)"/>
<path d="M0 0 C4.8274799 1.41292095 8.7162359 3.42974154 13 6 C8.82412255 7.39195915 6.86525224 5.82323219 3 4 C3 3.34 3 2.68 3 2 C2.01 2 1.02 2 0 2 C0 1.34 0 0.68 0 0 Z " fill="#255EB8" transform="translate(96,246)"/>
<path d="M0 0 C2.31 0.33 4.62 0.66 7 1 C7 1.66 7 2.32 7 3 C7.66 3 8.32 3 9 3 C9.33 3.99 9.66 4.98 10 6 C6.40992874 4.66654496 3.20429093 3.1056769 0 1 C0 0.67 0 0.34 0 0 Z " fill="#FFFFFF" transform="translate(160,233)"/>
<path d="M0 0 C-0.625 1.875 -0.625 1.875 -2 4 C-5 5.3125 -5 5.3125 -8 6 C-8.66 5.67 -9.32 5.34 -10 5 C-8.71186658 4.16121545 -7.41936744 3.32913217 -6.125 2.5 C-5.40570313 2.0359375 -4.68640625 1.571875 -3.9453125 1.09375 C-2 0 -2 0 0 0 Z " fill="#FFFFFF" transform="translate(295,336)"/>
<path d="M0 0 C0 0.99 0 1.98 0 3 C-1.98 3.33 -3.96 3.66 -6 4 C-6 2.68 -6 1.36 -6 0 C-3.50907189 -1.24546405 -2.58919267 -0.7767578 0 0 Z " fill="#FFFFFF" transform="translate(141,262)"/>
<path d="M0 0 C0.33 0.99 0.66 1.98 1 3 C-0.98 4.32 -2.96 5.64 -5 7 C-5.66 6.67 -6.32 6.34 -7 6 C-5.9024777 3.00675737 -5.32317108 2.15389099 -2.375 0.75 C-1.59125 0.5025 -0.8075 0.255 0 0 Z " fill="#1C5FCE" transform="translate(287,241)"/>
<path d="M0 0 C0 0.66 0 1.32 0 2 C-2.30276574 4.21747812 -3.52480092 4.96760006 -6.75 5.1875 C-7.86375 5.0946875 -7.86375 5.0946875 -9 5 C-9 4.34 -9 3.68 -9 3 C-2.25 0 -2.25 0 0 0 Z " fill="#246BDA" transform="translate(225,230)"/>
<path d="M0 0 C2.475 0.495 2.475 0.495 5 1 C4.67 2.65 4.34 4.3 4 6 C2.68 6 1.36 6 0 6 C0 4.02 0 2.04 0 0 Z " fill="#F3F5F4" transform="translate(200,218)"/>
<path d="M0 0 C-0.99 0.495 -0.99 0.495 -2 1 C-2 1.66 -2 2.32 -2 3 C-3.98 3.66 -5.96 4.32 -8 5 C-8 3.68 -8 2.36 -8 1 C-5.29120665 -0.35439668 -2.99066732 -0.06501451 0 0 Z " fill="#FFFFFF" transform="translate(258,208)"/>
<path d="M0 0 C-1.485 1.485 -1.485 1.485 -3 3 C-2.67 3.66 -2.34 4.32 -2 5 C-4.97 4.505 -4.97 4.505 -8 4 C-8 3.01 -8 2.02 -8 1 C-2.25 -1.125 -2.25 -1.125 0 0 Z " fill="#E1E5E7" transform="translate(186,120)"/>
<path d="M0 0 C-0.66 1.65 -1.32 3.3 -2 5 C-4.31 5 -6.62 5 -9 5 C-2.87096774 0 -2.87096774 0 0 0 Z " fill="#1C51AD" transform="translate(282,244)"/>
<path d="M0 0 C3.96 1.98 7.92 3.96 12 6 C9 7 9 7 6 5.6875 C3 4 3 4 0 2 C0 1.34 0 0.68 0 0 Z " fill="#2962C4" transform="translate(153,230)"/>
<path d="M0 0 C0.53625 0.226875 1.0725 0.45375 1.625 0.6875 C1.295 1.6775 0.965 2.6675 0.625 3.6875 C-2.675 4.0175 -5.975 4.3475 -9.375 4.6875 C-7.60317726 1.14385451 -3.87334298 -0.50965039 0 0 Z " fill="#FFFFFF" transform="translate(206.375,223.3125)"/>
<path d="M0 0 C2.97 0 5.94 0 9 0 C9.66 1.32 10.32 2.64 11 4 C7.1936543 3.32829194 3.64793184 2.27253436 0 1 C0 0.67 0 0.34 0 0 Z " fill="#FFFFFF" transform="translate(100,200)"/>
<path d="M0 0 C3.61939504 1.72743854 6.87567603 3.47650757 10 6 C7.36 5.67 4.72 5.34 2 5 C1.34 3.35 0.68 1.7 0 0 Z " fill="#FFFFFF" transform="translate(137,255)"/>
<path d="M0 0 C-0.66 1.65 -1.32 3.3 -2 5 C-3.32 5 -4.64 5 -6 5 C-6.33 4.01 -6.66 3.02 -7 2 C-2.25 0 -2.25 0 0 0 Z " fill="#166FEB" transform="translate(144,250)"/>
<path d="M0 0 C2.97 0 5.94 0 9 0 C6.6870518 2.3129482 5.52095125 2.49580975 2.375 3.125 C1.55773437 3.29257813 0.74046875 3.46015625 -0.1015625 3.6328125 C-1.04128906 3.81457031 -1.04128906 3.81457031 -2 4 C-1.34 2.68 -0.68 1.36 0 0 Z " fill="#FFFFFF" transform="translate(202,236)"/>
<path d="M0 0 C3.3 0.99 6.6 1.98 10 3 C9.67 3.66 9.34 4.32 9 5 C7.02 5 5.04 5 3 5 C3 4.01 3 3.02 3 2 C2.01 2 1.02 2 0 2 C0 1.34 0 0.68 0 0 Z " fill="#1268E8" transform="translate(155,234)"/>
<path d="M0 0 C-0.66 0 -1.32 0 -2 0 C-2.66 1.65 -3.32 3.3 -4 5 C-5.32 4.34 -6.64 3.68 -8 3 C-8 2.34 -8 1.68 -8 1 C-4.93251126 -0.86240388 -3.40254489 -1.2151946 0 0 Z " fill="#F6F7F5" transform="translate(180,123)"/>
<path d="M0 0 C1.125 3.75 1.125 3.75 0 6 C-0.66 6 -1.32 6 -2 6 C-2.33 5.34 -2.66 4.68 -3 4 C-5.52733235 3.34444881 -5.52733235 3.34444881 -8 3 C-8 2.67 -8 2.34 -8 2 C-6.865625 1.855625 -5.73125 1.71125 -4.5625 1.5625 C-1.19222799 1.38828522 -1.19222799 1.38828522 0 0 Z " fill="#136CEB" transform="translate(111,345)"/>
<path d="M0 0 C0.66 0.33 1.32 0.66 2 1 C0.92892883 1.86949317 -0.15745944 2.72014205 -1.25 3.5625 C-1.85328125 4.03816406 -2.4565625 4.51382812 -3.078125 5.00390625 C-5 6 -5 6 -7.234375 5.65234375 C-7.81703125 5.43707031 -8.3996875 5.22179687 -9 5 C-7.54735962 4.1361871 -6.0876837 3.28419546 -4.625 2.4375 C-3.40683594 1.72400391 -3.40683594 1.72400391 -2.1640625 0.99609375 C-1.44992188 0.66738281 -0.73578125 0.33867187 0 0 Z " fill="#2254AD" transform="translate(222,278)"/>
<path d="M0 0 C1.98 0 3.96 0 6 0 C6 0.66 6 1.32 6 2 C4.02 2.66 2.04 3.32 0 4 C0 2.68 0 1.36 0 0 Z " fill="#166CE7" transform="translate(185,250)"/>
<path d="M0 0 C3.3 0.33 6.6 0.66 10 1 C8.515 2.485 8.515 2.485 7 4 C4.08482708 2.92598892 2.22189824 2.22189824 0 0 Z " fill="#FFFFFF" transform="translate(182,246)"/>
<path d="M0 0 C2.95409701 1.37154504 5.44008376 2.98863724 8 5 C6.35 5.33 4.7 5.66 3 6 C0 2.25 0 2.25 0 0 Z " fill="#FFFFFF" transform="translate(142,207)"/>
<path d="M0 0 C1.32 0.66 2.64 1.32 4 2 C0.55549263 4.29633824 -1.93812283 4.54016485 -6 5 C-5.67 4.01 -5.34 3.02 -5 2 C-3.35 2.33 -1.7 2.66 0 3 C0 2.01 0 1.02 0 0 Z " fill="#FFFFFF" transform="translate(187,115)"/>
<path d="M0 0 C2.31 0 4.62 0 7 0 C7.33 0.99 7.66 1.98 8 3 C5.6568787 2.74438677 3.32156597 2.40729228 1 2 C0.67 1.34 0.34 0.68 0 0 Z " fill="#2465CC" transform="translate(157,380)"/>
<path d="M0 0 C1.66842534 0.32441604 3.33480481 0.65939189 5 1 C5.721875 1.103125 6.44375 1.20625 7.1875 1.3125 C9 2 9 2 10.25 4.0625 C10.4975 4.701875 10.745 5.34125 11 6 C7.2089881 4.55049545 3.6125362 2.84827434 0 1 C0 0.67 0 0.34 0 0 Z " fill="#FFFFFF" transform="translate(168,287)"/>
<path d="M0 0 C3.96 1.98 3.96 1.98 8 4 C4 5 4 5 1.75 4.0625 C1.1725 3.711875 0.595 3.36125 0 3 C0 2.01 0 1.02 0 0 Z " fill="#FFFFFF" transform="translate(147,261)"/>
<path d="M0 0 C1.98 0 3.96 0 6 0 C6.33 0.99 6.66 1.98 7 3 C5.1875 3.625 5.1875 3.625 3 4 C2.01 3.34 1.02 2.68 0 2 C0 1.34 0 0.68 0 0 Z " fill="#D9DCDE" transform="translate(184,229)"/>
<path d="M0 0 C1.98 0 3.96 0 6 0 C3.47211993 2.79872437 1.79588866 4.45773019 -2 5 C-2 4.34 -2 3.68 -2 3 C-1.34 3 -0.68 3 0 3 C0 2.01 0 1.02 0 0 Z " fill="#FFFFFF" transform="translate(218,228)"/>
<path d="M0 0 C1.32 0 2.64 0 4 0 C5.75 2 5.75 2 7 4 C4.50907189 5.24546405 3.58919267 4.7767578 1 4 C0.67 2.68 0.34 1.36 0 0 Z " fill="#266BD9" transform="translate(82,220)"/>
<path d="M0 0 C1.65 0 3.3 0 5 0 C5.33 1.32 5.66 2.64 6 4 C4.35 3.67 2.7 3.34 1 3 C0.67 2.01 0.34 1.02 0 0 Z " fill="#DCDEDF" transform="translate(152,211)"/>
<path d="M0 0 C-5.2734375 3.22265625 -5.2734375 3.22265625 -7 4 C-7.66 3.67 -8.32 3.34 -9 3 C-6.27596221 -1.08605669 -4.4643819 -1.38549783 0 0 Z " fill="#FFFFFF" transform="translate(95,204)"/>
<path d="M0 0 C0 0.66 0 1.32 0 2 C-0.99 2 -1.98 2 -3 2 C-3 2.66 -3 3.32 -3 4 C-4.32 4.33 -5.64 4.66 -7 5 C-6.625 3.0625 -6.625 3.0625 -6 1 C-4 0 -4 0 0 0 Z " fill="#FFFFFF" transform="translate(230,270)"/>
<path d="M0 0 C1.98 0.99 3.96 1.98 6 3 C6 3.99 6 4.98 6 6 C3.5625 5.25 3.5625 5.25 1 4 C0.1875 1.875 0.1875 1.875 0 0 Z " fill="#FFFFFF" transform="translate(156,266)"/>
<path d="M0 0 C2.31 0.33 4.62 0.66 7 1 C7 1.66 7 2.32 7 3 C7.66 3.33 8.32 3.66 9 4 C8.01 4.495 8.01 4.495 7 5 C4.5249829 3.88568235 2.32116581 2.41849022 0 1 C0 0.67 0 0.34 0 0 Z " fill="#FFFFFF" transform="translate(126,262)"/>
<path d="M0 0 C-5 2.5 -5 2.5 -10 5 C-9.67 3.68 -9.34 2.36 -9 1 C-5.92677456 0.08941469 -3.19902639 -0.08886184 0 0 Z " fill="#FFFFFF" transform="translate(298,235)"/>
<path d="M0 0 C3.37503669 1.1858237 5.64722731 2.27573689 8 5 C2.25 4.125 2.25 4.125 0 3 C0 2.01 0 1.02 0 0 Z " fill="#FFFFFF" transform="translate(83,224)"/>
<path d="M0 0 C0.94875 0.350625 1.8975 0.70125 2.875 1.0625 C2.875 1.7225 2.875 2.3825 2.875 3.0625 C3.535 3.3925 4.195 3.7225 4.875 4.0625 C3.885 4.3925 2.895 4.7225 1.875 5.0625 C1.875 4.0725 1.875 3.0825 1.875 2.0625 C0.555 2.3925 -0.765 2.7225 -2.125 3.0625 C-2.125 2.4025 -2.125 1.7425 -2.125 1.0625 C-3.115 0.7325 -4.105 0.4025 -5.125 0.0625 C-3.125 -0.9375 -3.125 -0.9375 0 0 Z " fill="#FFFFFF" transform="translate(175.125,224.9375)"/>
<path d="M0 0 C-0.33 1.32 -0.66 2.64 -1 4 C-3.31 4.33 -5.62 4.66 -8 5 C-7.67 4.34 -7.34 3.68 -7 3 C-6.01 3 -5.02 3 -4 3 C-4 2.34 -4 1.68 -4 1 C-2 0 -2 0 0 0 Z " fill="#1E59B0" transform="translate(260,208)"/>
<path d="M0 0 C1.32 0.66 2.64 1.32 4 2 C2.625 4 2.625 4 1 6 C0.34 6 -0.32 6 -1 6 C-1.042721 4.33388095 -1.04063832 2.66617115 -1 1 C-0.67 0.67 -0.34 0.34 0 0 Z " fill="#E0E2E6" transform="translate(219,210)"/>
<path d="M0 0 C-1.65 0.33 -3.3 0.66 -5 1 C-5 1.66 -5 2.32 -5 3 C-5.99 3.33 -6.98 3.66 -8 4 C-8 2.68 -8 1.36 -8 0 C-4.94736336 -0.98120464 -3.05263664 -0.98120464 0 0 Z " fill="#2056BA" transform="translate(221,380)"/>
<path d="M0 0 C3.375 0.25 3.375 0.25 7 1 C8.4375 3.0625 8.4375 3.0625 9 5 C5.54074837 3.7508258 2.85306797 2.32472205 0 0 Z " fill="#255FC4" transform="translate(148,375)"/>
<path d="M0 0 C1.98 1.65 3.96 3.3 6 5 C4.125 5.625 4.125 5.625 2 6 C1.34 5.34 0.68 4.68 0 4 C0 2.68 0 1.36 0 0 Z " fill="#FFFFFF" transform="translate(74,330)"/>
<path d="M0 0 C0.99 0 1.98 0 3 0 C3 1.65 3 3.3 3 5 C2.01 5.33 1.02 5.66 0 6 C0 4.02 0 2.04 0 0 Z " fill="#0168F2" transform="translate(197,297)"/>
<path d="M0 0 C0.66 0.33 1.32 0.66 2 1 C-0.57404971 4.86107457 -2.61020259 4.94319692 -7 6 C-2.25 1.125 -2.25 1.125 0 0 Z " fill="#0E5EE1" transform="translate(204,291)"/>
<path d="M0 0 C2.31 0.33 4.62 0.66 7 1 C7 1.99 7 2.98 7 4 C4.97954558 3.39816251 2.97888961 2.72693904 1 2 C0.67 1.34 0.34 0.68 0 0 Z " fill="#FFFFFF" transform="translate(157,280)"/>
<path d="M0 0 C2.875 0.3125 2.875 0.3125 6 1 C6.66 1.99 7.32 2.98 8 4 C4.31245243 3.50168276 2.39509338 2.89932357 0 0 Z " fill="#FFFFFF" transform="translate(114,206)"/>
</svg>
