<?xml version="1.0" encoding="UTF-8"?>
<svg version="1.1" xmlns="http://www.w3.org/2000/svg" width="1536" height="1024" viewBox="0 0 1536 1024">
<path d="M0 0 C1.22847656 -0.02578125 2.45695313 -0.0515625 3.72265625 -0.078125 C13.4039257 0.34479733 21.34372142 4.16329193 29.4375 9.1875 C30.86461304 10.05193726 30.86461304 10.05193726 32.32055664 10.93383789 C39.16272711 15.09722602 45.94207122 19.36349458 52.69702148 23.66674805 C58.75183234 27.52208945 64.8626735 31.27759055 71 35 C83.68140006 42.69250539 96.31430921 50.46241016 108.9375 58.25 C110.36570068 59.13051025 110.36570068 59.13051025 111.82275391 60.02880859 C117.03141569 63.2410164 122.23434245 66.46220347 127.43066406 69.69433594 C130.00975212 71.29483741 132.59471421 72.88558786 135.1796875 74.4765625 C136.87006695 75.52559821 138.56018157 76.57506081 140.25 77.625 C141.38779907 78.32061035 141.38779907 78.32061035 142.54858398 79.03027344 C149.83451985 83.58266329 156.36006363 88.67441214 161.1875 95.875 C161.81140625 96.77476562 162.4353125 97.67453125 163.078125 98.6015625 C168.92421614 109.04303595 169.5213732 120.16947209 169.45507812 131.83374023 C169.46051175 133.45824812 169.46764131 135.08275107 169.47631836 136.70724487 C169.49440884 141.08136764 169.48754347 145.45510907 169.47480202 149.8292377 C169.46459795 154.43109505 169.47408824 159.0329221 169.48034668 163.63478088 C169.48760242 171.36050206 169.47809083 179.08606976 169.45898438 186.81176758 C169.43722735 195.71132482 169.44426687 204.61051525 169.46629 213.51006359 C169.4845126 221.18439803 169.48696873 228.85862281 169.47653532 236.53297192 C169.47033692 241.10184515 169.46936288 245.67054667 169.48268127 250.23940849 C169.49433937 254.53819979 169.48603486 258.83652389 169.46310425 263.13526535 C169.45786947 264.70163133 169.45923973 266.26803747 169.46815491 267.83438683 C169.55407486 284.48027677 166.13848044 298.50227158 154.5625 311.0546875 C149.17151488 316.34023458 142.71254196 319.82713333 136.1875 323.5 C134.87954848 324.24913524 133.57242826 324.99972364 132.26611328 325.75170898 C129.67436423 327.2430099 127.07992508 328.72943751 124.48339844 330.21240234 C119.88593899 332.84548719 115.34468585 335.56890892 110.8125 338.3125 C103.29080776 342.84649527 95.74496868 347.33839541 88.1875 351.8125 C86.50297729 352.80987183 86.50297729 352.80987183 84.78442383 353.82739258 C83.02610775 354.86842726 81.26778034 355.90944277 79.50941467 356.95039368 C73.55382763 360.47640097 67.60034598 364.00594976 61.64868164 367.53857422 C58.89785477 369.17129543 56.14561916 370.80160384 53.39233398 372.43017578 C47.53671506 375.89729699 41.69582538 379.37814558 35.921875 382.98046875 C24.30537481 390.21474732 14.2625255 395.43585879 0.3125 395.75 C-0.35612061 395.76901367 -1.02474121 395.78802734 -1.71362305 395.80761719 C-13.48502641 395.65342537 -23.48133903 388.99891632 -33.25 383.125 C-34.54984608 382.35257469 -35.85006106 381.58076986 -37.15063477 380.80957031 C-44.25763218 376.58423133 -51.32011307 372.29022257 -58.29956055 367.85693359 C-63.81458811 364.36356538 -69.43317996 361.05525386 -75.0625 357.75 C-81.94145015 353.70828901 -88.76856012 349.60929644 -95.51245117 345.34643555 C-103.59206299 340.255215 -111.77888737 335.3378054 -119.95361328 330.40136719 C-125.38809575 327.11676955 -130.8119653 323.81471067 -136.19921875 320.453125 C-137.05604248 319.91977539 -137.91286621 319.38642578 -138.7956543 318.83691406 C-142.2168076 316.44192252 -144.70263659 313.66939392 -147.0625 310.25 C-147.68125 309.363125 -148.3 308.47625 -148.9375 307.5625 C-150.83654959 301.97085399 -151.16879396 295.82570014 -149.40625 290.12890625 C-146.81432036 285.11262863 -142.10755928 280.77252964 -137.0625 278.25 C-123.20895563 276.46754071 -113.08085183 284.00714373 -101.875 291.1875 C-93.5799909 296.43650278 -85.24158073 301.59397417 -76.8125 306.625 C-67.83375408 311.98782615 -58.87495149 317.38125476 -49.9375 322.8125 C-49.35330292 323.16733459 -48.76910583 323.52216919 -48.16720581 323.88775635 C-41.93859175 327.67105307 -35.71416513 331.46110899 -29.49609375 335.26171875 C-28.46178223 335.89327881 -27.4274707 336.52483887 -26.36181641 337.17553711 C-24.44253272 338.34790976 -22.52415987 339.52177557 -20.60693359 340.69750977 C-18.10001112 342.22863498 -15.58438696 343.74367207 -13.0625 345.25 C-11.85726685 345.97956909 -11.85726685 345.97956909 -10.62768555 346.72387695 C-4.23903108 350.46427428 0.52218376 351.5481473 7.9375 350.25 C14.36401018 347.93072139 20.04375812 344.21131088 25.82421875 340.62109375 C33.42837341 335.91917371 41.11811213 331.36469154 48.8125 326.8125 C51.51857126 325.21021243 54.22424902 323.60726201 56.9296875 322.00390625 C57.93298096 321.40944702 57.93298096 321.40944702 58.95654297 320.80297852 C63.45642338 318.13454616 67.9459267 315.44932259 72.4296875 312.75390625 C77.61396786 309.63744108 82.80971335 306.54113361 88.015625 303.4609375 C88.68824371 303.06275314 89.36086243 302.66456879 90.05386353 302.25431824 C92.78854353 300.63561498 95.5233643 299.0171593 98.25976562 297.40136719 C102.2301436 295.05625725 106.19372882 292.70051288 110.14575195 290.32458496 C111.84775833 289.30382177 113.5555648 288.29274793 115.26367188 287.28222656 C116.24400391 286.68635742 117.22433594 286.09048828 118.234375 285.4765625 C119.07838867 284.96947754 119.92240234 284.46239258 120.79199219 283.93994141 C125.19121985 280.47482376 126.95736756 275.63760455 127.9375 270.25 C128.2442607 265.69353607 128.24153848 261.14439224 128.24389648 256.57885742 C128.25152706 255.1950486 128.25995609 253.81124398 128.26911926 252.42744446 C128.29098158 248.68349696 128.29985187 244.93963108 128.30494571 241.19562697 C128.30859883 238.85220812 128.31484379 236.50881033 128.3219471 234.16539955 C128.34641206 225.97768853 128.35948727 217.79004061 128.36303711 209.60229492 C128.36667097 201.9899053 128.39656296 194.37791919 128.43844169 186.76565284 C128.47321545 180.21337873 128.48858676 173.66123793 128.48928314 167.10887223 C128.4900735 163.20280054 128.49870001 159.29714048 128.52728081 155.39116478 C128.55358411 151.71455332 128.55559954 148.03869127 128.53962517 144.36202812 C128.53696557 142.3839532 128.55890996 140.40589206 128.58181763 138.427948 C128.51021867 129.63951786 127.05013037 122.32190697 120.61987305 115.95532227 C119.84168213 115.47635498 119.06349121 114.9973877 118.26171875 114.50390625 C117.38950684 113.95234863 116.51729492 113.40079102 115.61865234 112.83251953 C114.73387207 112.31028809 113.8490918 111.78805664 112.9375 111.25 C112.11330566 110.74452637 111.28911133 110.23905273 110.43994141 109.71826172 C107.8938626 108.17659473 105.32614305 106.67832791 102.75 105.1875 C94.85273895 100.56883159 86.99694857 95.89075263 79.1875 91.125 C78.21941406 90.53428711 77.25132812 89.94357422 76.25390625 89.33496094 C73.48094824 87.64131484 70.70901016 85.9460141 67.9375 84.25 C66.44924817 83.33979564 64.96096899 82.42963601 63.47265625 81.51953125 C62.77285645 81.0915625 62.07305664 80.66359375 61.35205078 80.22265625 C58.43179351 78.43726319 55.51076181 76.65314109 52.58935547 74.86962891 C50.62438748 73.66951865 48.65995103 72.46853798 46.69580078 71.26708984 C40.07742642 67.22000048 33.44949745 63.18975292 26.80137634 59.19168091 C23.51593137 57.21321597 20.25446139 55.20151596 17.0078125 53.16015625 C10.68679745 49.25681624 4.74593005 45.71507971 -2.94921875 46.37109375 C-9.2246793 48.14271059 -14.6113628 51.55569609 -20.09375 55.01074219 C-22.98827064 56.83273956 -25.93458682 58.56578666 -28.875 60.3125 C-30.10070042 61.05265726 -31.32592906 61.79359614 -32.55078125 62.53515625 C-38.53159517 66.1455 -44.55007138 69.69267443 -50.5625 73.25 C-57.53332127 77.37524021 -64.50258246 81.5020733 -71.4375 85.6875 C-78.27651375 89.7989071 -85.1476643 93.8556295 -92.02593994 97.90090942 C-93.32622661 98.66603343 -94.62600405 99.43202358 -95.92523193 100.19894409 C-98.93253706 101.97343215 -101.94467933 103.73758652 -104.97436523 105.47363281 C-106.75724423 106.49918642 -108.53112724 107.54151683 -110.27758789 108.62792969 C-116.1132944 112.02848953 -121.99830217 111.91404949 -128.625 111.875 C-130.27145508 111.92333984 -130.27145508 111.92333984 -131.95117188 111.97265625 C-137.292711 111.97909572 -141.05497845 111.8742394 -145.25 108.3515625 C-149.14825393 104.42074271 -150.15899705 101.02707224 -150.5 95.5625 C-150.33017362 89.55600922 -148.55691743 85.10392118 -145.0625 80.25 C-138.60059518 74.7405319 -130.84896069 70.65396706 -123.5184021 66.43048096 C-120.30676785 64.57903363 -117.10455191 62.71143937 -113.90234375 60.84375 C-113.24593399 60.46110992 -112.58952423 60.07846985 -111.91322327 59.68423462 C-105.3103497 55.82648224 -98.7766794 51.86017257 -92.25 47.875 C-80.82666916 40.90329045 -69.3425286 34.0394694 -57.82250977 27.22875977 C-51.47097585 23.47195175 -45.13199794 19.69825405 -38.83203125 15.85546875 C-37.70627686 15.1711377 -36.58052246 14.48680664 -35.4206543 13.78173828 C-33.34402863 12.5169144 -31.27094763 11.246242 -29.20239258 9.96826172 C-19.84799044 4.28061674 -11.05454272 0.1371815 0 0 Z " fill="#2664EC" transform="translate(361.0625,301.75)"/>
<path d="M0 0 C2.71513751 1.02562514 5.09836361 2.41403494 7.5625 3.9375 C8.25956055 4.34935547 8.95662109 4.76121094 9.67480469 5.18554688 C11.7928836 6.44162808 13.89651156 7.71968177 16 9 C17.11761719 9.66128906 18.23523438 10.32257813 19.38671875 11.00390625 C23.27345799 13.31067019 27.13710675 15.65360462 31 18 C32.59523409 18.96694568 34.19047337 19.93388279 35.78579712 20.90068054 C49.54170037 29.23790066 63.28284656 37.59915074 77 46 C76.82739258 48.76831055 76.82739258 48.76831055 76 52 C73.76049805 53.97192383 73.76049805 53.97192383 70.76171875 55.70703125 C69.08698486 56.69775635 69.08698486 56.69775635 67.37841797 57.70849609 C66.14821585 58.4100129 64.91790701 59.1113426 63.6875 59.8125 C62.42210317 60.55339318 61.15795943 61.29643032 59.89501953 62.04150391 C57.26112506 63.59314969 54.62202311 65.13533956 51.97900391 66.67138672 C46.3211822 69.96964293 40.73409357 73.38336941 35.14465332 76.79574585 C32.80965754 78.21978403 30.47092376 79.63762049 28.1322937 81.05567932 C23.5283125 83.84798486 18.93195194 86.65205276 14.34765625 89.4765625 C13.50734863 89.9936377 12.66704102 90.51071289 11.80126953 91.04345703 C10.27843333 91.98182109 8.75714811 92.9227092 7.23779297 93.86669922 C1.88307271 97.16564799 -1.66495093 98.44381943 -8 98 C-10.9206543 96.70922852 -10.9206543 96.70922852 -13.82421875 94.87890625 C-14.9212915 94.19916748 -16.01836426 93.51942871 -17.14868164 92.8190918 C-18.32840048 92.06707132 -19.50800355 91.31486923 -20.6875 90.5625 C-21.92403443 89.78979684 -23.16160318 89.01874666 -24.40014648 88.24926758 C-26.97808125 86.64603974 -29.5514033 85.03575076 -32.12207031 83.42089844 C-37.63821022 79.96540735 -43.21763199 76.61522003 -48.79244995 73.25561523 C-57.61542841 67.93149589 -66.4024869 62.54988277 -75.125 57.0625 C-75.90689697 56.57225342 -76.68879395 56.08200684 -77.49438477 55.5769043 C-78.20006592 55.13000244 -78.90574707 54.68310059 -79.6328125 54.22265625 C-80.24012207 53.83859619 -80.84743164 53.45453613 -81.47314453 53.05883789 C-83 52 -83 52 -85 50 C-84.97875977 47.61816406 -84.97875977 47.61816406 -84 45 C-81.57006836 43.01464844 -81.57006836 43.01464844 -78.33984375 41.109375 C-77.47514969 40.59076401 -77.47514969 40.59076401 -76.59298706 40.06167603 C-74.71674767 38.94189 -72.82777182 37.84590209 -70.9375 36.75 C-69.63621995 35.97993245 -68.33568432 35.2086056 -67.03588867 34.43603516 C-60.09654014 30.32614138 -53.11160264 26.29346319 -46.046875 22.40258789 C-38.47569889 18.2132709 -31.09525196 13.69771111 -23.6887207 9.22607422 C-21.67302942 8.00932274 -19.65437514 6.7974618 -17.63232422 5.59130859 C-16.06436646 4.64343726 -14.50844376 3.674396 -12.98095703 2.66259766 C-8.75017932 -0.06103278 -4.92578197 -0.93955841 0 0 Z " fill="#05132F" transform="translate(365,399)"/>
<path d="M0 0 C0.598125 0.20625 1.19625 0.4125 1.8125 0.625 C1.92835255 11.88192682 2.0171946 23.13871182 2.07156086 34.3961134 C2.09765415 39.62342067 2.13304768 44.85032006 2.18969727 50.07739258 C2.24402605 55.12189555 2.27392255 60.16600623 2.28688622 65.21077919 C2.29612451 67.13535043 2.31416495 69.05990021 2.34115028 70.98430443 C2.37745246 73.68035643 2.38244492 76.37478782 2.38012695 79.07104492 C2.39810333 79.86658279 2.41607971 80.66212067 2.43460083 81.48176575 C2.3968797 85.53691151 2.02369077 87.36533407 -0.56886292 90.55296326 C-3.06725686 92.52985577 -5.52005941 94.25320548 -8.265625 95.8671875 C-9.74047363 96.74238037 -9.74047363 96.74238037 -11.24511719 97.63525391 C-12.29860352 98.25062012 -13.35208984 98.86598633 -14.4375 99.5 C-16.69800344 100.83839512 -18.9584176 102.17694105 -21.21875 103.515625 C-22.38658997 104.20399457 -23.55455896 104.8921453 -24.72265625 105.58007812 C-30.14408904 108.77579829 -35.5402833 112.01361097 -40.9375 115.25 C-41.96222412 115.86149902 -42.98694824 116.47299805 -44.04272461 117.10302734 C-49.16611199 120.16917701 -54.2510724 123.28122322 -59.28515625 126.4921875 C-60.24905273 127.10368652 -61.21294922 127.71518555 -62.20605469 128.34521484 C-64.02492471 129.50386238 -65.8371904 130.67296511 -67.64160156 131.85400391 C-68.44694336 132.36624512 -69.25228516 132.87848633 -70.08203125 133.40625 C-70.78175049 133.86064453 -71.48146973 134.31503906 -72.20239258 134.78320312 C-74.64587351 135.81937607 -75.74835347 135.57203648 -78.1875 134.625 C-80.20859202 132.60390798 -79.35511167 128.45424723 -79.36450195 125.68041992 C-79.37107315 124.847892 -79.37764435 124.01536407 -79.38441467 123.15760803 C-79.40419735 120.39022747 -79.41582142 117.62290129 -79.42578125 114.85546875 C-79.42985678 113.91257807 -79.4339323 112.96968739 -79.43813133 111.99822426 C-79.45901355 107.00752606 -79.47330577 102.01685553 -79.48266602 97.02612305 C-79.49373344 91.86413307 -79.52813101 86.70257382 -79.56783772 81.5407362 C-79.59395274 77.57822352 -79.60235331 73.61581421 -79.60594749 69.65322304 C-79.61082692 67.75018722 -79.62247928 65.84715642 -79.64098549 63.94420433 C-79.66526798 61.28170819 -79.66443203 58.62033605 -79.6574707 55.95776367 C-79.67028076 55.16955231 -79.68309082 54.38134094 -79.69628906 53.56924438 C-79.66288558 50.06875803 -79.51442808 48.05180379 -77.35423279 45.23167419 C-74.4684332 43.09179808 -71.46573982 41.22479019 -68.359375 39.4296875 C-67.69805573 39.04069275 -67.03673645 38.651698 -66.3553772 38.25091553 C-64.94683467 37.4230841 -63.53672495 36.59791435 -62.12518311 35.77520752 C-58.45915863 33.63827006 -54.80440612 31.48220553 -51.1484375 29.328125 C-50.43857697 28.91055939 -49.72871643 28.49299377 -48.99734497 28.06277466 C-44.13749471 25.19973299 -39.32172628 22.27794399 -34.5625 19.25 C-27.29565387 14.63187478 -19.88225842 10.26963029 -12.45654297 5.91259766 C-11.55693848 5.38456543 -10.65733398 4.8565332 -9.73046875 4.3125 C-8.92633545 3.84199219 -8.12220215 3.37148438 -7.29370117 2.88671875 C-1.92421994 -0.32986628 -1.92421994 -0.32986628 0 0 Z " fill="#05132E" transform="translate(449.1875,468.375)"/>
<path d="M0 0 C3.58186145 0.52097956 6.34516693 2.19411355 9.4453125 3.9921875 C10.51273682 4.60900391 11.58016113 5.22582031 12.67993164 5.86132812 C13.8168042 6.52583984 14.95367676 7.19035156 16.125 7.875 C17.31167012 8.56462086 18.49843855 9.25407258 19.68530273 9.94335938 C27.6114576 14.55705192 35.46645197 19.27894699 43.26953125 24.09765625 C50.30083346 28.43185154 57.40550558 32.64576202 64.50024414 36.875 C67.34017398 38.5726054 70.17292797 40.28108379 73 42 C73.66966797 42.4036377 74.33933594 42.80727539 75.02929688 43.22314453 C77.91412996 45.03345447 78.88514053 45.65542158 80 49 C80.09637397 51.7177646 80.13642549 54.4096629 80.12939453 57.12744141 C80.13202301 58.36926933 80.13202301 58.36926933 80.13470459 59.63618469 C80.13910869 62.37466523 80.13619071 65.1130813 80.1328125 67.8515625 C80.13348582 69.75060031 80.13445609 71.64963803 80.13571167 73.54867554 C80.13718658 77.52822694 80.13504022 81.50775589 80.13037109 85.48730469 C80.12466618 90.60003247 80.12795894 95.71270786 80.13394356 100.82543373 C80.13754812 104.74578246 80.1364112 108.66611865 80.13381577 112.58646774 C80.13314661 114.47241599 80.13397453 116.35836535 80.13629532 118.24431229 C80.13882097 120.873355 80.13498286 123.50231141 80.12939453 126.13134766 C80.13141876 126.91785202 80.13344299 127.70435638 80.13552856 128.51469421 C80.11426418 133.88573582 80.11426418 133.88573582 79 135 C72.68018642 134.7383777 68.57819547 132.33370097 63.3125 129 C61.53393851 127.90350902 59.75528745 126.8071633 57.9765625 125.7109375 C57.01911133 125.11506836 56.06166016 124.51919922 55.07519531 123.90527344 C50.06511472 120.80121906 45.01762771 117.75902343 39.97512817 114.70806885 C37.59201401 113.26421338 35.21214723 111.81505243 32.83222961 110.36593628 C27.62205793 107.19357279 22.40248478 104.03831003 17.16796875 100.90625 C16.10489502 100.2673584 15.04182129 99.6284668 13.9465332 98.97021484 C11.94430261 97.76738051 9.93906271 96.56953701 7.93041992 95.37744141 C7.04330322 94.84296387 6.15618652 94.30848633 5.2421875 93.7578125 C4.4672998 93.2952002 3.69241211 92.83258789 2.89404297 92.35595703 C1 91 1 91 -1 88 C-1.18956342 85.1961742 -1.26258531 82.49260454 -1.24291992 79.68896484 C-1.24481827 78.84157242 -1.24671661 77.99417999 -1.24867249 77.12110901 C-1.25238006 74.31762468 -1.2416778 71.51439884 -1.23046875 68.7109375 C-1.22927701 66.76705964 -1.22882377 64.82318119 -1.2290802 62.87930298 C-1.22751546 58.80556636 -1.21922527 54.73191764 -1.20581055 50.65820312 C-1.18879817 45.42440112 -1.18499684 40.19069555 -1.18575573 34.95686913 C-1.18548446 30.94386873 -1.18001059 26.93088961 -1.17275429 22.91789627 C-1.16956233 20.98729234 -1.16759899 19.05668599 -1.16686058 17.12607956 C-1.16470385 14.43475949 -1.15597484 11.74354389 -1.14526367 9.05224609 C-1.14571686 8.24704025 -1.14617004 7.44183441 -1.14663696 6.61222839 C-1.1144757 1.1144757 -1.1144757 1.1144757 0 0 Z " fill="#05132E" transform="translate(272,468)"/>
<path d="M0 0 C9.06306537 6.73714594 15.97076774 18.29992664 17.77734375 29.5546875 C17.85082031 30.36164063 17.92429687 31.16859375 18 32 C18.15662109 33.64355469 18.15662109 33.64355469 18.31640625 35.3203125 C19.02049927 49.67182552 13.96547853 63.17388356 4.30078125 73.8828125 C-6.53345413 84.37634865 -19.30047237 86.32643052 -33.609375 86.1484375 C-46.05502844 85.82918398 -55.70843916 80.99463442 -64.73828125 72.4609375 C-75.57554058 60.66910092 -77.81461737 46.61662102 -77.17919922 31.21484375 C-76.20071579 19.12110855 -69.03063857 9.26017781 -60.5625 1.078125 C-42.46751682 -13.59646502 -18.89038288 -11.50234086 0 0 Z " fill="#081530" transform="translate(904,476)"/>
<path d="M0 0 C7.62764417 5.66753003 14.30096148 12.67604876 17 22 C17.02729274 23.99981377 17.03013357 26.00022702 17 28 C14.10555905 28.6732656 11.20969987 29.33880404 8.3125 30 C7.49587891 30.19078125 6.67925781 30.3815625 5.83789062 30.578125 C1.82760674 31.48733916 -1.85717252 32.27000098 -6 32 C-6.29132813 31.32453125 -6.58265625 30.6490625 -6.8828125 29.953125 C-9.42229198 24.4269621 -11.25792921 20.65018652 -17 18 C-25.38747885 15.1768173 -34.3560893 14.41782954 -42.5 18.1875 C-46.16985901 20.26708677 -48.61887156 21.85661467 -50 26 C-50.43299429 30.76293721 -50.02552064 34.64513062 -48 39 C-44.29217386 41.35107773 -39.83245216 42.50220509 -35.6875 43.875 C-34.88787842 44.14183594 -34.08825684 44.40867187 -33.2644043 44.68359375 C-28.31471297 46.31072801 -23.36474408 47.72892802 -18.3125 49 C-4.97958439 52.49739221 7.46910011 56.54459042 15.68359375 68.4375 C21.08942081 77.74838626 21.48904128 88.49728097 18.75 98.8828125 C14.77386021 110.10712378 7.86549456 116.47983991 -2.64453125 121.640625 C-11.19448686 125.10440213 -18.63404712 126.50210167 -27.875 126.375 C-28.93348145 126.36557373 -29.99196289 126.35614746 -31.08251953 126.34643555 C-45.61228508 126.06533711 -58.18767062 122.43722873 -68.95703125 112.296875 C-74.97872401 105.5267883 -77.88022781 97.90025825 -79 89 C-73.93676762 87.11562549 -68.93549408 86.20502938 -63.625 85.375 C-62.79355469 85.2409375 -61.96210937 85.106875 -61.10546875 84.96875 C-59.07102597 84.6413684 -57.03560684 84.32006397 -55 84 C-54.73219727 84.9439563 -54.73219727 84.9439563 -54.45898438 85.90698242 C-52.70854362 91.91255427 -50.58579884 96.77137602 -45.0390625 100.21875 C-37.21917406 104.28858041 -29.09885816 105.32385394 -20.390625 103.43359375 C-15.30864566 101.80497286 -10.71761492 100.01375543 -7.1875 95.875 C-5.01883765 90.62455431 -5.1957941 85.99136699 -7.3125 80.75 C-13.97176432 73.93586907 -23.08864712 72.3849372 -32.08447266 70.51464844 C-47.78085363 67.21601479 -62.21003752 62.48473198 -72 49 C-76.78490369 40.67626129 -77.56505757 29.98963621 -75.1640625 20.80078125 C-71.11645179 10.19278137 -64.87356177 3.28560097 -54.74609375 -1.78515625 C-37.63125531 -9.35658549 -16.5908226 -9.4259846 0 0 Z " fill="#071530" transform="translate(727,436)"/>
<path d="M0 0 C9.41708345 6.85033326 15.43700714 15.02835823 18.5625 26.4375 C19.46521959 33.29816891 19.1875 40.26769649 19.1875 47.1875 C-2.5925 47.1875 -24.3725 47.1875 -46.8125 47.1875 C-43.80079288 56.96685288 -43.80079288 56.96685288 -37.8125 63.1875 C-37.11125 63.765 -36.41 64.3425 -35.6875 64.9375 C-30.23526405 68.57232396 -23.06504275 67.7917088 -16.8125 67.1875 C-11.97890062 65.57183086 -8.76430558 63.48541671 -5.75 59.375 C-5.2859375 58.2921875 -5.2859375 58.2921875 -4.8125 57.1875 C2.99076294 57.57766315 9.11673365 59.94523658 16.1875 63.1875 C15.20439252 70.10566375 11.01966554 74.79671091 5.78125 79.21875 C-6.56979449 88.21518981 -19.93433114 89.37271554 -34.8125 88.1875 C-45.18814045 86.08351729 -55.32149431 79.56198696 -61.8125 71.1875 C-70.21216123 57.39229167 -73.15778645 42.86363601 -69.6875 26.9375 C-65.86125998 13.69692988 -58.32137325 4.10398791 -46.28515625 -2.55859375 C-45.46917969 -2.97238281 -44.65320312 -3.38617188 -43.8125 -3.8125 C-43.15121094 -4.15410156 -42.48992187 -4.49570312 -41.80859375 -4.84765625 C-28.62563635 -10.39430173 -11.71038303 -7.32881354 0 0 Z " fill="#2868EE" transform="translate(1429.8125,473.8125)"/>
<path d="M0 0 C7.92 0 15.84 0 24 0 C24.33 23.76 24.66 47.52 25 72 C27.97 68.7 30.94 65.4 34 62 C37.1516645 58.62186859 40.31631922 55.25760208 43.4921875 51.90234375 C44.41257812 50.92587891 44.41257812 50.92587891 45.3515625 49.9296875 C45.96797607 49.29192383 46.58438965 48.65416016 47.21948242 47.99707031 C49.05374475 46.0353212 49.05374475 46.0353212 50.4934082 43.74511719 C53.07511673 40.03219052 54.72077145 38.24640251 59.26757812 37.37060547 C63.17886665 37.21263005 67.03279481 37.29983134 70.9375 37.5 C72.30262979 37.54018424 73.66787353 37.57667641 75.03320312 37.609375 C78.35839304 37.7033733 81.67771956 37.83466496 85 38 C85 40 85 40 82.80224609 42.32495117 C81.87750488 43.20771729 80.95276367 44.0904834 80 45 C79.21318848 45.78157471 78.42637695 46.56314941 77.61572266 47.3684082 C76.8066748 48.17109131 75.99762695 48.97377441 75.1640625 49.80078125 C73.31763651 51.63794865 71.47128454 53.47519045 69.625 55.3125 C68.70460938 56.22451172 67.78421875 57.13652344 66.8359375 58.07617188 C61.67708926 63.21659565 56.69301543 68.42914722 52 74 C53.42401602 77.95294964 55.30588848 81.20395823 57.640625 84.69140625 C57.99981522 85.23002792 58.35900543 85.7686496 58.7290802 86.32359314 C59.89800657 88.07310471 61.07381735 89.81786037 62.25 91.5625 C63.05936696 92.770697 63.86852869 93.97903151 64.67749023 95.1875 C70.28179648 103.53990896 75.99473738 111.81303631 81.84667969 119.99438477 C82.65153809 121.12638306 82.65153809 121.12638306 83.47265625 122.28125 C84.17273804 123.25674805 84.17273804 123.25674805 84.88696289 124.25195312 C86 126 86 126 87 129 C82.48082581 129.32077927 77.96457468 129.5151892 73.4375 129.6875 C72.16068359 129.77966797 70.88386719 129.87183594 69.56835938 129.96679688 C65.77703014 130.07512057 62.66417422 129.99477928 59 129 C55.68196227 125.82942232 54.0195721 122.07571593 52 118 C50.65253002 115.96443929 49.26873769 113.952505 47.8515625 111.96484375 C47.15675781 110.97162109 46.46195313 109.97839844 45.74609375 108.95507812 C45.04613281 107.95927734 44.34617187 106.96347656 43.625 105.9375 C42.19935509 103.90576541 40.77481624 101.87325411 39.3515625 99.83984375 C38.73104004 98.95675537 38.11051758 98.07366699 37.47119141 97.16381836 C36 95 36 95 35 93 C30.78448254 94.62135287 27.31921227 97.12484957 25 101 C24.10908577 105.78781963 24.11525145 110.51535009 24.125 115.375 C24.104375 116.68339844 24.08375 117.99179687 24.0625 119.33984375 C24.01549596 122.55962015 24.00425379 125.77988333 24 129 C16.08 129 8.16 129 0 129 C0 86.43 0 43.86 0 0 Z " fill="#0B1732" transform="translate(1032,431)"/>
<path d="M0 0 C8.81899094 5.28204581 14.37270616 12.47131537 17.2109375 22.32421875 C17.45144653 25.62728882 17.45144653 25.62728882 17.43798828 29.24755859 C17.43828033 29.91167755 17.43857239 30.57579651 17.43887329 31.26004028 C17.43749011 33.43521612 17.42197738 35.61004093 17.40625 37.78515625 C17.40251626 39.30115573 17.39967099 40.81715764 17.39767456 42.3331604 C17.39006652 46.30831657 17.3704426 50.28332481 17.3482666 54.25842285 C17.32774698 58.32069905 17.3186598 62.38299933 17.30859375 66.4453125 C17.28719379 74.40502311 17.25203498 82.36458544 17.2109375 90.32421875 C9.6209375 90.32421875 2.0309375 90.32421875 -5.7890625 90.32421875 C-5.79317139 88.57882812 -5.79728027 86.8334375 -5.80151367 85.03515625 C-5.82097444 79.24347087 -5.86338257 73.45219281 -5.92115307 67.66078186 C-5.95532383 64.15218702 -5.98051736 60.64402297 -5.98461914 57.13525391 C-5.98974902 53.09355791 -6.03495881 49.05314555 -6.08203125 45.01171875 C-6.0780986 43.76245605 -6.07416595 42.51319336 -6.07011414 41.22607422 C-6.18951901 34.04941567 -6.85105131 28.77967752 -11.7890625 23.32421875 C-16.18222965 19.97704378 -20.66321759 19.74255851 -26.03515625 19.91796875 C-30.4016362 20.56210196 -33.7632262 22.0894717 -36.7890625 25.32421875 C-41.22039139 32.36003052 -41.39008825 38.38209815 -41.3984375 46.57421875 C-41.41497375 47.82807373 -41.43151001 49.08192871 -41.44854736 50.3737793 C-41.4887152 53.68146376 -41.51215905 56.9886944 -41.52728271 60.29656982 C-41.54695206 63.68224517 -41.58891034 67.06763957 -41.62890625 70.453125 C-41.70267959 77.07679151 -41.75231897 83.70024751 -41.7890625 90.32421875 C-49.3790625 90.32421875 -56.9690625 90.32421875 -64.7890625 90.32421875 C-64.7890625 60.62421875 -64.7890625 30.92421875 -64.7890625 0.32421875 C-57.5290625 0.32421875 -50.2690625 0.32421875 -42.7890625 0.32421875 C-42.7890625 3.95421875 -42.7890625 7.58421875 -42.7890625 11.32421875 C-42.1290625 11.32421875 -41.4690625 11.32421875 -40.7890625 11.32421875 C-40.55703125 10.57527344 -40.325 9.82632812 -40.0859375 9.0546875 C-38.53746892 5.79450818 -37.01181129 4.6410721 -34.0390625 2.63671875 C-33.19859375 2.05535156 -32.358125 1.47398437 -31.4921875 0.875 C-22.1215906 -4.50090602 -9.73865528 -4.61049295 0 0 Z " fill="#2667EF" transform="translate(1331.7890625,469.67578125)"/>
<path d="M0 0 C5.59187385 4.4185317 9.29226114 9.86483755 11.87890625 16.5078125 C12.03515625 19.34375 12.03515625 19.34375 11.87890625 21.5078125 C9.15129114 22.18144622 6.42210725 22.84690694 3.69140625 23.5078125 C2.53801758 23.79398437 2.53801758 23.79398437 1.36132812 24.0859375 C-6.97812817 26.09027034 -6.97812817 26.09027034 -10.12109375 25.5078125 C-11.67578125 23.64453125 -11.67578125 23.64453125 -12.99609375 21.1953125 C-15.15732347 17.74168913 -16.79544834 15.18951903 -20.87890625 13.8828125 C-28.18513729 12.66086445 -35.60561079 11.99331839 -42.18359375 15.8828125 C-47.84370213 20.42357109 -50.67425991 25.7249085 -51.5234375 32.9140625 C-51.75417096 41.40505399 -51.09360557 49.97250658 -45.80859375 56.9453125 C-40.18995355 62.3026206 -34.05613332 63.89706473 -26.49609375 63.78515625 C-21.01813969 63.14546096 -16.771489 60.56779386 -13.18359375 56.4453125 C-11.00740772 53.64398335 -11.00740772 53.64398335 -10.12109375 50.5078125 C-2.73182141 51.13402202 4.85188233 52.06090238 11.87890625 54.5078125 C13.18437397 58.42421567 12.28897047 59.47768101 10.50390625 63.1328125 C4.9975487 73.60122099 -2.06957286 79.49054432 -13.12109375 83.5078125 C-14.43980469 84.05501953 -14.43980469 84.05501953 -15.78515625 84.61328125 C-26.02466192 87.3590035 -40.26548806 87.18098351 -49.9453125 82.765625 C-53.64056192 80.62941259 -56.9236089 78.33837286 -60.12109375 75.5078125 C-60.81203125 74.9096875 -61.50296875 74.3115625 -62.21484375 73.6953125 C-67.38451053 68.91144175 -70.47977898 64.01104962 -73.12109375 57.5078125 C-73.44078125 56.77304687 -73.76046875 56.03828125 -74.08984375 55.28125 C-78.2290103 44.12849568 -77.73117584 28.73145712 -72.96875 17.8828125 C-66.72854695 5.43697817 -57.6498803 -3.58599541 -44.49609375 -8.3671875 C-29.04059859 -12.44977113 -12.90185548 -9.07644345 0 0 Z " fill="#081530" transform="translate(1007.12109375,476.4921875)"/>
<path d="M0 0 C8.25 0 16.5 0 25 0 C25 34.98 25 69.96 25 106 C42.49 106 59.98 106 78 106 C78 113.59 78 121.18 78 129 C52.26 129 26.52 129 0 129 C0 86.43 0 43.86 0 0 Z " fill="#275FEB" transform="translate(1139,431)"/>
<path d="M0 0 C7.92 0 15.84 0 24 0 C24 8.58 24 17.16 24 26 C32.58 26 41.16 26 50 26 C50 32.93 50 39.86 50 47 C41.42 47 32.84 47 24 47 C24.09693137 53.19340413 24.19966055 59.38613844 24.31738281 65.57910156 C24.35566306 67.68581254 24.3905176 69.79258867 24.421875 71.89941406 C24.46754598 74.92797121 24.52553745 77.95608022 24.5859375 80.984375 C24.59748871 81.92617615 24.60903992 82.86797729 24.62094116 83.83831787 C24.64081085 84.71892883 24.66068054 85.59953979 24.68115234 86.50683594 C24.69447601 87.27960876 24.70779968 88.05238159 24.7215271 88.84857178 C25.03695787 91.28552942 25.72947417 92.90575793 27 95 C32.38953936 98.79663106 40.56360416 97.32485278 46.75 96.5 C47.4925 96.335 48.235 96.17 49 96 C50.23839599 102.65637843 50.09139136 109.2471936 50 116 C38.4560056 119.94419809 25.79904217 121.0078393 14.33984375 116.1953125 C7.27729519 112.58739955 4.04018666 107.65329622 0.90283203 100.49755859 C-0.39359988 95.47519959 -0.24548306 90.64168325 -0.1953125 85.4765625 C-0.1924826 84.37524994 -0.18965271 83.27393738 -0.18673706 82.13925171 C-0.17557478 78.63438892 -0.15047711 75.12978508 -0.125 71.625 C-0.11496511 69.24349328 -0.10584015 66.86198255 -0.09765625 64.48046875 C-0.07564832 58.65354661 -0.04114537 52.82681716 0 47 C-5.28 47 -10.56 47 -16 47 C-16 40.07 -16 33.14 -16 26 C-10.72 26 -5.44 26 0 26 C0 17.42 0 8.84 0 0 Z " fill="#0C1932" transform="translate(770,443)"/>
<path d="M0 0 C5.36650165 2.373443 9.47863022 6.50525862 12.68359375 11.3828125 C12.68359375 12.3728125 12.68359375 13.3628125 12.68359375 14.3828125 C13.61208272 14.37728174 13.61208272 14.37728174 14.55932903 14.37163925 C29.62413364 14.28328335 44.68885871 14.21710066 59.75385571 14.17556381 C67.03920487 14.15494272 74.32438103 14.12683103 81.60961914 14.08105469 C87.95980184 14.04117274 94.30985924 14.01537639 100.6601637 14.00645852 C104.02234587 14.00124596 107.38416958 13.98900477 110.7462368 13.95989227 C114.50055718 13.93092421 118.25413106 13.92685392 122.00854492 13.92871094 C123.6787394 13.90713928 123.6787394 13.90713928 125.38267517 13.88513184 C132.87875393 13.92534543 132.87875393 13.92534543 136.8742218 16.1963501 C138.68359375 18.3828125 138.68359375 18.3828125 139.30859375 21.8203125 C138.49382887 26.46447234 137.50426596 27.61328606 133.68359375 30.3828125 C129.79313095 31.11035099 125.95581125 31.01416636 122.00854492 30.95043945 C120.82763275 30.95116959 119.64672058 30.95189972 118.43002319 30.95265198 C115.20064786 30.94976976 111.97236243 30.92473422 108.74320388 30.88978219 C105.36533474 30.8584791 101.9874431 30.85558488 98.60945129 30.84965515 C92.21682997 30.83412814 85.8246373 30.79311577 79.43220454 30.7429077 C72.15296491 30.68697816 64.87370457 30.65951877 57.59430349 30.63443053 C42.62382826 30.58219842 27.65375392 30.494279 12.68359375 30.3828125 C12.24333862 31.56000854 12.24333862 31.56000854 11.79418945 32.76098633 C10.55196612 35.69355094 9.27967108 37.02094938 6.87109375 39.0703125 C6.20464844 39.65167969 5.53820312 40.23304688 4.8515625 40.83203125 C-1.31811113 45.24529329 -7.97981831 45.24333128 -15.31640625 44.3828125 C-21.63770293 42.0337501 -26.53558463 37.11375921 -29.42578125 31.05859375 C-31.42276689 25.05887812 -31.38826334 17.89682059 -28.81640625 12.0703125 C-22.5324573 1.32027126 -12.03217368 -3.20587427 0 0 Z " fill="#2768EE" transform="translate(106.31640625,472.6171875)"/>
<path d="M0 0 C5.19683059 3.13613808 9.39225797 6.07771798 11.98828125 11.640625 C11.98828125 12.960625 11.98828125 14.280625 11.98828125 15.640625 C13.53470306 15.62730133 13.53470306 15.62730133 15.11236572 15.6137085 C24.82371323 15.5326541 34.5349922 15.47267474 44.2466011 15.43337631 C49.23957659 15.41249338 54.23227922 15.38416278 59.22509766 15.33886719 C64.04264766 15.29543472 68.85993505 15.27149322 73.67766571 15.26111603 C75.51651901 15.25371998 77.35535779 15.23927731 79.19409943 15.21770477 C81.76806295 15.18870498 84.3409387 15.1846675 86.91503906 15.18652344 C87.67676926 15.17214233 88.43849945 15.15776123 89.22331238 15.14294434 C92.6831048 15.16997222 94.63391618 15.38038007 97.45770264 17.4541626 C99.72990116 20.70004399 99.59876119 22.77425207 98.98828125 26.640625 C96.2585493 30.2554513 94.79517544 31.51000494 90.27397156 32.24189758 C88.81377918 32.2563004 87.35315332 32.24329902 85.89331055 32.20825195 C84.69252617 32.20934715 84.69252617 32.20934715 83.46748352 32.21046448 C80.83179028 32.20699185 78.19788296 32.16814834 75.5625 32.12890625 C73.73119573 32.11957692 71.89987896 32.11246137 70.06855774 32.10746765 C65.25631048 32.08840726 60.44482177 32.03931484 55.63287354 31.98394775 C50.71954611 31.93273451 45.80609572 31.90994918 40.89257812 31.88476562 C31.25747983 31.83119509 21.6229437 31.74589394 11.98828125 31.640625 C11.54585083 32.81890869 11.54585083 32.81890869 11.09448242 34.02099609 C8.85506203 39.32423617 3.54867207 43.1325821 -1.57421875 45.578125 C-8.54463731 47.73261801 -14.51891458 46.68592253 -21.01171875 43.640625 C-27.1538771 39.7670831 -30.62047255 34.53332976 -32.59375 27.59375 C-34.08127963 20.64267694 -32.47968585 14.69256759 -29.01171875 8.640625 C-21.6976252 0.15246872 -10.80355048 -4.87631072 0 0 Z " fill="#287DF6" transform="translate(146.01171875,415.359375)"/>
<path d="M0 0 C4.76871256 2.66196076 8.17992274 6.12755313 10.6875 11 C10.6875 11.99 10.6875 12.98 10.6875 14 C11.7059198 13.99111755 12.7243396 13.98223511 13.77362061 13.9730835 C23.36723814 13.89202698 32.96078627 13.83204873 42.55466843 13.79275131 C47.48711153 13.7718689 52.41927839 13.7435393 57.3515625 13.69824219 C62.11075814 13.65480779 66.86968793 13.63086782 71.62906647 13.62049103 C73.44559159 13.61309533 75.26210203 13.59865331 77.0785141 13.57707977 C79.62134844 13.54807734 82.16308179 13.5440426 84.70605469 13.54589844 C85.45843414 13.53151733 86.2108136 13.51713623 86.98599243 13.50231934 C90.42612851 13.52951881 92.34623407 13.74879142 95.15118408 15.8135376 C97.43105044 19.05821014 97.29844746 21.13066609 96.6875 25 C93.96844789 28.59053193 92.50550963 29.86621314 88.01115417 30.60127258 C86.56890645 30.61567227 85.12621974 30.60268085 83.68432617 30.56762695 C82.49817215 30.56872215 82.49817215 30.56872215 81.28805542 30.56983948 C78.68481885 30.56636721 76.08339111 30.5275257 73.48046875 30.48828125 C71.67158485 30.47895178 69.86268829 30.4718363 68.05378723 30.46684265 C63.30071928 30.44778331 58.54841947 30.39869187 53.7956543 30.34332275 C48.94265127 30.2921072 44.08952371 30.2693237 39.23632812 30.24414062 C29.71971523 30.19057195 20.20367158 30.10527214 10.6875 30 C10.24724487 31.17719604 10.24724487 31.17719604 9.7980957 32.37817383 C8.55587237 35.31073844 7.28357733 36.63813688 4.875 38.6875 C4.20855469 39.26886719 3.54210937 39.85023438 2.85546875 40.44921875 C-3.54345291 45.02646542 -10.71845934 44.96819809 -18.3125 44 C-24.55669706 41.37040152 -29.43676225 36.90208219 -32.3828125 30.7734375 C-34.37995254 24.81558277 -34.5361831 17.46892307 -32.4375 11.51953125 C-25.45454745 -0.35608213 -12.9904439 -5.82803903 0 0 Z " fill="#2758E8" transform="translate(148.3125,530)"/>
<path d="M0 0 C7.59 0 15.18 0 23 0 C24.83357444 1.83357444 24.11999967 4.39635695 24.12442017 6.8359375 C24.12082489 7.67390869 24.11722961 8.51187988 24.11352539 9.37524414 C24.11367142 10.25321152 24.11381744 11.13117889 24.1139679 12.03575134 C24.11326844 14.95224435 24.10547455 17.86867433 24.09765625 20.78515625 C24.09579218 22.80154892 24.09436823 24.81794204 24.09336853 26.83433533 C24.08954244 32.15265138 24.07971139 37.4709403 24.06866455 42.78924561 C24.05845238 48.21170688 24.05387133 53.63417252 24.04882812 59.05664062 C24.0380892 69.70444094 24.02049167 80.35221398 24 91 C16.08 91 8.16 91 0 91 C0 60.97 0 30.94 0 0 Z " fill="#2C63EB" transform="translate(1228,469)"/>
<path d="M0 0 C6.3924309 2.88650465 11.56218248 8.64034387 14.046875 15.20703125 C16.19664784 25.02432724 14.43639576 34.0096959 9.703125 42.66015625 C5.59712713 47.70466791 0.17737006 50.86181019 -6.28125 51.71875 C-13.6134421 51.88362734 -18.63385323 50.88871832 -24.484375 46.34765625 C-31.27577387 39.85153559 -32.64965164 32.91371295 -32.921875 23.78515625 C-32.73629137 16.35438767 -31.7760433 11.73375766 -26.578125 6.38671875 C-18.65324401 -0.85804186 -10.73578881 -2.81898857 0 0 Z " fill="#FAFAFA" transform="translate(883.484375,489.65234375)"/>
<path d="M0 0 C5.51267064 3.05442788 8.72925645 6.03603174 11.07421875 11.8984375 C11.07421875 13.5484375 11.07421875 15.1984375 11.07421875 16.8984375 C-2.45578125 16.8984375 -15.98578125 16.8984375 -29.92578125 16.8984375 C-28.7035343 8.34270888 -25.99630445 4.99978851 -19.30078125 -0.1015625 C-12.88709302 -2.00191457 -6.33089311 -2.38359394 0 0 Z " fill="#F6F9FD" transform="translate(1413.92578125,488.1015625)"/>
<path d="M0 0 C3.48579191 1.98927391 6.19581306 4.39162612 8 8 C8.49689439 13.05854776 8.84331002 17.50078218 6.3125 22 C1.95502356 25.76862827 -1.01273083 27.60749942 -7.01171875 27.34765625 C-11.68512169 26.53049935 -14.38314019 23.71425872 -17.375 20.25 C-19.36415233 16.27169534 -19.87057168 13.36156413 -19 9 C-14.56913662 0.61300861 -9.21661575 -1.65093117 0 0 Z " fill="#2C8CF9" transform="translate(1245,429)"/>
<path d="M0 0 C3.69879153 1.16443437 5.24663599 1.8273867 7.375 5.0625 C7.96863772 9.14375936 7.78759601 11.30332335 5.8125 14.9375 C2.595257 17.74227595 0.62145609 18.13699923 -3.625 18.0625 C-6.42689446 16.29608828 -8.14024911 15.03200178 -9.625 12.0625 C-10.0625 8.75 -10.0625 8.75 -9.625 5.0625 C-6.48302168 1.38408636 -4.88568266 0.08423591 0 0 Z " fill="#F3F7FC" transform="translate(137.625,428.9375)"/>
<path d="M0 0 C2.99993115 2.54994148 3.85480459 4.12882756 4.5 8 C3.86089908 11.83460553 2.89357127 13.40320527 0 16 C-3.4375 17.0625 -3.4375 17.0625 -7 17 C-9.80189446 15.23358828 -11.51524911 13.96950178 -13 11 C-13.52981019 7.02642355 -13.31881474 5.45829619 -11 2.125 C-6.83726829 -0.82360163 -5.02455429 -0.7975483 0 0 Z " fill="#F2F5FC" transform="translate(142,543)"/>
<path d="M0 0 C3.88265681 0.72799815 5.46228253 1.50231129 8 4.5625 C8.71534153 7.70654141 8.71534153 10.41845859 8 13.5625 C5.46228253 16.62268871 3.88265681 17.39700185 0 18.125 C-4.13607554 17.34948584 -5.54999553 15.94927089 -8 12.5625 C-8.625 9.0625 -8.625 9.0625 -8 5.5625 C-5.54999553 2.17572911 -4.13607554 0.77551416 0 0 Z " fill="#F2F6FD" transform="translate(98,485.4375)"/>
<path d="M0 0 C7.26 0 14.52 0 22 0 C22 3.63 22 7.26 22 11 C21.67 11 21.34 11 21 11 C20.67 8.03 20.34 5.06 20 2 C17.18743719 1.97315688 14.37512759 1.95323812 11.5625 1.9375 C10.76005859 1.92912109 9.95761719 1.92074219 9.13085938 1.91210938 C7.08704779 1.9034857 5.04316098 1.9477185 3 2 C1.31699331 3.68300669 1.77190923 5.82008727 1.68359375 8.12890625 C1.64169922 9.16337891 1.59980469 10.19785156 1.55664062 11.26367188 C1.51732422 12.35228516 1.47800781 13.44089844 1.4375 14.5625 C1.39431641 15.65498047 1.35113281 16.74746094 1.30664062 17.87304688 C1.20017932 20.58189564 1.09816484 23.29083992 1 26 C0.67 26 0.34 26 0 26 C0 17.42 0 8.84 0 0 Z " fill="#1678F7" transform="translate(1267,470)"/>
<path d="M0 0 C0.66 0.33 1.32 0.66 2 1 C0.81668545 1.92206329 -0.37193929 2.83731209 -1.5625 3.75 C-2.22378906 4.26046875 -2.88507813 4.7709375 -3.56640625 5.296875 C-6.01279151 7.008952 -8.53812372 8.49341431 -11.14233398 9.95166016 C-12.99428527 10.996775 -14.81837173 12.07983272 -16.640625 13.17578125 C-17.84375 13.88802083 -19.046875 14.60026042 -20.25 15.3125 C-21.16652344 15.8703418 -21.16652344 15.8703418 -22.1015625 16.43945312 C-23.69100106 17.37125281 -25.34301894 18.19440745 -27 19 C-27.99 18.67 -28.98 18.34 -30 18 C-29.12674072 17.49025635 -28.25348145 16.9805127 -27.35375977 16.45532227 C-24.12319611 14.56901659 -20.89381592 12.68069305 -17.66479492 10.79174805 C-16.2653792 9.97348558 -14.86564038 9.15577544 -13.46557617 8.33862305 C-11.45667278 7.16599236 -9.44892845 5.99139954 -7.44140625 4.81640625 C-6.49763878 4.26636681 -6.49763878 4.26636681 -5.5348053 3.70521545 C-2.59762734 2.08419182 -2.59762734 2.08419182 0 0 Z " fill="#3192FA" transform="translate(261,354)"/>
<path d="M0 0 C1.29808594 -0.00257813 2.59617187 -0.00515625 3.93359375 -0.0078125 C6.96361541 0.10308173 9.62748638 0.41245334 12.5625 1.125 C12.5625 1.785 12.5625 2.445 12.5625 3.125 C11.97758789 3.11976318 11.39267578 3.11452637 10.79003906 3.10913086 C8.13087037 3.08829842 5.47171889 3.07531993 2.8125 3.0625 C1.89210938 3.05412109 0.97171875 3.04574219 0.0234375 3.03710938 C-0.86601562 3.03388672 -1.75546875 3.03066406 -2.671875 3.02734375 C-3.89729004 3.01948853 -3.89729004 3.01948853 -5.14746094 3.01147461 C-7.37718135 3.12200979 -9.29883755 3.50444433 -11.4375 4.125 C-11.4375 3.135 -11.4375 2.145 -11.4375 1.125 C-7.63399826 -0.09444331 -3.96996937 -0.00786912 0 0 Z " fill="#3EA0FB" transform="translate(361.4375,301.875)"/>
<path d="M0 0 C7.26 0 14.52 0 22 0 C22 1.98 22 3.96 22 6 C21.67 6 21.34 6 21 6 C21 4.35 21 2.7 21 1 C18.06030263 1.05993267 15.12572941 1.14690423 12.1875 1.25 C11.35412109 1.26417969 10.52074219 1.27835937 9.66210938 1.29296875 C4.77923838 1.35686919 4.77923838 1.35686919 0.92578125 4.046875 C0.46751953 5.01367188 0.46751953 5.01367188 0 6 C0 4.02 0 2.04 0 0 Z " fill="#1E7DF9" transform="translate(1229,470)"/>
<path d="M0 0 C0.99 0.33 1.98 0.66 3 1 C2.18208984 1.4021875 2.18208984 1.4021875 1.34765625 1.8125 C-1.31677056 3.16023003 -3.93984025 4.57270218 -6.5625 6 C-7.51253906 6.515625 -8.46257812 7.03125 -9.44140625 7.5625 C-12.11692338 9.02302594 -12.11692338 9.02302594 -15 11 C-15.99 10.67 -16.98 10.34 -18 10 C-15.37532366 8.5202565 -12.75027507 7.04118057 -10.125 5.5625 C-9.37863281 5.14162109 -8.63226563 4.72074219 -7.86328125 4.28710938 C-6.79013672 3.68286133 -6.79013672 3.68286133 -5.6953125 3.06640625 C-5.03547363 2.69459229 -4.37563477 2.32277832 -3.69580078 1.93969727 C-2.47885349 1.26534798 -1.24441397 0.62220698 0 0 Z " fill="#399CFB" transform="translate(346,304)"/>
<path d="M0 0 C0.66 0 1.32 0 2 0 C0.44396229 3.81936528 -1.95604931 6.26044438 -5 9 C-5.66 9 -6.32 9 -7 9 C-7.33 10.32 -7.66 11.64 -8 13 C-8.33 12.01 -8.66 11.02 -9 10 C-7.63671875 8.02734375 -7.63671875 8.02734375 -5.6875 5.9375 C-5.05199219 5.24527344 -4.41648437 4.55304688 -3.76171875 3.83984375 C-2.52249988 2.5456706 -1.26699399 1.26699399 0 0 Z " fill="#2F84F9" transform="translate(1376,476)"/>
<path d="M0 0 C-1.30567792 3.91703377 -2.80094602 4.31757187 -6.375 6.25 C-7.84066406 7.06210937 -7.84066406 7.06210937 -9.3359375 7.890625 C-12 9 -12 9 -15 8 C-12.8782637 6.66121428 -10.75294812 5.32884524 -8.625 4 C-8.02171875 3.6184375 -7.4184375 3.236875 -6.796875 2.84375 C-2.2265625 0 -2.2265625 0 0 0 Z " fill="#3196FB" transform="translate(318,321)"/>
<path d="M0 0 C0.66 0 1.32 0 2 0 C4.45029331 5.71735105 5.33266291 9.79029227 5 16 C3.12648408 13.18972612 2.5794204 11.76131342 1.9375 8.5625 C1.34926723 5.68939616 0.73115691 2.84051225 0 0 Z " fill="#3083F5" transform="translate(1344,484)"/>
<path d="M0 0 C0.66 0.33 1.32 0.66 2 1 C0.42210402 2.15330947 -1.1625482 3.29737927 -2.75 4.4375 C-3.63171875 5.07558594 -4.5134375 5.71367188 -5.421875 6.37109375 C-7.72699125 7.8275081 -9.34349572 8.55931821 -12 9 C-12 8.34 -12 7.68 -12 7 C-9.4453125 5.23828125 -9.4453125 5.23828125 -6.125 3.3125 C-5.03445313 2.66925781 -3.94390625 2.02601563 -2.8203125 1.36328125 C-1.88960938 0.91339844 -0.95890625 0.46351563 0 0 Z " fill="#2A42DD" transform="translate(411,628)"/>
<path d="M0 0 C0.66 0.33 1.32 0.66 2 1 C-1.33333333 4.33333333 -4.66666667 7.66666667 -8 11 C-6.60366572 6.55711819 -4.39598172 4.13475236 -1 1 C-0.67 0.67 -0.34 0.34 0 0 Z " fill="#2F8BF9" transform="translate(221,378)"/>
<path d="M0 0 C0.33 0.66 0.66 1.32 1 2 C-0.92333011 6.06036357 -3.40069448 8.37347975 -7 11 C-7 8 -7 8 -4.625 5.5 C-3.75875 4.675 -2.8925 3.85 -2 3 C-1.34 2.01 -0.68 1.02 0 0 Z " fill="#274DE5" transform="translate(488,578)"/>
<path d="M0 0 C3.63 1.98 7.26 3.96 11 6 C10.67 6.66 10.34 7.32 10 8 C8.51478323 7.24088921 7.03696575 6.46728766 5.5625 5.6875 C4.73878906 5.25824219 3.91507812 4.82898438 3.06640625 4.38671875 C1 3 1 3 0 0 Z " fill="#318FF9" transform="translate(485,370)"/>
<path d="M0 0 C3.63 0.66 7.26 1.32 11 2 C11 2.33 11 2.66 11 3 C6.71 3 2.42 3 -2 3 C-1.34 2.01 -0.68 1.02 0 0 Z " fill="#F7F8F8" transform="translate(796,466)"/>
<path d="M0 0 C0.99 0.33 1.98 0.66 3 1 C0.69 3.31 -1.62 5.62 -4 8 C-4 4.09161134 -2.49432124 2.88405893 0 0 Z " fill="#17223B" transform="translate(1075,483)"/>
</svg>
